# Blender v3.3.21 OBJ File: 'nex10.blend'
# www.blender.org
v 0.578678 0.018019 0.830000
v 0.583604 0.014661 0.830000
v 0.585637 0.012470 0.830000
v 0.587321 0.010000 0.830000
v 0.588618 0.007307 0.830000
v 0.588618 -0.007307 0.830000
v 0.587321 -0.010000 0.830000
v 0.585637 -0.012470 0.830000
v 0.581266 -0.016525 0.830000
v 0.567019 -0.019777 0.830000
v 0.564105 -0.019111 0.830000
v 0.561322 -0.018019 0.830000
v 0.554363 -0.012470 0.830000
v 0.551383 -0.007307 0.830000
v 0.550501 0.004450 0.830000
v 0.551383 0.007307 0.830000
v 0.552680 0.010000 0.830000
v 0.561322 0.018019 0.830000
v 0.564105 0.019111 0.830000
v 0.567019 0.019777 0.830000
v 0.566870 -0.020765 0.831000
v 0.563810 -0.020067 0.831000
v 0.560888 -0.018920 0.831000
v 0.549059 0.001569 0.831000
v 0.555716 0.015394 0.831000
v 0.558170 0.017351 0.831000
v 0.560888 0.018920 0.831000
v 0.566870 0.020765 0.831000
v 0.558734 0.016525 0.830000
v 0.556397 0.014661 0.830000
v 0.554363 0.012470 0.830000
v 0.550056 0.001495 0.830000
v 0.550056 -0.001495 0.830000
v 0.550501 -0.004450 0.830000
v 0.552680 -0.010000 0.830000
v 0.556397 -0.014661 0.830000
v 0.558734 -0.016525 0.830000
v 0.570000 -0.020000 0.830000
v 0.572981 -0.019777 0.830000
v 0.575895 -0.019111 0.830000
v 0.578678 -0.018019 0.830000
v 0.583604 -0.014661 0.830000
v 0.589499 -0.004450 0.830000
v 0.589944 -0.001495 0.830000
v 0.589944 0.001495 0.830000
v 0.589499 0.004450 0.830000
v 0.581266 0.016525 0.830000
v 0.575895 0.019111 0.830000
v 0.572981 0.019777 0.830000
v 0.570000 0.020000 0.830000
v 0.579112 0.018920 0.831000
v 0.581830 0.017351 0.831000
v 0.590474 0.004673 0.831000
v 0.590941 -0.001569 0.831000
v 0.590474 -0.004673 0.831000
v 0.581830 -0.017351 0.831000
v 0.579112 -0.018920 0.831000
v 0.576190 -0.020067 0.831000
v 0.573130 -0.020765 0.831000
v 0.584284 -0.015394 0.831000
v 0.586419 -0.013093 0.831000
v 0.588187 -0.010500 0.831000
v 0.589548 -0.007672 0.831000
v 0.590941 0.001569 0.831000
v 0.589548 0.007672 0.831000
v 0.588187 0.010500 0.831000
v 0.586419 0.013093 0.831000
v 0.584284 0.015394 0.831000
v 0.576190 0.020067 0.831000
v 0.573130 0.020765 0.831000
v 0.570000 0.021000 0.831000
v 0.573130 0.020765 0.842000
v 0.579112 0.018920 0.842000
v 0.586419 0.013093 0.842000
v 0.588187 0.010500 0.842000
v 0.590474 0.004673 0.842000
v 0.590941 0.001569 0.842000
v 0.590474 -0.004673 0.842000
v 0.588187 -0.010500 0.842000
v 0.586419 -0.013093 0.842000
v 0.584284 -0.015394 0.842000
v 0.581830 -0.017351 0.842000
v 0.570000 0.021000 0.842000
v 0.566870 0.020765 0.842000
v 0.563810 0.020067 0.842000
v 0.560888 0.018920 0.842000
v 0.553582 0.013093 0.842000
v 0.549527 0.004673 0.842000
v 0.549059 0.001569 0.842000
v 0.551813 -0.010500 0.842000
v 0.555716 -0.015394 0.842000
v 0.563810 -0.020067 0.842000
v 0.573130 -0.020765 0.842000
v 0.576190 -0.020067 0.842000
v 0.579112 -0.018920 0.842000
v 0.589548 -0.007672 0.842000
v 0.590941 -0.001569 0.842000
v 0.589548 0.007672 0.842000
v 0.584284 0.015394 0.842000
v 0.581830 0.017351 0.842000
v 0.576190 0.020067 0.842000
v 0.563810 0.020067 0.831000
v 0.553582 0.013093 0.831000
v 0.551813 0.010500 0.831000
v 0.550452 0.007672 0.831000
v 0.549527 0.004673 0.831000
v 0.549059 -0.001569 0.831000
v 0.549527 -0.004673 0.831000
v 0.550452 -0.007672 0.831000
v 0.551813 -0.010500 0.831000
v 0.553582 -0.013093 0.831000
v 0.555716 -0.015394 0.831000
v 0.558170 -0.017351 0.831000
v 0.570000 -0.021000 0.831000
v 0.570000 -0.021000 0.842000
v 0.566870 -0.020765 0.842000
v 0.560888 -0.018920 0.842000
v 0.558170 -0.017351 0.842000
v 0.553582 -0.013093 0.842000
v 0.550452 -0.007672 0.842000
v 0.549527 -0.004673 0.842000
v 0.549059 -0.001569 0.842000
v 0.550452 0.007672 0.842000
v 0.551813 0.010500 0.842000
v 0.555716 0.015394 0.842000
v 0.558170 0.017351 0.842000
vt 1.000000 0.666667
vt 0.000000 0.713726
vt 0.000000 0.666667
vt 1.000000 0.619608
vt 0.000000 0.619608
vt 1.000000 0.858824
vt 0.000000 0.807843
vt 1.000000 0.807843
vt 1.000000 0.760784
vt 0.000000 0.760784
vt 0.000000 0.713726
vt 1.000000 0.474510
vt 0.000000 0.474510
vt 1.000000 0.427451
vt 1.000000 0.333333
vt 0.000000 0.380392
vt 0.000000 0.333333
vt 1.000000 0.286275
vt 0.000000 0.286275
vt 1.000000 0.047059
vt 0.000000 0.094118
vt 0.000000 0.047059
vt 0.000000 0.474510
vt 1.000000 0.525490
vt 0.000000 0.525490
vt 1.000000 0.572549
vt 0.000000 0.572549
vt 0.000000 0.525490
vt 0.000000 0.474510
vt 1.000000 0.525490
vt 0.000000 0.000000
vt 1.000000 0.141176
vt 0.000000 0.000000
vt 0.784314 0.913726
vt 0.000000 0.000000
vt 0.000000 0.286275
vt 0.000000 0.000000
vt 0.000000 0.000000
vt 0.647059 0.023529
vt 0.000000 0.000000
vt 0.000000 0.000000
vt 0.717647 0.050980
vt 0.000000 0.000000
vt 1.000000 0.760784
vt 1.000000 0.807843
vt 0.000000 0.000000
vt 0.000000 0.000000
vt 0.011765 0.611765
vt 0.031373 0.682353
vt 0.066667 0.749020
vt 0.000000 0.000000
vt 0.000000 0.000000
vt 0.352941 0.976471
vt 0.423529 0.996078
vt 0.000000 0.000000
vt 0.000000 0.047059
vt 0.000000 0.094118
vt 0.000000 0.000000
vt 0.000000 0.000000
vt 0.000000 0.000000
vt 0.890196 0.811765
vt 0.933333 0.749020
vt 0.968628 0.682353
vt 0.000000 0.000000
vt 0.000000 0.000000
vt 0.933333 0.250980
vt 0.890196 0.188235
vt 0.000000 0.000000
vt 0.000000 0.000000
vt 0.000000 0.000000
vt 0.000000 0.905882
vt 0.000000 0.952941
vt 0.000000 1.000000
vt 0.000000 0.000000
vt 0.352941 0.023529
vt 0.282353 0.050980
vt 0.000000 0.000000
vt 0.000000 0.239216
vt 0.000000 0.000000
vt 0.000000 0.000000
vt 0.000000 0.000000
vt 0.000000 0.000000
vt 0.000000 0.000000
vt 1.000000 0.192157
vt 0.839216 0.866667
vt 1.000000 0.427451
vt 1.000000 0.380392
vt 0.000000 0.000000
vt 0.000000 0.000000
vt 0.000000 0.000000
vt 0.000000 0.000000
vt 1.000000 0.141176
vt 0.000000 0.000000
vt 0.000000 0.000000
vt 1.000000 0.000000
vt 0.000000 0.000000
vt 0.000000 0.000000
vt 1.000000 0.760784
vt 1.000000 0.713726
vt 1.000000 0.666667
vt 0.000000 0.000000
vt 0.000000 0.000000
vt 0.000000 0.000000
vt 0.000000 0.000000
vt 0.000000 0.000000
vt 0.000000 0.000000
vt 0.000000 0.000000
vt 0.000000 0.000000
vt 0.000000 0.000000
vt 0.000000 0.000000
vt 0.423529 0.996078
vt 0.352941 0.976471
vt 0.282353 0.949020
vt 0.000000 0.000000
vt 0.000000 0.000000
vt 0.000000 0.000000
vt 0.000000 0.000000
vt 0.000000 0.537255
vt 0.000000 0.000000
vt 0.000000 0.000000
vt 0.000000 0.427451
vt 0.000000 0.427451
vt 0.000000 0.000000
vt 0.000000 0.192157
vt 0.000000 0.572549
vt 0.000000 0.000000
vt 0.000000 0.000000
vt 0.000000 0.000000
vt 0.501961 1.000000
vt 0.839216 0.866667
vt 0.000000 0.239216
vt 1.000000 0.427451
vt 0.000000 0.427451
vt 0.000000 0.000000
vt 0.000000 0.000000
vt 0.000000 0.666667
vt 0.000000 0.000000
vt 0.968628 0.317647
vt 0.000000 0.619608
vt 0.000000 0.000000
vt 0.000000 0.000000
vt 1.000000 0.192157
vt 0.000000 0.380392
vt 1.000000 0.094118
vt 0.000000 0.858824
vt 1.000000 0.858824
vt 1.000000 0.905882
vt 0.000000 0.000000
vt 0.000000 0.000000
vt 1.000000 0.474510
vt 0.000000 0.474510
vt 0.000000 0.192157
vt 1.000000 0.047059
vt 0.000000 0.000000
vt 0.000000 0.000000
vt 0.000000 0.000000
vt 1.000000 0.047059
vt 0.000000 0.713726
vt 0.000000 0.000000
vt 0.576471 0.003922
vt 0.282353 0.949020
vt 0.000000 0.000000
vt 0.000000 0.000000
vt 0.000000 0.000000
vt 0.000000 0.000000
vt 0.423529 0.003922
vt 0.000000 0.239216
vt 0.000000 0.000000
vt 0.000000 0.000000
vt 1.000000 0.807843
vt 1.000000 0.807843
vt 0.000000 0.760784
vt 0.000000 0.000000
vt 0.000000 0.000000
vt 0.011765 0.611765
vt 0.000000 0.192157
vt 1.000000 0.286275
vt 0.000000 0.333333
vt 0.000000 0.000000
vt 0.000000 0.000000
vn -0.8660 0.5000 0.0000
vn -0.7818 0.6235 0.0000
vn -0.9309 0.3653 0.0000
vn -0.3068 0.6371 -0.7071
vn -0.3983 0.5842 -0.7071
vn -0.4810 0.5183 -0.7071
vn -0.5528 0.4409 -0.7071
vn 0.9972 0.0747 -0.0000
vn 0.9749 0.2225 -0.0000
vn 0.8660 0.5000 0.0000
vn 0.9309 0.3653 -0.0000
vn 0.7818 0.6235 0.0000
vn 0.1490 0.9888 0.0000
vn 0.2948 0.9556 -0.0000
vn 0.7051 0.0529 -0.7071
vn 0.7051 -0.0528 -0.7071
vn 0.7051 -0.0529 -0.7071
vn 0.6894 -0.1574 -0.7071
vn 0.6894 -0.1573 -0.7071
vn -0.7051 0.0529 -0.7071
vn -0.7051 -0.0529 -0.7071
vn 0.4999 0.8661 0.0000
vn 0.5000 0.8644 -0.0528
vn -0.5851 -0.3989 -0.7061
vn -0.6261 -0.4285 -0.6515
vn 0.3654 -0.9309 0.0000
vn -0.6235 0.7818 0.0000
vn -0.6221 0.7811 -0.0529
vn -0.6793 0.7338 0.0130
vn -0.5633 0.8262 -0.0000
vn -0.7051 0.0528 -0.7071
vn -0.7051 -0.0528 -0.7071
vn -0.7081 0.0000 -0.7061
vn 0.0000 0.0000 -1.0000
vn 0.0001 0.0000 -1.0000
vn -0.0001 0.0000 -1.0000
vn -0.0198 0.0489 -0.9986
vn -0.0525 0.0044 -0.9986
vn -0.0133 0.0513 -0.9986
vn -0.0521 0.0099 -0.9986
vn 0.0196 0.0492 -0.9986
vn -0.0407 0.0339 -0.9986
vn 0.0248 0.0465 -0.9986
vn -0.0373 0.0372 -0.9986
vn 0.0527 0.0041 -0.9986
vn 0.0011 0.0528 -0.9986
vn 0.0529 -0.0024 -0.9986
vn 0.0064 0.0526 -0.9986
vn 0.0523 -0.0088 -0.9986
vn 0.0114 0.0518 -0.9986
vn 0.0271 -0.0455 -0.9986
vn 0.0418 0.0324 -0.9986
vn 0.0208 -0.0489 -0.9986
vn 0.0455 0.0275 -0.9986
vn 0.0148 -0.0507 -0.9986
vn 0.0475 0.0231 -0.9986
vn -0.0172 -0.0499 -0.9986
vn 0.0526 -0.0021 -0.9986
vn -0.0002 0.0000 -1.0000
vn 0.0004 0.0000 -1.0000
vn -0.0003 0.0000 -1.0000
vn -0.0437 -0.0302 -0.9986
vn -0.7201 0.2373 -0.6521
vn -0.6767 0.2088 -0.7060
vn 0.6235 0.7818 0.0000
vn 0.6232 0.7802 -0.0529
vn -0.0732 0.0148 0.9972
vn -0.0747 0.0039 0.9972
vn 0.0000 0.0000 1.0000
vn -0.0740 0.0093 0.9972
vn 0.0001 0.0000 1.0000
vn -0.0745 0.0037 0.9972
vn -0.0747 -0.0019 0.9972
vn -0.0743 -0.0074 0.9972
vn 0.0071 -0.0743 0.9972
vn -0.0736 -0.0130 0.9972
vn -0.0669 -0.0332 0.9972
vn -0.0724 -0.0184 0.9972
vn -0.0708 -0.0238 0.9972
vn 0.0332 -0.0671 0.9972
vn -0.0688 -0.0290 0.9972
vn -0.0539 -0.0520 0.9972
vn -0.0665 -0.0341 0.9972
vn -0.0638 -0.0390 0.9972
vn -0.0607 -0.0436 0.9972
vn -0.0572 -0.0480 0.9972
vn 0.0655 -0.0359 0.9972
vn -0.0535 -0.0522 0.9972
vn -0.0214 -0.0716 0.9972
vn 0.0694 -0.0276 0.9972
vn -0.0494 -0.0560 0.9972
vn -0.0140 -0.0734 0.9972
vn 0.0723 -0.0190 0.9972
vn -0.0451 -0.0596 0.9972
vn -0.0064 -0.0745 0.9972
vn -0.0405 -0.0628 0.9972
vn -0.0357 -0.0656 0.9972
vn -0.0307 -0.0681 0.9972
vn -0.0255 -0.0702 0.9972
vn 0.0704 0.0259 0.9972
vn -0.0202 -0.0719 0.9972
vn 0.0311 -0.0683 0.9972
vn -0.0148 -0.0732 0.9972
vn -0.0093 -0.0741 0.9972
vn 0.0563 0.0492 0.9972
vn -0.0037 -0.0746 0.9972
vn 0.0501 -0.0554 0.9972
vn 0.0019 -0.0747 0.9972
vn 0.0075 -0.0743 0.9972
vn 0.0130 -0.0736 0.9972
vn 0.0184 -0.0724 0.9972
vn 0.0238 -0.0708 0.9972
vn 0.0290 -0.0688 0.9972
vn 0.0341 -0.0665 0.9972
vn 0.0390 -0.0637 0.9972
vn 0.0436 -0.0607 0.9972
vn 0.0481 -0.0572 0.9972
vn -0.0350 0.0660 0.9972
vn 0.0521 -0.0535 0.9972
vn 0.0715 0.0215 0.9972
vn 0.0559 -0.0494 0.9972
vn -0.0002 0.0000 1.0000
vn 0.0597 -0.0451 0.9972
vn -0.0560 0.0490 0.9972
vn 0.0628 -0.0405 0.9972
vn 0.0615 0.0420 0.9972
vn 0.0655 -0.0357 0.9972
vn -0.0001 0.0000 1.0000
vn 0.0681 -0.0307 0.9972
vn 0.0747 0.9944 -0.0746
vn 0.0000 1.0000 0.0000
vn 0.0749 0.9972 0.0000
vn -0.6699 -0.1425 -0.7287
vn -0.7504 -0.1144 -0.6511
vn -0.7004 -0.1055 -0.7059
vn -0.7052 -0.0529 -0.7070
vn -0.3540 -0.6132 -0.7062
vn -0.4167 -0.5726 -0.7061
vn -0.9529 0.2939 -0.0745
vn -0.9749 0.2225 0.0000
vn -0.9556 0.2947 0.0000
vn -0.9491 0.3063 0.0734
vn -0.4999 0.8661 0.0000
vn -0.4985 0.8653 -0.0530
vn 0.6344 0.4150 -0.6522
vn 0.5851 0.3989 -0.7061
vn 0.5480 0.4631 -0.6966
vn -0.5851 0.3989 -0.7061
vn -0.6279 0.4265 -0.6510
vn -0.6179 0.4387 -0.6525
vn -0.0749 0.9972 0.0000
vn 0.5191 0.4817 -0.7061
vn 0.5555 0.5172 -0.6511
vn 0.5654 0.5049 -0.6522
vn 0.7116 0.2195 -0.6674
vn 0.6382 0.2044 -0.7422
vn 0.6767 0.2088 -0.7060
vn 0.6602 0.2809 -0.6966
vn -0.2224 0.9750 0.0000
vn -0.8261 0.5636 0.0000
vn -0.3982 0.5843 -0.7072
vn -0.4582 0.5088 -0.7288
vn -0.4810 0.5184 -0.7070
vn -0.4641 0.5820 -0.6677
vn 0.8929 -0.4442 0.0736
vn 0.8986 -0.4324 -0.0748
vn 0.9011 -0.4337 0.0000
vn -0.3654 0.9309 0.0000
vn -0.4754 0.4837 -0.7349
vn -0.5205 0.4367 -0.7338
vn -0.5735 0.4315 -0.6964
vn 0.6382 -0.3072 -0.7059
vn 0.6843 -0.3280 -0.6512
vn -0.6235 -0.7818 0.0000
vn -0.5633 -0.8262 0.0000
vn -0.5666 -0.8236 -0.0248
vn -0.9749 -0.2225 -0.0000
vn -0.9529 -0.2939 -0.0747
vn -0.9309 -0.3653 0.0000
vn -0.9321 -0.3613 -0.0248
vn -0.2586 -0.6591 -0.7062
vn -0.2084 -0.6758 -0.7070
vn 0.2446 -0.6234 -0.7427
vn 0.3068 -0.6370 -0.7072
vn 0.2231 -0.6926 -0.6860
vn 0.2084 -0.6758 -0.7070
vn 0.3654 0.9309 0.0000
vn 0.3522 0.9330 -0.0737
vn 0.7310 0.6783 -0.0747
vn 0.6802 0.7331 0.0000
vn 0.7331 0.6802 0.0000
vn 0.7399 0.6687 0.0736
vn -0.3540 0.6132 -0.7061
vn -0.3542 0.5722 -0.7397
vn 0.1592 -0.7270 -0.6679
vn 0.1576 -0.6904 -0.7061
vn 0.1052 -0.6990 -0.7073
vn 0.1489 -0.6531 -0.7425
vn -0.9972 -0.0747 -0.0000
vn -0.9861 -0.1487 -0.0747
vn -0.9756 -0.2184 -0.0248
vn 0.4414 0.5536 -0.7061
vn 0.4015 0.5881 -0.7021
vn 0.3983 0.5843 -0.7070
vn 0.3043 0.6328 -0.7120
vn 0.2587 0.6590 -0.7062
vn 0.2115 0.6512 -0.7288
vn 0.1917 0.6912 -0.6968
vn 0.1054 0.6991 -0.7072
vn 0.0104 0.6847 -0.7288
vn 0.0554 0.7571 -0.6510
vn 0.0710 0.7547 -0.6522
vn -0.4985 -0.8636 -0.0747
vn -0.4999 -0.8661 0.0000
vn -0.4349 -0.9004 0.0130
vn -0.1490 -0.9888 -0.0000
vn -0.0749 -0.9972 0.0000
vn -0.0000 -1.0000 0.0000
vn -0.0042 -0.9997 -0.0248
vn 0.1829 0.7358 -0.6521
vn 0.2083 0.6760 -0.7069
vn 0.1576 0.6904 -0.7061
vn 0.0869 0.7121 -0.6966
vn -0.0529 -0.7063 -0.7060
vn -0.0552 -0.7425 -0.6676
vn -0.0501 -0.6681 -0.7424
vn -0.7332 -0.6800 0.0000
vn -0.7312 -0.6781 -0.0744
vn 0.7818 -0.6235 -0.0000
vn 0.8239 -0.5618 -0.0748
vn 0.8660 -0.5000 0.0000
vn 0.8636 -0.5035 -0.0248
vn 0.0921 -0.6787 -0.7286
vn 0.0529 -0.7063 -0.7060
vn 0.0001 -0.7072 -0.7070
vn -0.1576 0.6904 -0.7061
vn 0.9555 -0.2950 0.0000
vn 0.2224 -0.9750 0.0000
vn 0.3540 0.6132 -0.7062
vn 0.3068 0.6371 -0.7071
vn 0.3723 0.6446 -0.6677
vn -0.2586 0.6591 -0.7062
vn -1.0000 0.0000 0.0000
vn 0.2224 0.9750 0.0000
vn 0.2947 0.9556 -0.0000
vn 0.7050 0.0528 -0.7072
vn 0.6697 0.1423 -0.7288
vn 0.7002 0.1054 -0.7061
vn -0.1576 -0.6904 -0.7061
vn -0.1055 -0.6990 -0.7073
vn -0.1660 -0.7258 -0.6676
vn 0.9555 0.2950 0.0000
vn 0.9601 0.2706 -0.0703
vn 0.9566 0.2817 0.0739
vn -0.5556 -0.5173 -0.6510
vn -0.5653 -0.5049 -0.6524
vn -0.5191 -0.4817 -0.7061
vn -0.4912 -0.4554 -0.7425
vn 0.4999 -0.8661 0.0000
vn -0.7249 -0.2250 -0.6511
vn -0.7286 -0.2097 -0.6521
vn -0.6767 -0.2088 -0.7060
vn 1.0000 0.0000 0.0000
vn 0.9972 -0.0247 -0.0702
vn 0.9972 -0.0000 0.0744
vn 0.3540 -0.6132 -0.7062
vn 0.3984 -0.5842 -0.7071
vn 0.3051 -0.6325 -0.7120
vn 0.5633 -0.8262 -0.0000
vn 0.6235 -0.7818 0.0000
vn 0.6802 -0.7331 0.0000
vn 0.6769 -0.7357 -0.0248
vn -0.6766 0.3418 -0.6522
vn -0.6379 0.3071 -0.7063
vn -0.6749 0.2428 -0.6968
vn -0.2224 -0.9750 0.0000
vn 0.4414 -0.5536 -0.7061
vn 0.4641 -0.5822 -0.6676
vn -0.9888 0.1491 0.0000
vn -0.3939 -0.5601 -0.7288
vn -0.4721 -0.5940 -0.6514
vn -0.4414 -0.5535 -0.7063
vn -0.4809 -0.5184 -0.7071
vn 0.0617 -0.9954 0.0737
vn 0.0747 -0.9944 -0.0749
vn 0.0749 -0.9972 0.0000
vn -0.8261 -0.5636 0.0000
vn -0.7818 -0.6235 0.0000
vn -0.7842 -0.6200 -0.0247
vn -0.6832 -0.3304 -0.6512
vn -0.6889 -0.3156 -0.6525
vn -0.6379 -0.3071 -0.7063
vn 0.6382 0.3072 -0.7060
vn 0.6835 0.3305 -0.6509
vn 0.6891 0.3158 -0.6522
vn -0.7332 0.6800 0.0000
vn -0.7144 0.6962 -0.0702
vn -0.7223 0.6876 0.0736
vn 0.6278 -0.4264 -0.6512
vn 0.6181 -0.4389 -0.6522
vn 0.5851 -0.3989 -0.7061
vn 0.5191 -0.4817 -0.7061
vn 0.5573 -0.5152 -0.6511
vn -0.9042 -0.4207 0.0736
vn -0.8986 -0.4325 -0.0747
vn -0.9011 -0.4337 0.0000
vn 0.9011 0.4337 0.0000
vn -0.0529 0.7063 -0.7060
vn 0.7310 -0.6783 -0.0747
vn 0.7819 -0.6235 0.0000
vn 0.7790 -0.6266 -0.0248
vn 0.9889 -0.1488 0.0000
vn 0.7092 -0.2260 -0.6678
vn 0.6512 -0.2788 -0.7059
vn 0.6767 -0.2088 -0.7060
vn 0.6400 -0.1975 -0.7425
vn 0.6781 0.0334 -0.7342
vn 0.7081 0.0000 -0.7061
vn 0.6769 -0.0310 -0.7354
vn -0.3765 -0.9235 0.0735
vn -0.3654 -0.9309 0.0000
vn -0.7004 0.1055 -0.7059
vn 0.9772 0.2073 0.0456
vn 0.9956 0.0854 0.0385
vn 0.9889 0.1488 0.0000
s off
f 124/1/1 103/2/2 104/3/1
f 124/1/1 104/3/1 123/4/3
f 123/4/3 104/3/1 105/5/3
f 27/6/4 29/7/5 26/8/5
f 25/9/6 30/10/6 31/11/7
f 77/12/8 64/13/8 76/14/9
f 75/15/10 65/16/11 66/17/10
f 75/15/10 66/17/10 74/18/12
f 74/18/12 66/17/10 67/19/12
f 72/20/13 69/21/14 70/22/13
f 45/23/15 54/24/16 44/25/17
f 44/25/16 54/24/16 55/26/18
f 44/25/17 55/26/19 43/27/19
f 32/28/20 33/29/21 24/30/20
f 52/31/22 51/32/23 73/33/22 100/34/22
f 13/35/24 111/36/25 110/37/24 35/38/24
f 94/39/26 58/40/26 57/41/26 95/42/26
f 26/43/27 25/9/28 125/44/29 126/45/30
f 24/30/31 33/29/32 107/46/33
f 32/47/34 15/48/34 16/49/34
f 32/47/35 16/49/35 17/50/35
f 32/47/36 17/50/36 31/51/36
f 32/47/36 31/51/36 30/10/37
f 32/47/34 30/10/38 29/7/39
f 32/47/34 29/7/40 18/52/34
f 32/47/34 18/52/34 19/53/34
f 32/47/34 19/53/34 20/54/34
f 32/47/34 20/54/34 50/55/34
f 32/47/34 50/55/34 49/56/41
f 32/47/34 49/56/42 48/57/43
f 32/47/34 48/57/44 1/58/34
f 32/47/34 1/58/34 47/59/34
f 32/47/34 47/59/34 2/60/34
f 32/47/34 2/60/34 3/61/34
f 32/47/34 3/61/34 4/62/34
f 32/47/34 4/62/34 5/63/34
f 32/47/34 5/63/34 46/64/34
f 32/47/34 46/64/34 45/23/45
f 32/47/34 45/23/46 44/25/47
f 32/47/34 44/25/48 43/27/49
f 32/47/34 43/27/50 6/65/34
f 32/47/34 6/65/34 7/66/34
f 32/47/34 7/66/34 8/67/34
f 32/47/34 8/67/34 42/68/34
f 32/47/34 42/68/34 9/69/34
f 32/47/34 9/69/34 41/70/34
f 32/47/34 41/70/34 40/71/51
f 32/47/34 40/71/52 39/72/53
f 32/47/34 39/72/54 38/73/55
f 32/47/34 38/73/56 10/74/34
f 32/47/34 10/74/34 11/75/34
f 32/47/34 11/75/34 12/76/34
f 32/47/34 12/76/34 37/77/34
f 32/47/35 37/77/35 36/78/57
f 32/47/36 36/78/58 13/35/36
f 32/47/34 13/35/34 35/38/34
f 32/47/59 35/38/59 14/79/59
f 32/47/60 14/79/60 34/80/60
f 32/47/61 34/80/61 33/29/62
f 105/5/63 16/49/64 15/81/64 106/82/64
f 68/83/65 52/84/66 100/34/65 99/85/65
f 121/86/67 120/87/68 90/88/69
f 121/86/70 90/88/71 119/89/71
f 121/86/72 119/89/71 91/90/71
f 121/86/73 91/90/69 118/91/69
f 121/86/74 118/91/69 117/92/75
f 121/86/76 117/92/77 92/93/69
f 121/86/78 92/93/69 116/94/69
f 121/86/79 116/94/69 115/95/80
f 121/86/81 115/95/82 93/96/69
f 121/86/83 93/96/69 94/39/69
f 121/86/84 94/39/69 95/42/69
f 121/86/85 95/42/69 82/97/69
f 121/86/86 82/97/69 81/98/87
f 121/86/88 81/98/89 80/99/90
f 121/86/91 80/99/92 79/100/93
f 121/86/94 79/100/95 96/101/69
f 121/86/96 96/101/69 78/102/69
f 121/86/97 78/102/69 97/103/69
f 121/86/98 97/103/69 77/104/69
f 121/86/99 77/104/69 76/14/100
f 121/86/101 76/14/102 98/105/69
f 121/86/103 98/105/69 75/106/69
f 121/86/104 75/106/69 74/18/105
f 121/86/106 74/18/107 99/107/69
f 121/86/108 99/107/69 100/34/69
f 121/86/109 100/34/69 73/33/69
f 121/86/110 73/33/69 101/108/69
f 121/86/111 101/108/69 72/109/69
f 121/86/112 72/109/69 83/110/69
f 121/86/113 83/110/69 84/111/69
f 121/86/114 84/111/69 85/112/69
f 121/86/115 85/112/69 86/113/69
f 121/86/116 86/113/69 126/114/69
f 121/86/117 126/114/69 125/44/118
f 121/86/119 125/44/120 87/115/69
f 121/86/121 87/115/122 124/116/122
f 121/86/123 124/116/71 123/4/124
f 121/86/125 123/4/126 88/117/69
f 121/86/127 88/117/128 89/118/128
f 121/86/129 89/118/69 122/119/69
f 70/22/130 71/120/131 83/110/132 72/109/132
f 34/121/133 108/122/134 107/46/135 33/29/136
f 23/123/137 113/124/138 37/77/137 12/76/137
f 105/5/139 106/125/140 88/117/141 123/4/142
f 27/126/143 26/8/144 126/114/143 86/113/143
f 66/17/145 4/62/146 3/127/146 67/19/147
f 31/51/148 17/50/148 104/3/149 103/2/150
f 71/120/151 28/128/151 84/111/151 83/129/151
f 3/61/152 2/130/152 68/131/153 67/19/154
f 53/132/155 46/133/156 5/134/157 65/16/158
f 28/128/159 102/135/159 85/112/159 84/111/159
f 124/116/160 87/115/160 103/2/2
f 29/7/161 30/10/162 25/9/163 26/8/164
f 79/100/165 62/136/166 63/137/167 96/101/167
f 102/135/168 27/126/168 86/113/168 85/112/168
f 25/9/169 31/11/170 103/2/171
f 6/138/172 63/139/173 62/140/172 7/66/172
f 91/90/174 112/141/174 113/124/175 118/142/176
f 121/86/177 108/122/178 109/143/179 120/87/180
f 11/75/181 22/144/182 23/123/181 12/76/181
f 41/145/183 57/146/184 58/147/185 40/71/186
f 51/148/187 69/21/188 101/108/187 73/33/187
f 67/19/189 68/131/190 99/107/191 74/18/192
f 27/6/4 18/52/193 29/7/194
f 58/147/195 59/149/196 39/72/197 40/71/198
f 122/150/199 107/151/200 108/122/177 121/86/201
f 68/83/202 2/60/202 47/152/203 52/84/204
f 51/32/205 1/58/206 48/57/207 69/21/208
f 49/56/209 50/55/210 71/120/211 70/22/212
f 118/142/175 113/124/213 23/123/214 117/92/215
f 116/153/216 21/154/217 114/155/218 115/95/219
f 69/21/220 48/57/221 49/156/222 70/22/223
f 114/155/224 21/157/225 10/74/224 38/73/226
f 119/89/227 111/36/228 112/141/227 91/90/227
f 80/99/229 61/158/230 62/136/231 79/100/232
f 39/72/233 59/149/234 114/155/234 38/73/235
f 20/54/236 19/53/236 102/135/236 28/128/236
f 96/101/237 63/137/237 55/159/237 78/102/237
f 93/160/238 59/149/238 58/40/238 94/39/238
f 47/59/239 1/58/239 51/32/240 52/84/241
f 19/53/242 18/161/242 27/126/242 102/135/242
f 24/162/243 107/151/199 122/119/243 89/163/243
f 72/109/244 101/108/244 69/21/245
f 45/23/246 46/133/247 53/164/248 64/165/248
f 10/166/249 21/157/250 22/144/251 11/75/249
f 53/164/252 65/16/253 98/105/252 76/14/254
f 112/167/255 111/36/256 13/35/257 36/78/258
f 95/42/259 57/41/259 56/168/259 82/97/259
f 109/143/260 108/122/261 34/80/262 14/79/262
f 97/103/263 54/169/263 64/13/264 77/12/265
f 9/69/266 56/170/267 57/146/268 41/70/266
f 82/171/269 56/168/270 60/172/271 81/98/272
f 104/3/273 17/50/274 16/49/274 105/5/275
f 92/93/276 22/173/276 21/154/276 116/94/276
f 60/174/277 56/170/278 9/69/277 42/68/277
f 106/82/279 24/162/279 89/118/279 88/175/279
f 37/176/280 113/124/281 112/141/282 36/78/283
f 115/95/284 114/155/285 59/149/286 93/96/286
f 90/88/287 110/37/287 111/36/288 119/177/289
f 110/178/290 109/143/291 14/79/292 35/38/292
f 5/63/293 4/62/293 66/17/294 65/16/295
f 25/179/296 103/2/297 87/115/296 125/44/298
f 62/136/299 61/158/300 8/67/301 7/66/301
f 8/67/302 61/158/303 60/174/302 42/68/302
f 120/87/304 109/143/305 110/37/306 90/88/306
f 75/106/307 98/105/307 65/16/11
f 71/120/308 50/55/308 20/180/308 28/128/308
f 81/98/271 60/172/309 61/158/310 80/99/311
f 78/102/312 55/159/312 54/169/312 97/103/312
f 55/26/313 63/139/314 6/65/315 43/27/316
f 45/23/317 64/165/318 54/24/319
f 117/92/320 23/123/321 22/173/321 92/93/321
f 15/48/322 32/47/322 24/162/322 106/82/322
f 76/14/323 64/13/324 53/164/325
