# Blender v3.3.21 OBJ File: 'nex10.blend'
# www.blender.org
v -0.062350 -0.074306 0.170000
v -0.084004 -0.048500 0.170000
v -0.091016 -0.033541 0.163500
v -0.074127 -0.062563 0.163500
v -0.048356 -0.084088 0.163500
v 0.000000 -0.097000 0.163500
v 0.031608 -0.091706 0.163500
v 0.046323 -0.085224 0.163500
v 0.094147 -0.023351 0.163500
v 0.094595 -0.021467 0.163500
v 0.095005 -0.019573 0.163500
v 0.096700 0.007627 0.163500
v 0.096663 0.008077 0.163500
v 0.087881 0.041060 0.163500
v 0.079113 0.056126 0.163500
v 0.039011 0.088810 0.163500
v -0.045299 0.085773 0.163500
v -0.059920 0.076280 0.163500
v -0.082946 0.050289 0.163500
v -0.095343 0.017853 0.163500
v -0.074306 -0.062350 0.170000
v -0.048500 -0.084004 0.170000
v -0.035184 -0.090394 0.188800
v -0.086899 -0.043099 0.188800
v -0.050933 0.082552 0.188800
v -0.034897 0.090505 0.188800
v 0.012500 0.098000 0.175000
v 0.015000 0.098000 0.175670
v 0.016830 0.098000 0.177500
v -0.017330 0.098000 0.178706
v -0.016036 0.098000 0.176464
v -0.012500 0.098000 0.175000
v 0.017500 0.098000 0.180000
v 0.017330 0.098000 0.178706
v 0.016036 0.098000 0.176464
v 0.013794 0.098000 0.175170
v -0.013794 0.098000 0.175170
v -0.015000 0.098000 0.175670
v -0.016830 0.098000 0.177500
v -0.017500 0.098000 0.180000
v -0.065235 0.071787 0.188800
v -0.077315 0.058578 0.188800
v -0.086762 0.043374 0.188800
v -0.077500 -0.058333 0.188800
v -0.065462 -0.071580 0.188800
v -0.051195 -0.082390 0.188800
v -0.044353 0.086260 0.188846
v -0.059426 0.076658 0.188847
v -0.081973 -0.051848 0.188850
v -0.071082 -0.065993 0.188850
v -0.057784 -0.077902 0.188850
v -0.042530 -0.087172 0.188851
v -0.072832 -0.064066 0.189000
v -0.083144 -0.049962 0.189000
v -0.083144 0.049962 0.189000
v -0.072832 0.064066 0.189000
v -0.060158 0.076092 0.189000
v -0.034897 0.090505 0.189000
v -0.089027 -0.038513 0.203156
v -0.088766 -0.039111 0.203107
v -0.084826 -0.047047 0.202284
v -0.080501 -0.054119 0.201373
v -0.078401 -0.057124 0.200967
v -0.076208 -0.060015 0.200579
v -0.068953 -0.068220 0.199583
v -0.071664 -0.065356 0.200106
v -0.068890 -0.068251 0.199900
v -0.073195 -0.063644 0.200246
v -0.080380 -0.054134 0.201961
v -0.084786 -0.047066 0.202605
v -0.067640 -0.069478 0.199828
v -0.057562 -0.078032 0.199368
v -0.057582 -0.078059 0.199000
v -0.048607 -0.083942 0.199000
v -0.032344 -0.091413 0.199368
v -0.048590 -0.083913 0.199368
v -0.032355 -0.091445 0.199000
v -0.067517 -0.069644 0.199446
v -0.090582 -0.034697 0.203412
v -0.091643 0.031790 0.203534
v -0.086658 0.043582 0.202679
v -0.084414 0.047781 0.202195
v -0.070105 0.067033 0.199709
v -0.068813 0.068360 0.199569
v -0.057583 0.078059 0.199000
v -0.032473 0.091403 0.199000
v -0.045533 0.085649 0.189000
v -0.050933 0.082552 0.189000
v -0.065235 0.071787 0.189000
v -0.077315 0.058578 0.189000
v -0.086762 0.043374 0.189000
v -0.086899 -0.043099 0.189000
v -0.077500 -0.058333 0.189000
v -0.065462 -0.071580 0.189000
v -0.060158 -0.076092 0.189000
v -0.051195 -0.082390 0.189000
v -0.045533 -0.085649 0.189000
v -0.035184 -0.090394 0.189000
v -0.042241 -0.019233 0.377770
v -0.017928 -0.053000 0.409531
v 0.028859 -0.053000 0.429812
v 0.046058 -0.053000 0.430297
v 0.106696 -0.053000 0.401171
v 0.124654 -0.053000 0.372000
v 0.129180 -0.053000 0.355401
v 0.130483 -0.053000 0.338246
v 0.130055 0.053000 0.331033
v 0.126937 0.053000 0.365145
v 0.120607 0.053000 0.381143
v 0.111364 0.053000 0.395655
v 0.085567 0.053000 0.418191
v 0.069946 0.053000 0.425402
v 0.019020 0.053000 0.428035
v 0.002739 0.053000 0.422473
v -0.012196 0.053000 0.413931
v -0.025244 0.053000 0.402717
v -0.035935 0.053000 0.389236
v -0.043880 0.053000 0.373976
v 0.036060 0.053000 0.430414
v 0.053242 0.053000 0.429526
v 0.099542 0.053000 0.408155
v 0.130124 0.053000 0.348238
v -0.024983 0.053481 0.402465
v -0.025101 0.053399 0.402579
v -0.025190 0.053263 0.402665
v -0.025238 0.053092 0.402711
v 0.126540 0.053399 0.314208
v 0.126658 0.053263 0.314173
v 0.126722 0.053092 0.314154
v 0.129693 0.053481 0.331068
v 0.129857 0.053399 0.331052
v 0.129980 0.053263 0.331040
v 0.130046 0.053092 0.331033
v 0.129763 0.053481 0.348204
v 0.129926 0.053399 0.348219
v 0.130050 0.053263 0.348231
v 0.130116 0.053092 0.348237
v 0.126588 0.053481 0.365044
v 0.126746 0.053399 0.365090
v 0.126865 0.053263 0.365124
v 0.126929 0.053092 0.365142
v 0.120283 0.053481 0.380978
v 0.120430 0.053399 0.381053
v 0.120540 0.053263 0.381109
v 0.120599 0.053092 0.381139
v 0.111078 0.053481 0.395431
v 0.111207 0.053399 0.395533
v 0.111305 0.053263 0.395609
v 0.111357 0.053092 0.395649
v 0.099303 0.053481 0.407881
v 0.099411 0.053399 0.408005
v 0.099492 0.053263 0.408098
v 0.099536 0.053092 0.408148
v 0.085384 0.053481 0.417878
v 0.085467 0.053399 0.418020
v 0.085529 0.053263 0.418127
v 0.085563 0.053092 0.418184
v 0.069826 0.053481 0.425059
v 0.069880 0.053399 0.425214
v 0.069921 0.053263 0.425331
v 0.069943 0.053092 0.425394
v 0.053189 0.053481 0.429167
v 0.053213 0.053399 0.429329
v 0.053231 0.053263 0.429452
v 0.053241 0.053092 0.429518
v 0.036076 0.053481 0.430051
v 0.036069 0.053399 0.430216
v 0.036063 0.053263 0.430339
v 0.036060 0.053092 0.430406
v 0.019105 0.053481 0.427681
v 0.019066 0.053399 0.427841
v 0.019038 0.053263 0.427962
v 0.019022 0.053092 0.428026
v 0.002888 0.053481 0.422142
v 0.002821 0.053399 0.422292
v 0.002770 0.053263 0.422405
v 0.002742 0.053092 0.422466
v -0.011987 0.053481 0.413635
v -0.012081 0.053399 0.413769
v -0.012153 0.053263 0.413870
v -0.012191 0.053092 0.413924
v -0.035630 0.053481 0.389038
v -0.035768 0.053399 0.389128
v -0.035872 0.053263 0.389195
v -0.035927 0.053092 0.389231
v -0.043544 0.053481 0.373839
v -0.043696 0.053399 0.373901
v -0.043811 0.053263 0.373947
v -0.043872 0.053092 0.373972
v -0.048599 0.053399 0.357449
v -0.048721 0.053263 0.357473
v -0.048786 0.053092 0.357486
v -0.041981 0.015629 0.378333
v -0.042116 0.018239 0.378042
v -0.041981 -0.015629 0.378333
v 0.117068 -0.053000 0.387443
v 0.093914 -0.053000 0.412688
v 0.079184 -0.053000 0.421577
v 0.063037 -0.053000 0.427519
v 0.012064 -0.053000 0.426080
v -0.003722 -0.053000 0.419238
v -0.030040 -0.053000 0.397312
v -0.039621 -0.053000 0.383021
v 0.130120 -0.053481 0.338253
v 0.130284 -0.053399 0.338249
v 0.130408 -0.053263 0.338247
v 0.130474 -0.053092 0.338246
v -0.046134 -0.053399 0.367116
v -0.046252 -0.053263 0.367153
v -0.046315 -0.053092 0.367173
v -0.039301 -0.053481 0.382848
v -0.039446 -0.053399 0.382927
v -0.039555 -0.053263 0.382986
v -0.039613 -0.053092 0.383017
v -0.029759 -0.053481 0.397082
v -0.029886 -0.053399 0.397186
v -0.029982 -0.053263 0.397265
v -0.017695 -0.053481 0.409252
v -0.017801 -0.053399 0.409379
v -0.017880 -0.053263 0.409474
v -0.017922 -0.053092 0.409525
v -0.003547 -0.053481 0.418920
v -0.003626 -0.053399 0.419064
v -0.003686 -0.053263 0.419172
v -0.003718 -0.053092 0.419230
v 0.012176 -0.053481 0.425735
v 0.012125 -0.053399 0.425891
v 0.012087 -0.053263 0.426009
v 0.012066 -0.053092 0.426072
v 0.028904 -0.053481 0.429451
v 0.028884 -0.053399 0.429615
v 0.028869 -0.053263 0.429737
v 0.028861 -0.053092 0.429803
v 0.046033 -0.053481 0.429935
v 0.046044 -0.053399 0.430099
v 0.046053 -0.053263 0.430222
v 0.046057 -0.053092 0.430289
v 0.062945 -0.053481 0.427168
v 0.062987 -0.053399 0.427327
v 0.063018 -0.053263 0.427446
v 0.063035 -0.053092 0.427511
v 0.079027 -0.053481 0.421250
v 0.079098 -0.053399 0.421398
v 0.079151 -0.053263 0.421510
v 0.079180 -0.053092 0.421570
v 0.093698 -0.053481 0.412396
v 0.093796 -0.053399 0.412528
v 0.093870 -0.053263 0.412627
v 0.093909 -0.053092 0.412681
v 0.106429 -0.053481 0.400925
v 0.106550 -0.053399 0.401036
v 0.106641 -0.053263 0.401120
v 0.106690 -0.053092 0.401165
v 0.116758 -0.053481 0.387253
v 0.116898 -0.053399 0.387339
v 0.117004 -0.053263 0.387404
v 0.117060 -0.053092 0.387438
v 0.124314 -0.053481 0.371872
v 0.124468 -0.053399 0.371930
v 0.124584 -0.053263 0.371974
v 0.124646 -0.053092 0.371997
v 0.128822 -0.053481 0.355340
v 0.128984 -0.053399 0.355368
v 0.129106 -0.053263 0.355389
v 0.129171 -0.053092 0.355400
v 0.128322 -0.053399 0.321195
v 0.128443 -0.053263 0.321169
v 0.128508 -0.053092 0.321155
v -0.070680 -0.047538 0.282535
v -0.064112 -0.050063 0.302590
v -0.066324 -0.049107 0.296419
v -0.066124 -0.049446 0.296319
v -0.069998 -0.047950 0.284240
v -0.075718 -0.045992 0.265396
v -0.076473 -0.045588 0.263070
v -0.082061 -0.039941 0.247238
v -0.085986 -0.035873 0.235003
v -0.096988 0.000000 0.200998
v -0.084309 0.037738 0.240234
v -0.086801 0.034881 0.232465
v -0.081317 0.040603 0.249563
v -0.081237 0.040728 0.249598
v -0.076473 0.045588 0.263070
v -0.075718 0.045992 0.265396
v -0.068947 0.048400 0.287507
v -0.069095 0.048185 0.287583
v -0.057562 0.078032 0.199368
v -0.071498 0.065543 0.199878
v -0.076476 0.059674 0.200624
v -0.082226 0.051455 0.201727
v -0.088764 0.039115 0.203107
v -0.068749 0.068388 0.199907
v -0.070069 0.067047 0.199996
v -0.071479 0.065554 0.200106
v -0.082146 0.051470 0.202217
v -0.084365 0.047806 0.202544
v -0.086648 0.043583 0.202864
v -0.048715 0.083880 0.199000
v -0.032461 0.091371 0.199368
v -0.048698 0.083851 0.199368
v -0.013794 0.098000 0.199830
v -0.017330 0.098000 0.196294
v -0.017500 0.098000 0.195000
v 0.016036 0.098000 0.198536
v 0.016830 0.098000 0.197500
v 0.017500 0.098000 0.195000
v -0.016830 0.098000 0.197500
v -0.016036 0.098000 0.198536
v -0.015000 0.098000 0.199330
v -0.012500 0.098000 0.200000
v 0.012500 0.098000 0.200000
v 0.017330 0.098000 0.196294
v 0.015000 0.098000 0.199330
v 0.013794 0.098000 0.199830
v -0.045007 0.018031 0.371563
v -0.044466 0.015000 0.373228
v -0.046484 0.016750 0.367016
v -0.044783 0.017475 0.372253
v -0.044466 -0.015000 0.373228
v -0.045007 -0.018031 0.371563
v -0.046484 -0.016750 0.367016
v -0.094218 0.020000 0.220108
v -0.094181 0.020906 0.220221
v -0.093416 0.023381 0.222575
v -0.093677 0.023031 0.221772
v -0.093901 0.022475 0.221083
v -0.094073 0.021750 0.220554
v -0.092601 0.020000 0.225084
v -0.093416 -0.023381 0.222575
v -0.093677 -0.023031 0.221772
v -0.094073 -0.021750 0.220554
v -0.094181 -0.020906 0.220221
v -0.094218 -0.020000 0.220108
v -0.093901 -0.022475 0.221083
v -0.092601 -0.020000 0.225084
v -0.060680 0.039750 0.323327
v -0.061897 0.041381 0.319583
v -0.061337 0.041381 0.321306
v -0.060680 -0.039750 0.323327
v -0.061897 -0.041381 0.319583
v -0.077347 0.041381 0.272030
v -0.077067 0.041500 0.272891
v -0.077347 -0.041381 0.272030
v -0.077067 -0.041500 0.272891
v -0.016830 -0.098000 0.197500
v -0.016036 -0.098000 0.198536
v -0.015000 -0.098000 0.199330
v -0.012500 -0.098000 0.200000
v 0.012500 -0.098000 0.200000
v 0.013794 -0.098000 0.199830
v 0.016036 -0.098000 0.198536
v 0.016830 -0.098000 0.197500
v -0.013794 -0.098000 0.199830
v -0.017330 -0.098000 0.196294
v -0.017500 -0.098000 0.195000
v 0.017500 -0.098000 0.195000
v 0.017330 -0.098000 0.196294
v 0.015000 -0.098000 0.199330
v 0.015000 -0.098000 0.175670
v 0.012500 -0.098000 0.175000
v -0.015000 -0.098000 0.175670
v -0.016036 -0.098000 0.176464
v -0.016830 -0.098000 0.177500
v -0.017330 -0.098000 0.178706
v -0.017500 -0.098000 0.180000
v -0.013794 -0.098000 0.175170
v -0.012500 -0.098000 0.175000
v 0.013794 -0.098000 0.175170
v 0.016036 -0.098000 0.176464
v 0.016830 -0.098000 0.177500
v 0.017330 -0.098000 0.178706
v 0.017500 -0.098000 0.180000
v -0.096999 -0.000500 0.163500
v 0.096663 -0.008077 0.163500
v 0.095710 -0.015764 0.163500
v 0.088996 -0.038584 0.163500
v 0.081399 -0.052755 0.163500
v 0.071566 -0.065478 0.163500
v 0.059766 -0.076401 0.163500
v 0.016024 -0.095667 0.163500
v -0.016789 -0.095536 0.163500
v -0.033072 -0.091188 0.163500
v -0.062180 -0.074449 0.163500
v -0.083837 -0.048788 0.163500
v -0.095448 -0.017281 0.163500
v -0.090608 0.034630 0.163500
v -0.072606 0.064323 0.163500
v -0.029215 0.092496 0.163500
v -0.012188 0.096231 0.163500
v 0.005233 0.096859 0.163500
v 0.022485 0.094358 0.163500
v 0.054277 0.080393 0.163500
v 0.067789 0.069380 0.163500
v 0.093811 0.024667 0.163500
v 0.096999 -0.000477 0.163500
v 0.096711 -0.007478 0.163500
v 0.106659 0.008318 0.166316
v 0.106611 0.008568 0.166341
v 0.106537 0.008481 0.166044
v 0.106353 0.008769 0.165982
v 0.106398 0.008317 0.165809
v 0.106195 0.008582 0.165714
v 0.105986 0.008335 0.165553
v 0.105817 0.008253 0.165510
v 0.106123 0.008277 0.165605
v 0.106280 0.008289 0.165702
v 0.106527 0.008308 0.165974
v 0.106609 0.008314 0.166139
v 0.106659 -0.008318 0.166316
v 0.105817 -0.008253 0.165510
v 0.106123 -0.008277 0.165605
v 0.106280 -0.008289 0.165702
v 0.106527 -0.008308 0.165974
v 0.106609 -0.008314 0.166139
v 0.106611 -0.008568 0.166341
v 0.106353 -0.008769 0.165982
v 0.106537 -0.008481 0.166044
v 0.106195 -0.008582 0.165714
v 0.106398 -0.008317 0.165809
v 0.105986 -0.008335 0.165553
v -0.096999 0.000500 0.163500
v -0.099000 -0.012500 0.185000
v -0.099000 -0.015000 0.184330
v -0.099000 -0.016830 0.177500
v -0.099000 -0.013794 0.175170
v -0.099000 -0.012500 0.175000
v -0.099000 0.012500 0.175000
v -0.099000 0.015000 0.175670
v -0.099000 0.016830 0.177500
v -0.099000 0.017500 0.180000
v -0.099000 0.017330 0.181294
v -0.099000 0.016830 0.182500
v -0.099000 0.016036 0.183536
v -0.099000 0.015000 0.184330
v -0.099000 0.013794 0.184830
v -0.099000 0.012500 0.185000
v -0.099000 0.017330 0.178706
v -0.099000 0.016036 0.176464
v -0.099000 0.013794 0.175170
v -0.099000 -0.015000 0.175670
v -0.099000 -0.016036 0.176464
v -0.099000 -0.017330 0.178706
v -0.099000 -0.017500 0.180000
v -0.099000 -0.017330 0.181294
v -0.099000 -0.016830 0.182500
v -0.099000 -0.016036 0.183536
v -0.099000 -0.013794 0.184830
vt 0.000000 0.000000
vt 0.000000 0.000000
vt 0.000000 0.000000
vt 0.000000 0.000000
vt 0.352941 0.423529
vt 0.117647 0.423529
vt 0.168627 0.117647
vt 0.000000 0.000000
vt 0.000000 0.000000
vt 0.505882 0.654902
vt 0.490196 0.282353
vt 0.882353 0.878431
vt 0.000000 0.090196
vt 1.000000 0.847059
vt 0.882353 0.847059
vt 0.917647 0.227451
vt 0.000000 0.000000
vt 0.882353 0.031373
vt 0.647059 0.031373
vt 0.000000 0.000000
vt 0.000000 0.000000
vt 0.000000 0.000000
vt 0.000000 0.000000
vt 0.000000 0.000000
vt 0.000000 0.000000
vt 0.160784 0.839216
vt 0.317647 0.427451
vt 0.400000 0.533333
vt 0.000000 0.000000
vt 0.000000 0.000000
vt 0.823529 0.392157
vt 0.588235 0.392157
vt 0.117647 0.274510
vt 0.000000 0.000000
vt 0.000000 0.000000
vt 0.000000 0.000000
vt 0.090196 1.000000
vt 0.000000 0.000000
vt 0.000000 0.000000
vt 0.090196 0.000000
vt 0.000000 0.560784
vt 0.000000 0.000000
vt 0.411765 0.031373
vt 0.000000 0.596078
vt 0.000000 0.000000
vt 0.000000 0.000000
vt 0.000000 0.000000
vt 0.329412 0.031373
vt 0.000000 0.000000
vt 0.000000 0.000000
vt 0.000000 0.000000
vt 0.000000 0.000000
vt 0.000000 0.000000
vt 0.000000 0.000000
vt 0.000000 0.000000
vt 0.000000 0.000000
vt 0.000000 0.000000
vt 0.000000 0.000000
vt 0.000000 0.000000
vt 0.000000 0.000000
vt 0.000000 0.000000
vt 0.000000 0.921569
vt 0.000000 0.000000
vt 0.615686 0.988235
vt 0.000000 0.000000
vt 0.850980 0.858824
vt 0.000000 0.000000
vt 0.000000 0.172549
vt 0.000000 0.000000
vt 0.000000 0.000000
vt 0.000000 0.000000
vt 0.000000 0.000000
vt 0.000000 0.000000
vt 0.000000 0.000000
vt 0.992157 0.419608
vt 0.000000 0.000000
vt 0.000000 0.384314
vt 0.000000 0.000000
vt 0.000000 0.000000
vt 0.701961 0.784314
vt 0.611765 0.823529
vt 0.388235 0.588235
vt 1.000000 0.501961
vt 0.000000 0.000000
vt 0.176471 1.000000
vt 0.980392 0.749020
vt 0.176471 0.756863
vt 0.000000 0.000000
vt 0.000000 0.000000
vt 0.176471 0.788235
vt 0.160784 0.870588
vt 0.000000 0.882353
vt 0.000000 0.000000
vt 0.823529 0.364706
vt 0.000000 0.000000
vt 0.000000 0.000000
vt 0.933333 0.749020
vt 0.000000 0.000000
vt 0.000000 0.000000
vt 0.000000 0.000000
vt 0.980392 0.250980
vt 0.823529 0.301961
vt 0.823529 0.333333
vt 1.000000 0.333333
vt 0.000000 0.000000
vt 0.000000 0.000000
vt 0.000000 0.000000
vt 0.000000 0.000000
vt 1.000000 0.082353
vt 0.000000 0.000000
vt 0.000000 0.501961
vt 0.000000 0.000000
vt 1.000000 0.835294
vt 0.000000 0.000000
vt 0.141176 1.000000
vt 0.000000 0.000000
vt 0.000000 0.000000
vt 0.000000 0.000000
vt 0.000000 0.000000
vt 1.000000 0.501961
vt 0.000000 0.000000
vt 0.000000 0.000000
vt 0.000000 0.000000
vt 0.000000 0.000000
vt 0.000000 0.000000
vt 0.000000 0.000000
vt 0.000000 0.000000
vt 0.070588 0.933333
vt 0.000000 0.000000
vt 0.000000 0.000000
vt 0.000000 0.000000
vt 0.000000 0.000000
vt 0.000000 0.000000
vt 0.000000 0.039216
vt 0.000000 0.000000
vt 0.070588 0.066667
vt 0.000000 0.000000
vt 0.000000 0.000000
vt 0.000000 0.000000
vt 0.000000 0.000000
vt 0.000000 0.168627
vt 0.000000 0.000000
vt 0.313726 0.196078
vt 0.000000 0.000000
vt 0.000000 0.000000
vt 1.000000 0.192157
vt 1.000000 0.172549
vt 0.000000 0.000000
vt 0.882353 0.819608
vt 0.000000 0.000000
vt 0.525490 1.000000
vt 0.000000 0.000000
vt 0.000000 0.000000
vt 1.000000 1.000000
vt 0.882353 1.000000
vt 0.435294 0.996078
vt 0.117647 0.121569
vt 0.000000 0.000000
vt 0.000000 0.152941
vt 0.882353 0.756863
vt 0.000000 0.121569
vt 0.000000 0.000000
vt 0.752941 0.211765
vt 0.000000 0.000000
vt 0.823529 0.239216
vt 0.752941 0.239216
vt 0.003922 0.372549
vt 0.882353 0.533333
vt 0.000000 0.000000
vt 0.000000 0.000000
vt 0.000000 0.000000
vt 0.176471 0.941177
vt 0.176471 0.909804
vt 0.000000 0.000000
vt 1.000000 0.968628
vt 0.000000 0.000000
vt 0.000000 0.000000
vt 0.349020 0.976471
vt 0.000000 0.000000
vt 0.000000 0.000000
vt 0.000000 0.501961
vt 0.000000 0.415686
vt 0.000000 0.000000
vt 0.831373 0.588235
vt 0.000000 0.000000
vt 0.000000 0.000000
vt 0.000000 0.243137
vt 0.000000 0.000000
vt 0.000000 0.000000
vt 0.000000 0.000000
vt 0.000000 0.000000
vt 0.000000 0.000000
vt 0.000000 0.000000
vt 0.000000 0.000000
vt 0.000000 0.000000
vt 0.000000 0.000000
vt 0.176471 0.698039
vt 0.176471 0.666667
vt 0.000000 0.000000
vt 0.000000 0.000000
vt 0.000000 0.000000
vt 0.000000 0.000000
vt 0.000000 0.000000
vt 0.000000 0.000000
vt 0.000000 0.000000
vt 0.000000 0.000000
vt 0.160784 0.898039
vt 0.000000 0.000000
vt 0.000000 0.000000
vt 0.882353 0.466667
vt 0.000000 1.000000
vt 0.000000 0.000000
vt 0.000000 0.913726
vt 0.000000 0.000000
vt 0.000000 0.000000
vt 0.000000 0.000000
vt 0.000000 0.000000
vt 0.000000 0.000000
vt 1.000000 0.843137
vt 1.000000 0.909804
vt 1.000000 1.000000
vt 0.000000 0.000000
vt 1.000000 0.501961
vt 0.000000 0.000000
vt 0.000000 0.000000
vt 0.176471 0.725490
vt 1.000000 0.133333
vt 0.000000 0.000000
vt 0.176471 0.819608
vt 0.000000 0.000000
vt 0.000000 0.000000
vt 0.000000 0.000000
vt 0.000000 0.000000
vt 0.000000 0.000000
vt 0.000000 0.000000
vt 0.000000 0.000000
vt 0.000000 0.000000
vt 0.000000 0.000000
vt 0.000000 0.000000
vt 0.274510 0.878431
vt 0.000000 0.000000
vt 0.000000 0.000000
vt 0.000000 0.000000
vt 0.882353 0.172549
vt 0.000000 0.000000
vt 1.000000 0.250980
vt 0.176471 0.847059
vt 1.000000 0.356863
vt 0.000000 0.000000
vt 0.882353 0.635294
vt 1.000000 0.172549
vt 0.000000 0.000000
vt 0.000000 0.000000
vt 0.243137 0.243137
vt 0.000000 0.000000
vt 0.243137 0.329412
vt 0.000000 0.000000
vt 0.282353 0.380392
vt 0.000000 0.000000
vt 0.000000 0.000000
vt 0.000000 0.000000
vt 0.498039 0.647059
vt 0.000000 0.000000
vt 0.411765 0.545098
vt 0.000000 0.000000
vt 0.000000 0.000000
vt 0.000000 0.000000
vt 0.000000 0.000000
vt 0.000000 0.000000
vt 0.000000 0.000000
vt 0.752941 0.337255
vt 0.000000 0.000000
vt 0.588235 0.909804
vt 0.823529 0.941177
vt 0.117647 0.000000
vt 0.117647 0.968628
vt 0.000000 0.000000
vt 0.352941 0.180392
vt 0.000000 0.000000
vt 0.117647 0.211765
vt 0.352941 0.211765
vt 0.000000 0.000000
vt 0.000000 0.000000
vt 0.498039 0.756863
vt 0.000000 0.000000
vt 0.000000 0.000000
vt 0.000000 0.000000
vt 0.498039 0.427451
vt 0.000000 0.000000
vt 0.000000 0.000000
vt 0.627451 0.003922
vt 0.854902 0.043137
vt 0.000000 0.000000
vt 0.000000 0.000000
vt 0.000000 0.000000
vt 0.000000 0.000000
vt 0.000000 0.000000
vt 0.000000 0.000000
vt 0.000000 0.000000
vt 0.000000 0.000000
vt 0.000000 0.000000
vt 1.000000 0.917647
vt 0.000000 0.000000
vt 0.145098 0.043137
vt 0.000000 0.000000
vt 0.000000 0.000000
vt 0.752941 0.756863
vt 0.647059 0.545098
vt 1.000000 0.956863
vt 0.000000 0.000000
vt 0.239216 1.000000
vt 0.000000 0.000000
vt 0.498039 0.521569
vt 0.164706 0.968628
vt 0.000000 0.000000
vt 0.494118 0.090196
vt 0.662745 0.090196
vt 0.000000 0.000000
vt 0.352941 0.909804
vt 1.000000 0.576471
vt 0.000000 1.000000
vt 0.000000 0.000000
vt 0.000000 0.000000
vt 0.882353 0.545098
vt 0.000000 0.917647
vt 0.000000 0.000000
vt 0.000000 0.000000
vt 0.000000 0.000000
vt 0.000000 0.835294
vt 0.000000 0.000000
vt 0.411765 1.000000
vt 0.000000 0.000000
vt 0.000000 0.000000
vt 0.000000 0.000000
vt 1.000000 0.929412
vt 0.490196 0.819608
vt 0.000000 0.000000
vt 0.000000 0.000000
vt 0.000000 0.000000
vt 0.000000 0.000000
vt 0.000000 0.000000
vt 0.117647 0.941177
vt 0.000000 0.000000
vt 0.000000 0.000000
vt 0.000000 0.000000
vt 0.000000 0.000000
vt 0.000000 0.941177
vt 0.282353 0.129412
vt 0.000000 0.000000
vt 0.000000 0.000000
vt 0.000000 0.000000
vt 0.000000 0.000000
vt 0.000000 0.666667
vt 1.000000 0.584314
vt 0.000000 0.000000
vt 0.176471 0.968628
vt 0.411765 0.968628
vt 0.411765 0.909804
vt 0.176471 0.878431
vt 0.411765 0.878431
vt 0.411765 0.847059
vt 0.411765 0.819608
vt 0.411765 0.788235
vt 0.411765 0.756863
vt 0.882353 0.788235
vt 0.647059 0.788235
vt 0.647059 0.819608
vt 0.647059 0.847059
vt 0.647059 0.878431
vt 0.882353 0.909804
vt 0.647059 0.909804
vt 0.882353 0.968628
vt 0.647059 0.968628
vt 0.882353 1.000000
vt 0.647059 1.000000
vt 1.000000 0.788235
vt 0.823529 0.152941
vt 0.588235 0.152941
vt 0.823529 0.180392
vt 0.588235 0.180392
vt 0.823529 0.243137
vt 0.588235 0.243137
vt 0.823529 0.274510
vt 0.588235 0.274510
vt 0.588235 0.301961
vt 0.588235 0.333333
vt 0.588235 0.211765
vt 0.352941 0.274510
vt 0.352941 0.301961
vt 0.352941 0.333333
vt 0.588235 0.364706
vt 0.352941 0.364706
vt 0.352941 0.392157
vt 0.117647 0.392157
vt 0.117647 0.364706
vt 0.117647 0.333333
vt 0.117647 0.243137
vt 0.352941 0.243137
vt 0.000000 0.364706
vt 1.000000 0.047059
vt 0.000000 0.031373
vt 1.000000 0.019608
vt 0.411765 0.941177
vt 0.647059 0.941177
vt 0.882353 0.725490
vt 0.647059 0.725490
vt 0.647059 0.756863
vt 0.411765 0.698039
vt 0.647059 0.698039
vt 0.411765 0.666667
vt 0.647059 0.666667
vt 0.411765 0.635294
vt 0.647059 0.635294
vt 0.411765 0.607843
vt 0.647059 0.607843
vt 0.411765 0.576471
vt 0.647059 0.576471
vt 0.176471 0.635294
vt 0.176471 0.607843
vt 0.176471 0.576471
vt 0.882353 0.576471
vt 1.000000 0.607843
vt 1.000000 0.666667
vt 0.882353 0.666667
vt 0.823529 0.968628
vt 0.588235 0.968628
vt 0.823529 0.000000
vt 0.588235 0.000000
vt 0.823529 0.031373
vt 0.588235 0.031373
vt 0.823529 0.058824
vt 0.588235 0.058824
vt 0.823529 0.090196
vt 0.588235 0.090196
vt 0.823529 0.121569
vt 0.588235 0.121569
vt 0.588235 0.941177
vt 0.352941 0.941177
vt 0.352941 0.968628
vt 0.352941 0.031373
vt 0.352941 0.058824
vt 0.352941 0.090196
vt 0.352941 0.121569
vt 0.117647 0.090196
vt 0.117647 0.058824
vt 0.117647 0.031373
vt 0.352941 0.000000
vt 0.117647 0.909804
vt 0.388235 0.352941
vt 0.168627 0.352941
vt 0.611765 0.588235
vt 0.780392 0.690196
vt 0.831373 0.352941
vt 0.909804 0.458824
vt 0.956863 0.321569
vt 0.831373 0.117647
vt 0.611765 0.352941
vt 0.313726 0.854902
vt 1.000000 0.870588
vt 0.498039 0.466667
vt 0.650980 0.466667
vt 1.000000 0.145098
vt 0.141176 0.192157
vt 0.243137 0.192157
vt 0.000000 0.894118
vt 0.498039 0.533333
vt 0.498039 0.647059
vt 1.000000 0.823529
vt 0.882353 0.823529
vt 0.752941 0.188235
vt 0.000000 0.000000
vt 0.000000 0.980392
vt 0.117647 0.152941
vt 0.117647 0.180392
vt 0.882353 0.941177
vt 0.117647 0.301961
vt 0.011765 0.164706
vt 0.352941 0.152941
vt 1.000000 0.909804
vt 1.000000 0.078431
vt 0.807843 0.105882
vt 0.870588 0.160784
vt 0.000000 0.380392
vt 0.956863 0.301961
vt 0.882353 0.698039
vt 0.000000 0.145098
vt 0.588235 0.423529
vt 1.000000 0.941177
vt 0.647059 1.000000
vt 0.000000 0.000000
vt 0.823529 0.211765
vt 0.996078 0.372549
vt 0.996078 0.627451
vt 0.780392 0.913726
vt 0.996078 0.627451
vt 1.000000 0.501961
vt 0.000000 0.000000
vt 0.168627 0.588235
vt 0.411765 1.000000
vt 0.294118 1.000000
vt 1.000000 0.125490
vt 0.266667 0.882353
vt 1.000000 0.294118
vt 1.000000 0.262745
vt 0.764706 1.000000
vt 0.411765 0.725490
vt 0.956863 0.145098
vt 1.000000 0.917647
vt 1.000000 0.874510
vt 0.956863 0.854902
vt 0.043137 0.145098
vt 0.000000 0.000000
vt 1.000000 0.141176
vt 0.000000 0.000000
vt 1.000000 0.819608
vt 0.000000 0.000000
vt 0.105882 0.984314
vt 0.000000 0.376471
vt 1.000000 0.458824
vt 1.000000 0.698039
vt 1.000000 0.325490
vt 0.411765 0.007843
vt 0.105882 0.984314
vt 0.243137 0.270588
vt 0.498039 0.584314
vt 0.094118 0.921569
vt 0.062745 0.929412
vt 0.000000 0.000000
vt 0.243137 0.168627
vt 0.000000 0.000000
vt 0.000000 0.000000
vt 1.000000 0.000000
vt 0.000000 0.000000
vt 0.000000 0.000000
vt 0.000000 0.247059
vt 0.874510 0.000000
vt 0.000000 0.337255
vt 0.000000 0.082353
vt 0.019608 0.250980
vt 0.623529 1.000000
vt 0.498039 0.968628
vt 0.372549 0.003922
vt 0.501961 0.000000
vt 0.749020 0.019608
vt 1.000000 0.835294
vt 1.000000 0.749020
vt 1.000000 0.666667
vt 0.003922 0.788235
vt 0.490196 0.043137
vt 0.066667 0.070588
vt 0.490196 0.670588
vt 0.984314 0.627451
vt 0.000000 0.501961
vt 0.000000 0.584314
vt 1.000000 1.000000
vt 0.000000 0.000000
vt 0.854902 0.854902
vt 1.000000 0.917647
vt 0.000000 0.000000
vt 0.749020 0.933333
vn 0.7209 -0.1054 -0.6850
vn 0.6652 -0.0562 -0.7445
vn 0.8473 0.4655 -0.2556
vn 0.7647 0.6266 -0.1507
vn 0.9355 0.3165 -0.1568
vn 0.8578 0.3641 -0.3627
vn -0.9041 -0.4113 0.1162
vn -0.8007 -0.5888 0.1109
vn -0.8181 -0.5666 0.0982
vn 0.5262 0.0099 0.8503
vn 0.6648 -0.0767 0.7431
vn 0.5976 0.0029 0.8018
vn 0.5869 -0.1851 0.7882
vn 0.8472 -0.4666 -0.2541
vn 0.9116 -0.4037 -0.0778
vn 0.8425 -0.5359 -0.0551
vn 0.8255 -0.4490 -0.3418
vn -0.9511 0.0000 0.3090
vn -0.8520 -0.5235 0.0061
vn -0.8631 -0.4726 0.1781
vn -0.8068 -0.5908 -0.0059
vn -0.8918 -0.4506 0.0406
vn 0.3845 0.9230 -0.0135
vn 0.4012 0.8987 0.1772
vn 0.4658 0.8728 0.1456
vn 0.9225 -0.0910 0.3751
vn 0.8432 0.0038 0.5376
vn 0.9859 0.0654 -0.1542
vn 0.9778 -0.1387 -0.1573
vn 0.2802 -0.0568 -0.9583
vn 0.2467 0.0000 -0.9691
vn 0.2201 -0.0611 -0.9736
vn 0.5132 -0.8364 -0.1926
vn 0.5450 -0.8304 -0.1158
vn 0.4580 -0.8430 -0.2821
vn 0.0000 0.0000 -1.0000
vn 0.0678 -0.0485 -0.9965
vn -0.0795 -0.0442 -0.9959
vn -0.0868 0.0452 -0.9952
vn -0.0033 0.0091 -1.0000
vn 0.4814 0.8731 -0.0765
vn 0.3877 0.8898 -0.2406
vn 0.3548 0.0000 -0.9350
vn 0.4112 -0.0649 -0.9092
vn 0.2830 -0.0526 -0.9577
vn 0.6645 0.2054 -0.7185
vn 0.4600 0.2005 -0.8650
vn 0.4125 0.1720 -0.8946
vn 0.3093 0.1119 -0.9443
vn 0.2148 0.1161 -0.9697
vn 0.3676 -0.9300 0.0000
vn 0.5372 -0.8433 0.0151
vn 0.2426 -0.9546 -0.1730
vn 0.2593 -0.9324 -0.2518
vn 0.2799 -0.0975 -0.9551
vn 0.2891 -0.0978 -0.9523
vn 0.1873 -0.9791 0.0795
vn 0.0300 -0.9821 0.1858
vn -0.0811 -0.9962 0.0317
vn -0.6522 -0.7360 -0.1817
vn -0.7052 -0.7089 -0.0112
vn -0.6520 -0.7573 0.0370
vn 0.3686 0.9296 0.0000
vn 0.3315 0.9245 0.1881
vn 0.3185 0.9470 0.0418
vn 0.2027 0.9732 -0.1089
vn 0.3160 0.9413 -0.1183
vn -0.9082 0.4041 0.1088
vn -0.9083 0.4038 0.1089
vn 0.2632 0.0990 -0.9596
vn 0.2252 0.0457 -0.9732
vn 0.1618 0.0781 -0.9837
vn 0.2137 0.0367 -0.9762
vn 0.2437 0.9650 0.0968
vn 0.1312 0.9599 0.2478
vn 0.0883 0.9753 0.2027
vn 0.1313 -0.9913 0.0005
vn 0.0000 -1.0000 -0.0000
vn 0.1301 -0.9913 0.0177
vn -0.1308 -0.9913 0.0111
vn 0.1029 -0.9913 0.0816
vn 0.0958 -0.9913 0.0898
vn -0.0106 -0.9913 0.1309
vn 0.0748 -0.9913 0.1079
vn 0.0286 -0.9913 0.1282
vn -0.0976 -0.9910 0.0914
vn -0.0132 -0.9913 0.1306
vn -0.0709 -0.9913 0.1105
vn -0.0767 -0.9913 0.1066
vn -0.0819 -0.9913 0.1027
vn -0.0998 -0.9913 0.0854
vn 0.1346 -0.9752 -0.1756
vn 0.0815 -0.9801 -0.1810
vn 0.1765 -0.0011 -0.9843
vn 0.2256 -0.0450 -0.9732
vn 0.2315 -0.0374 -0.9721
vn 0.0000 1.0000 -0.0000
vn -0.0600 0.9911 -0.1186
vn -0.1303 0.9914 0.0151
vn 0.1510 0.9687 -0.1970
vn 0.2140 0.9630 -0.1640
vn 0.3005 0.9456 -0.1246
vn 0.2148 0.0079 -0.9766
vn 0.1513 -0.0093 -0.9884
vn 0.2141 0.0176 -0.9767
vn 0.1484 0.0154 -0.9888
vn -0.4103 -0.9113 0.0348
vn -0.4137 -0.9099 0.0317
vn -0.4153 -0.9097 0.0002
vn 0.2690 0.0473 0.9620
vn 0.3458 -0.0038 0.9383
vn 0.4347 -0.0976 0.8953
vn 0.0685 -0.9839 -0.1653
vn 0.0133 -0.9948 -0.1009
vn 0.0000 -0.9962 -0.0866
vn -0.0685 -0.9839 -0.1653
vn -0.0769 -0.9965 -0.0322
vn -0.0236 -0.9974 -0.0681
vn -0.0854 -0.9789 -0.1856
vn 0.2245 -0.0416 -0.9736
vn 0.2141 -0.0172 -0.9767
vn 0.2148 -0.0088 -0.9766
vn 0.2748 0.0164 -0.9614
vn -0.0162 0.9922 -0.1235
vn 0.0000 0.9951 -0.0987
vn 0.0141 0.9941 -0.1076
vn 0.0576 0.9886 -0.1389
vn -0.6401 -0.7607 0.1078
vn -0.5728 -0.8181 0.0500
vn -0.5599 -0.8128 0.1606
vn -0.1321 0.9761 -0.1724
vn 0.2318 -0.0919 0.9684
vn 0.0512 0.0038 0.9987
vn 0.1486 0.0866 0.9851
vn 0.8559 -0.0539 0.5143
vn 0.8445 -0.1883 0.5014
vn 0.8402 -0.1815 0.5110
vn -0.6333 -0.0602 0.7715
vn -0.6161 -0.1873 0.7651
vn -0.6194 -0.1945 0.7606
vn -0.0208 0.1242 0.9920
vn -0.0277 -0.0038 0.9996
vn 0.0740 -0.0932 0.9929
vn -0.6062 0.7951 -0.0194
vn -0.7260 0.6863 0.0442
vn -0.7493 0.6621 0.0090
vn -0.8499 0.5226 0.0678
vn -0.3900 -0.9188 0.0602
vn -0.5015 -0.8603 0.0920
vn 0.2243 -0.9684 0.1090
vn 0.3739 -0.9275 -0.0003
vn 0.2585 -0.9629 -0.0774
vn 0.9900 0.0005 -0.1408
vn 0.9990 0.0124 -0.0437
vn -0.3681 0.9285 -0.0484
vn -0.2876 0.9503 -0.1192
vn -0.2281 0.9578 -0.1748
vn -0.9912 0.0201 0.1308
vn -0.9837 -0.1098 0.1424
vn -0.9788 0.1502 0.1396
vn 0.7878 0.0000 -0.6159
vn 0.6739 0.0124 -0.7388
vn 0.7740 -0.0794 0.6283
vn 0.6987 0.0000 0.7154
vn 0.7613 0.0804 0.6434
vn -0.5156 -0.8568 -0.0003
vn -0.4525 -0.8918 -0.0045
vn -0.4851 -0.8745 0.0002
vn -0.5044 -0.8635 -0.0000
vn -0.3957 0.9184 0.0000
vn -0.4017 -0.9158 0.0000
vn -0.0874 -0.9754 0.2023
vn 0.0975 -0.9641 0.2469
vn 0.1010 -0.9795 0.1742
vn -0.4517 -0.8920 0.0134
vn -0.4864 0.8737 -0.0002
vn -0.4142 0.9092 -0.0430
vn -0.4598 0.8880 0.0001
vn -0.3893 0.9198 -0.0481
vn 0.9623 0.0000 -0.2718
vn -0.5141 -0.8577 -0.0001
vn -0.5613 -0.8276 0.0000
vn -0.5143 -0.8576 0.0000
vn -0.6064 -0.7951 -0.0031
vn -0.7184 -0.6930 -0.0596
vn -0.6063 -0.7952 -0.0002
vn -0.6512 -0.7446 0.1467
vn -0.6617 -0.7498 -0.0008
vn -0.4605 0.8736 0.1576
vn -0.3601 0.9132 0.1906
vn -0.4033 0.9123 -0.0710
vn -0.3896 0.9190 0.0604
vn -0.6339 -0.7734 0.0004
vn -0.5211 -0.8373 -0.1652
vn -0.5691 -0.8222 -0.0110
vn -0.4892 -0.8714 0.0372
vn -0.6117 0.7911 0.0001
vn -0.6049 0.7963 -0.0001
vn -0.5361 0.8441 -0.0145
vn -0.5138 0.8579 0.0000
vn -0.5346 0.8450 -0.0118
vn -0.3951 -0.9186 0.0000
vn -0.2735 -0.9613 -0.0313
vn -0.4586 0.8886 0.0112
vn -0.4095 0.9123 0.0000
vn -0.3999 0.9165 0.0146
vn -0.9521 0.3057 -0.0074
vn -0.9030 0.4295 -0.0134
vn -0.0427 -0.9793 0.1978
vn 0.1434 -0.9646 0.2215
vn 0.1366 -0.9805 0.1412
vn -0.6410 -0.7669 0.0306
vn -0.6589 -0.7522 0.0000
vn -0.7404 -0.6722 -0.0020
vn -0.8415 -0.5364 -0.0649
vn 0.0661 -0.9818 0.1779
vn 0.2524 -0.9563 0.1477
vn 0.2050 -0.9776 0.0477
vn -0.7827 -0.6224 -0.0012
vn -0.7870 -0.6169 -0.0018
vn -0.4150 -0.9098 -0.0107
vn -0.7578 -0.6525 0.0000
vn -0.7617 -0.6479 0.0003
vn -0.6352 -0.7567 0.1544
vn -0.5991 -0.7984 0.0608
vn -0.2459 -0.9580 0.1476
vn -0.4692 -0.8799 0.0752
vn -0.3704 -0.9161 0.1536
vn -0.3434 -0.9380 0.0478
vn -0.3669 -0.9137 0.1750
vn -0.3981 -0.9161 0.0476
vn -0.4035 -0.8990 0.1706
vn -0.3096 -0.9464 0.0921
vn -0.8050 0.5931 -0.0152
vn -0.7794 0.6266 -0.0028
vn -0.7701 0.6379 -0.0004
vn -0.7427 0.6696 0.0002
vn -0.7305 0.6829 -0.0007
vn -0.7058 0.7084 0.0076
vn -0.7012 0.7130 -0.0061
vn -0.6468 0.7627 0.0000
vn -0.6115 0.7913 0.0018
vn -0.5418 0.8253 0.1593
vn -0.4639 0.8830 0.0709
vn 0.1026 -0.9806 0.1670
vn 0.0318 -0.9979 0.0571
vn 0.2834 -0.9520 0.1157
vn 0.2188 -0.9756 0.0170
vn -0.4851 0.8578 0.1698
vn -0.3702 0.9162 0.1535
vn -0.2527 0.9613 0.1098
vn -0.7633 0.0473 0.6443
vn -0.7099 -0.0038 0.7043
vn -0.6345 -0.0940 0.7672
vn -0.4163 0.9088 0.0268
vn -0.5107 0.8544 0.0955
vn -0.7303 -0.6660 0.1522
vn -0.6015 -0.7973 0.0506
vn -0.7683 -0.6244 0.1409
vn -0.5627 -0.8139 0.1445
vn -0.7931 -0.6091 0.0000
vn -0.8018 -0.5976 0.0000
vn -0.7735 -0.6055 -0.1873
vn -0.8843 -0.4669 -0.0020
vn -0.9024 -0.4308 -0.0123
vn -0.9045 -0.4259 -0.0236
vn -0.9242 -0.3763 -0.0645
vn -0.8496 -0.5274 -0.0012
vn -0.8631 -0.5050 0.0002
vn -0.7498 -0.5840 0.3111
vn -0.6934 -0.7033 0.1568
vn -0.7230 -0.6078 0.3284
vn -0.8981 0.4395 -0.0154
vn -0.8794 0.4761 -0.0025
vn -0.8649 0.5019 -0.0003
vn -0.8522 0.5232 0.0001
vn -0.8247 0.5655 -0.0017
vn -0.8232 0.5677 0.0000
vn -0.7941 0.6078 0.0000
vn -0.7682 0.6245 0.1409
vn -0.6439 0.6247 -0.4418
vn -0.5819 0.8118 0.0492
vn -0.7064 0.6904 0.1562
vn -0.5821 0.7627 0.2820
vn -0.2478 0.9129 0.3242
vn -0.3666 0.9137 0.1752
vn -0.4530 0.8878 0.0816
vn -0.9840 0.0533 -0.1698
vn -0.9908 0.1022 -0.0884
vn -0.9680 0.1848 -0.1699
vn -0.1549 0.1910 0.9693
vn -0.1481 0.0668 0.9867
vn 0.5594 0.2115 0.8014
vn 0.3981 0.3089 0.8638
vn 0.5713 0.2173 0.7915
vn 0.5394 0.3781 0.7524
vn -0.8115 -0.5520 0.1918
vn -0.6766 -0.6964 0.2391
vn -0.8095 -0.5564 0.1878
vn -0.8105 -0.5551 0.1868
vn -0.8234 -0.5404 0.1734
vn -0.8696 -0.4742 0.1378
vn -0.8631 -0.4879 0.1306
vn -0.8465 -0.5324 -0.0067
vn -0.6882 -0.7199 0.0902
vn -0.8058 -0.5773 0.1322
vn -0.6751 0.7376 -0.0108
vn -0.8651 -0.5017 0.0006
vn -0.8845 -0.4599 0.0778
vn -0.8900 -0.4478 0.0859
vn -0.8834 -0.4686 -0.0014
vn -0.9041 -0.4274 0.0000
vn -0.8951 -0.4377 -0.0852
vn -0.8853 -0.4649 0.0000
vn -0.9042 -0.4271 0.0011
vn -1.0000 0.0000 0.0000
vn -0.9914 0.0184 0.1298
vn -0.9912 0.1298 0.0264
vn -0.9336 -0.3311 -0.1372
vn -0.9389 -0.2732 -0.2094
vn -0.9384 -0.2558 -0.2325
vn -0.8201 -0.5357 0.2012
vn -0.6859 -0.6873 0.2389
vn -0.7079 -0.6201 0.3382
vn -0.9372 0.2645 -0.2273
vn -0.9377 0.2758 -0.2114
vn -0.9333 0.3318 -0.1376
vn -0.3525 -0.9280 0.1209
vn -0.3950 -0.9187 -0.0065
vn -0.3290 -0.9369 -0.1183
vn -0.8427 0.5370 0.0393
vn -0.9040 0.4276 0.0000
vn -0.8591 0.5119 0.0019
vn -0.8869 0.4620 0.0015
vn -0.8701 0.4733 0.1374
vn -0.8234 0.5404 0.1734
vn -0.8957 0.4413 0.0538
vn -0.9080 0.3651 0.2055
vn -0.8644 0.4856 0.1305
vn -0.8103 0.5553 0.1870
vn -0.7727 0.5823 0.2529
vn -0.8121 0.5830 -0.0238
vn -0.7316 0.6647 0.1516
vn -0.7810 0.6177 0.0922
vn -0.8190 0.5379 0.1997
vn -0.8113 0.4505 0.3725
vn -0.8942 0.1898 -0.4054
vn -0.9072 0.0559 -0.4171
vn -0.8882 0.1800 -0.4227
vn -0.9120 -0.0398 0.4082
vn -0.8705 -0.1322 0.4740
vn -0.8637 0.1271 0.4878
vn -0.9257 0.0389 0.3762
vn -0.8932 0.0000 0.4497
vn -0.8792 -0.1341 0.4572
vn -0.9014 -0.0026 0.4330
vn -0.8844 -0.1359 0.4464
vn -0.8986 -0.0015 0.4388
vn -0.8776 -0.1331 0.4606
vn -0.9895 0.0832 0.1183
vn -0.9467 0.0610 0.3162
vn -0.9516 -0.2630 0.1592
vn -0.9091 -0.3869 0.1545
vn -0.8709 0.0386 0.4899
vn -0.9510 -0.0097 0.3090
vn -0.9511 0.0003 0.3090
vn -0.9769 -0.0702 0.2020
vn 0.3900 -0.9206 -0.0185
vn 0.5520 -0.8334 -0.0292
vn 0.2358 -0.9676 0.0901
vn -0.9235 -0.3799 0.0532
vn -0.8700 -0.4292 0.2429
vn -0.9303 -0.3596 0.0717
vn -0.9566 -0.2781 0.0866
vn -0.9596 -0.1077 -0.2599
vn -0.9884 -0.0603 -0.1392
vn -0.9564 -0.2071 -0.2057
vn -0.9600 -0.0887 -0.2657
vn -0.9488 -0.0042 0.3158
vn -0.9490 -0.1288 0.2877
vn -0.9506 -0.0034 0.3104
vn -0.9225 -0.1134 0.3690
vn -0.9506 -0.0033 0.3104
vn -0.8689 0.0294 0.4942
vn -0.9589 0.0915 -0.2687
vn -0.9588 0.1089 -0.2626
vn -0.9522 0.1859 -0.2425
vn -0.9038 0.4280 -0.0000
vn -0.8911 0.4345 -0.1307
vn -0.9041 0.4273 0.0010
vn -0.8952 0.4456 0.0095
vn -0.9068 0.4017 -0.1279
vn -0.8945 0.4302 0.1219
vn -0.9264 0.3743 0.0397
vn -0.8658 0.4832 0.1298
vn -0.8155 0.5762 0.0541
vn -0.8756 0.4628 0.1387
vn -0.8069 0.5794 0.1151
vn -0.8100 0.5559 0.1866
vn -0.7217 0.6625 0.2006
vn -0.8348 0.5130 0.2000
vn -0.9093 0.3863 0.1548
vn -0.9509 -0.0003 0.3094
vn -0.9511 -0.0003 0.3090
vn -0.9507 0.0282 0.3089
vn -0.9700 -0.1406 0.1985
vn -0.9379 -0.1278 0.3226
vn -0.9507 0.0277 0.3090
vn -0.9496 0.0059 0.3134
vn -0.9498 0.0090 0.3127
vn -0.9490 0.0088 0.3152
vn -0.9447 0.0081 0.3278
vn -0.9000 0.0053 0.4358
vn -0.8877 -0.1333 0.4407
vn 0.9901 -0.0019 -0.1402
vn 0.9832 0.0914 -0.1581
vn 0.9764 -0.1990 -0.0837
vn -0.9079 0.0000 0.4193
vn -0.9373 0.0418 0.3461
vn -0.6965 -0.7175 -0.0002
vn -0.7049 -0.7093 -0.0072
vn -0.5746 -0.8165 0.0571
vn -0.6669 -0.7410 -0.0782
vn -0.9511 0.0003 0.3089
vn -0.9646 -0.1098 0.2397
vn -0.9312 -0.1246 0.3426
vn -0.9510 0.0000 0.3092
vn -0.9084 -0.0671 0.4127
vn -0.9680 -0.1069 0.2271
vn -0.9821 -0.1551 0.1068
vn -0.9852 0.0000 -0.1714
vn -0.9799 0.0260 -0.1976
vn -0.9289 0.3635 0.0706
vn -0.9289 0.3635 0.0710
vn -0.9017 0.4307 -0.0388
vn -0.9272 0.3684 0.0672
vn -0.9659 0.2439 0.0875
vn -0.9510 -0.0004 0.3090
vn -0.9511 -0.0003 0.3089
vn -0.9510 -0.0001 0.3091
vn -0.9512 -0.0003 0.3086
vn -0.9897 0.0000 0.1435
vn -0.9911 -0.0104 0.1328
vn -0.9642 -0.2107 0.1609
vn -0.9889 -0.0902 0.1177
vn -0.8986 -0.0002 0.4387
vn -0.8991 0.0885 0.4286
vn -0.9911 0.0104 0.1328
vn -0.9922 0.0000 0.1248
vn 0.2736 -0.9618 -0.0053
vn 0.6025 -0.7980 -0.0117
vn 0.2697 -0.9618 0.0466
vn 0.5938 -0.7980 0.1026
vn 0.2331 -0.9618 0.1435
vn 0.5132 -0.7980 0.3159
vn 0.2017 -0.9618 0.1850
vn 0.4441 -0.7980 0.4073
vn 0.1630 -0.9618 0.2198
vn 0.3590 -0.7980 0.4840
vn 0.1185 -0.9618 0.2467
vn 0.2609 -0.7980 0.5432
vn 0.0697 -0.9618 0.2646
vn 0.1534 -0.7980 0.5828
vn 0.0183 -0.9618 0.2730
vn 0.0403 -0.7980 0.6013
vn 0.2502 -0.1837 0.9506
vn 0.2164 -0.5264 0.8222
vn 0.4256 -0.1837 0.8861
vn 0.4256 -0.1838 0.8861
vn 0.3681 -0.5264 0.7664
vn 0.5856 -0.1837 0.7895
vn 0.5065 -0.5264 0.6829
vn 0.7244 -0.1838 0.6644
vn 0.6266 -0.5264 0.5747
vn 0.7244 -0.1837 0.6644
vn 0.8371 -0.1837 0.5153
vn 0.7240 -0.5264 0.4457
vn 0.9686 -0.1838 0.1673
vn 0.8378 -0.5264 0.1447
vn 0.9828 -0.1838 -0.0190
vn 0.9828 -0.1837 -0.0191
vn 0.8501 -0.5264 -0.0165
vn 0.8500 -0.5264 -0.0165
vn 0.9614 -0.1837 -0.2047
vn 0.9614 -0.1838 -0.2047
vn 0.8316 -0.5264 -0.1771
vn 0.2546 -0.0000 0.9671
vn 0.0658 -0.1837 0.9808
vn 0.5957 0.0000 0.8032
vn 0.5856 -0.1838 0.7895
vn 0.0401 0.9618 0.2707
vn 0.0882 0.7980 0.5962
vn 0.0906 0.9618 0.2583
vn 0.0905 0.9618 0.2583
vn 0.0882 0.7980 0.5961
vn 0.1994 0.7980 0.5687
vn 0.1801 0.9618 0.2061
vn 0.3965 0.7980 0.4538
vn 0.2158 0.9618 0.1683
vn 0.3965 0.7980 0.4539
vn 0.4752 0.7980 0.3706
vn 0.2438 0.9618 0.1244
vn 0.5368 0.7980 0.2740
vn 0.2629 0.9618 0.0761
vn 0.2629 0.9618 0.0760
vn 0.5367 0.7980 0.2740
vn 0.5789 0.7980 0.1674
vn 0.2813 0.5264 0.8023
vn 0.3034 0.7980 0.5207
vn 0.4281 0.5264 0.7346
vn 0.6705 0.5264 0.5229
vn 0.7573 0.5264 0.3865
vn 0.5789 0.7980 0.1675
vn 0.8167 0.5265 0.2362
vn 0.8167 0.5264 0.2362
vn 0.6001 0.7980 0.0548
vn 0.8467 0.5264 0.0774
vn 0.5997 0.7980 -0.0597
vn 0.8460 0.5264 -0.0843
vn 0.9781 0.1838 -0.0974
vn 0.8460 0.5264 -0.0842
vn 0.9789 0.1837 0.0895
vn 0.9789 0.1838 0.0895
vn 0.9443 0.1838 0.2731
vn 0.8168 0.5264 0.2362
vn 0.7751 0.1837 0.6045
vn 0.6704 0.5264 0.5229
vn 0.6467 0.1837 0.7403
vn 0.6704 0.5264 0.5228
vn 0.5594 0.5265 0.6403
vn 0.5594 0.5264 0.6403
vn 0.4949 0.1838 0.8493
vn 0.4949 0.1837 0.8493
vn 0.9958 -0.0000 0.0910
vn 0.9781 0.1837 -0.0974
vn 0.6579 -0.0000 0.7531
vn 0.8907 0.0000 0.4546
vn 0.9354 -0.0000 0.3536
vn 0.9606 0.0000 0.2778
vn 0.5894 -0.7980 -0.1255
vn 0.8316 -0.5264 -0.1770
vn 0.5637 -0.7980 0.2131
vn 0.7953 -0.5264 0.3006
vn -0.1210 -0.1838 0.9755
vn -0.1047 -0.5264 0.8438
vn 0.0658 -0.1838 0.9808
vn 0.0569 -0.5264 0.8483
vn -0.1860 -0.7980 0.5732
vn -0.2624 -0.5265 0.8087
vn -0.2912 -0.7980 0.5276
vn -0.2625 -0.5264 0.8087
vn -0.4108 -0.5264 0.7444
vn -0.3857 -0.7980 0.4630
vn -0.5442 -0.5264 0.6532
vn -0.4664 -0.7980 0.3816
vn -0.4664 -0.7980 0.3817
vn -0.6580 -0.5264 0.5384
vn -0.5302 -0.7980 0.2865
vn -0.7480 -0.5264 0.4042
vn -0.5748 -0.7980 0.1809
vn -0.5748 -0.7980 0.1810
vn -0.7480 -0.5265 0.4042
vn -0.8110 -0.5264 0.2553
vn -0.0845 -0.9618 0.2603
vn -0.1322 -0.9618 0.2396
vn -0.2912 -0.7980 0.5277
vn -0.1752 -0.9618 0.2102
vn -0.2118 -0.9618 0.1733
vn -0.2408 -0.9618 0.1301
vn -0.2407 -0.9618 0.1301
vn -0.9376 -0.1838 0.2952
vn -0.8648 -0.1837 0.4673
vn -0.8648 -0.1838 0.4673
vn -0.6292 -0.1837 0.7552
vn -0.8798 0.0000 0.4754
vn -0.9376 -0.1838 0.2951
vn -0.7739 -0.0000 0.6333
vn -0.4831 0.0000 0.8756
vn -0.4749 -0.1837 0.8606
vn -0.2296 0.9618 0.1489
vn -0.5056 0.7980 0.3278
vn -0.1973 0.9618 0.1897
vn -0.5056 0.7980 0.3279
vn -0.4345 0.7980 0.4176
vn -0.1973 0.9618 0.1896
vn -0.1579 0.9618 0.2236
vn -0.1578 0.9618 0.2235
vn -0.3476 0.7980 0.4923
vn -0.1127 0.9618 0.2494
vn -0.2481 0.7980 0.5492
vn -0.0634 0.9618 0.2662
vn -0.1397 0.7980 0.5862
vn -0.0119 0.9618 0.2734
vn -0.0262 0.7980 0.6021
vn -0.5586 0.7980 0.2262
vn -0.7880 0.5264 0.3192
vn -0.5057 0.7980 0.3279
vn -0.7134 0.5264 0.4626
vn -0.4904 0.5264 0.6946
vn -0.3501 0.5264 0.7748
vn -0.1971 0.5264 0.8271
vn -0.0263 0.7980 0.6021
vn -0.0370 0.5264 0.8494
vn -0.9269 -0.0000 0.3754
vn -0.8248 0.1838 0.5348
vn -0.9111 0.1837 0.3690
vn -0.2279 0.1838 0.9562
vn -0.4047 0.1837 0.8958
vn -0.3501 0.5265 0.7748
vn -0.5669 0.1837 0.8030
vn -0.5669 0.1838 0.8030
vn -0.7086 0.1837 0.6812
vn -0.6129 0.5264 0.5892
vn -0.8248 0.1837 0.5348
vn -0.6130 0.5264 0.5892
vn -0.9644 0.1838 0.1899
vn -0.9644 0.1838 0.1900
vn -0.8342 0.5264 0.1643
vn 0.6737 0.5266 -0.5184
vn 0.9318 0.3263 -0.1591
vn 0.8574 0.2386 -0.4559
vn 0.5161 -0.3406 -0.7859
vn 0.4444 -0.0346 -0.8952
vn 0.6008 -0.0469 -0.7980
vn 0.6008 -0.0468 -0.7980
vn 0.7188 -0.0750 -0.6911
vn 0.8575 -0.2386 -0.4559
vn 0.8476 -0.0661 -0.5264
vn 0.9297 -0.0725 -0.3612
vn 0.9318 -0.3263 -0.1591
vn 0.8574 -0.2386 -0.4559
vn 0.7189 -0.0750 -0.6911
vn 0.6737 -0.5266 -0.5184
vn -0.5936 0.8047 -0.0000
vn -0.6725 0.7401 -0.0000
vn -0.7094 0.7048 -0.0000
vn -0.8068 0.5377 0.2449
vn -0.7874 0.6165 0.0003
vn -0.8477 0.5305 -0.0000
vn -0.7258 0.6787 0.1121
vn -0.7373 0.6756 -0.0020
vn -0.6961 -0.7180 -0.0000
vn -0.6749 -0.7380 0.0000
vn -0.6202 -0.7845 -0.0000
vn -0.7107 -0.7035 -0.0020
vn -0.6933 -0.7031 0.1579
vn -0.7292 -0.6769 0.1006
vn -0.6177 0.7864 -0.0000
vn -0.5251 0.8511 0.0000
vn -0.4670 0.8843 0.0000
vn -0.8298 -0.5580 0.0001
vn -0.8547 -0.4937 0.1605
vn -0.8745 -0.4850 -0.0001
vn -0.8745 -0.4850 -0.0000
vn -0.8547 -0.4938 0.1605
vn -0.9151 -0.4032 -0.0001
vn -0.5835 -0.7910 0.1838
vn -0.5950 -0.8037 0.0011
vn -0.5011 -0.8654 -0.0001
vn -0.4536 -0.8864 0.0924
vn -0.6550 0.7556 -0.0033
vn -0.7410 0.6641 0.0990
vn -0.6492 0.7567 0.0771
vn 0.9873 -0.0949 -0.1276
vn 0.9683 0.0041 0.2498
vn 0.9924 -0.0969 0.0754
vn 0.9802 -0.1859 0.0687
vn 0.9747 0.0834 -0.2072
vn 0.9888 -0.0966 -0.1137
vn 0.9937 0.0907 0.0653
vn 0.9799 0.0477 -0.1938
vn 0.9928 -0.0193 -0.1180
vn 0.6519 0.0101 0.7583
vn 0.5860 0.0574 0.8083
vn 0.5858 0.0732 0.8071
vn 0.1436 0.1864 0.9719
vn 0.1462 0.0029 0.9893
vn 0.2387 0.0891 0.9670
vn 0.4101 0.1786 0.8944
vn 0.9798 -0.0008 0.2001
vn 0.9933 -0.0474 0.1056
vn 0.9924 0.0868 0.0876
vn 0.6286 -0.0159 0.7776
vn 0.5618 -0.0798 0.8234
vn 0.5615 -0.0641 0.8250
vn 0.9606 -0.0001 0.2778
vn 0.8958 -0.0877 0.4357
vn 0.8978 0.0902 0.4311
vn 0.8758 0.1823 0.4470
vn 0.8434 0.4321 0.3192
vn 0.6698 0.5277 0.5225
vn 0.7742 0.1857 0.6051
vn -0.0653 0.9775 0.2004
vn -0.2520 0.9442 0.2120
vn -0.0607 0.9222 0.3818
vn 0.9691 -0.1808 0.1677
vn 0.8375 -0.5269 0.1446
vn 0.9686 -0.1849 0.1662
vn 0.9196 -0.1831 0.3476
vn 0.9467 0.1095 -0.3031
vn 0.9086 0.3134 -0.2760
vn 0.9601 0.2036 -0.1917
vn 0.9230 0.1946 -0.3319
vn 0.8904 0.3772 -0.2546
vn 0.9056 0.1729 -0.3873
vn 0.8360 -0.0640 -0.5451
vn 0.8485 -0.2389 -0.4722
vn 0.8295 -0.0694 -0.5543
vn 0.4670 -0.0159 0.8841
vn 0.3927 -0.0800 0.9162
vn 0.3037 -0.2480 0.9199
vn 0.8907 -0.0001 0.4547
vn 0.7989 -0.0878 0.5951
vn 0.8014 0.0893 0.5914
vn -0.6700 0.4238 0.6095
vn -0.4346 0.4337 0.7893
vn -0.6133 0.5254 0.5897
vn -0.7095 0.1831 0.6805
vn -0.7876 0.5272 0.3190
vn -0.5577 0.7983 0.2273
vn -0.7121 0.7017 0.0227
vn -0.5584 0.7837 0.2721
vn -0.0140 0.7116 0.7024
vn 0.0054 0.6081 0.7938
vn 0.2812 0.5270 0.8020
vn 0.3377 0.7038 0.6250
vn 0.6744 -0.6472 -0.3554
vn 0.8473 -0.2461 -0.4707
vn 0.9055 -0.4094 -0.1121
vn 0.8845 -0.1839 -0.4287
vn 0.9401 -0.2076 -0.2703
vn 0.6169 -0.7031 0.3536
vn 0.7033 -0.7109 0.0009
vn 0.7938 -0.6076 0.0269
vn 0.6868 -0.7269 -0.0018
vn 0.7587 0.3406 -0.5553
vn 0.8262 0.4462 -0.3439
vn 0.9331 0.3204 -0.1633
vn 0.0658 -0.1841 0.9807
vn 0.0558 -0.5262 0.8485
vn 0.2165 -0.5261 0.8224
vn 0.2513 -0.1840 0.9503
vn 0.9120 0.1855 0.3659
vn 0.7859 -0.0849 0.6125
vn 0.8396 0.0962 0.5347
vn 0.9526 -0.0617 -0.2980
vn 0.8833 -0.1797 -0.4331
vn 0.9016 -0.0716 -0.4266
vn 0.1603 -0.0676 0.9847
vn 0.1669 -0.1916 0.9672
vn 0.8429 0.0476 0.5359
vn 0.8000 -0.0192 0.5997
vn 0.8504 -0.0822 0.5197
vn 0.7850 -0.0946 0.6122
vn 0.6609 -0.1807 0.7283
vn 0.8479 0.0917 0.5222
vn 0.1535 -0.7978 0.5830
vn 0.0687 -0.9616 0.2656
vn 0.3120 -0.8970 0.3130
vn 0.3362 -0.8594 0.3853
vn 0.3310 -0.9436 0.0040
vn 0.4688 -0.8809 -0.0654
vn 0.5548 -0.8307 0.0454
vn 0.4649 -0.8757 -0.1303
vn 0.2740 -0.9570 -0.0956
vn 0.5738 -0.8166 0.0625
vn 0.6676 -0.7212 -0.1850
vn 0.6416 -0.7670 0.0059
vn 0.0062 -0.0831 -0.9965
vn -0.0051 -0.0833 -0.9965
vn -0.0490 0.0767 -0.9959
vn 0.0642 0.0738 -0.9952
vn 0.0099 0.0010 -1.0000
vn -0.0041 0.0091 -1.0000
vn 0.0097 0.0005 -1.0000
vn 0.7922 -0.4247 -0.4383
vn 0.7653 -0.0354 -0.6426
vn 0.8436 -0.0624 -0.5333
vn 0.8583 -0.2336 -0.4568
vn 0.6837 -0.3444 -0.6434
vn 0.7328 -0.0984 -0.6733
vn 0.8450 -0.2698 -0.4617
vn -0.5440 -0.2705 0.7943
vn -0.5193 -0.4341 0.7361
vn -0.2626 -0.5260 0.8089
vn -0.3024 -0.1838 0.9353
vn 0.8817 0.4000 -0.2504
vn 0.7796 0.5650 -0.2702
vn 0.8250 0.5611 -0.0670
vn -0.0109 0.9813 0.1922
vn -0.1943 0.9545 0.2262
vn 0.0122 0.9281 0.3722
vn -0.4654 -0.7990 0.3807
vn -0.2117 -0.9622 0.1714
vn -0.1569 -0.8979 0.4112
vn -0.2076 -0.8595 0.4670
vn 0.6827 0.7249 -0.0918
vn 0.5324 0.8400 -0.1048
vn 0.4576 0.8442 -0.2791
vn -0.3664 0.9277 0.0721
vn -0.3944 0.9188 -0.0163
vn -0.4047 0.9082 -0.1066
vn 0.8533 0.0470 -0.5193
vn 0.8129 0.3651 -0.4537
vn 0.8861 0.1289 -0.4451
vn 0.6428 0.2551 -0.7224
vn 0.7774 0.3356 -0.5319
vn 0.6686 0.1093 -0.7356
vn 0.6851 0.3425 -0.6429
vn 0.8380 0.2093 -0.5039
vn 0.0006 0.8971 0.4419
vn 0.0345 0.8594 0.5102
vn 0.3036 0.7977 0.5210
vn 0.1392 0.9616 0.2365
vn -0.7559 0.2680 0.5974
vn -0.6968 0.4317 0.5728
vn -0.7883 0.5259 0.3194
vn -0.8920 0.2689 0.3633
vn 0.9948 0.0830 -0.0593
vn 0.9994 0.0000 0.0359
vn -0.1130 0.0722 0.9910
vn -0.0314 0.0092 0.9995
vn -0.1039 -0.1474 0.9836
vn 0.1246 0.5242 0.8424
vn 0.0895 0.7962 0.5984
vn -0.0264 0.7996 0.6000
vn -0.0381 0.5290 0.8477
vn -0.4185 0.9036 0.0914
vn -0.5022 0.8648 0.0008
vn -0.4324 0.8751 0.2175
vn -0.3292 0.9264 0.1829
vn -0.5823 0.7108 0.3946
vn -0.6423 0.6076 0.4671
vn -0.4906 0.5259 0.6948
vn -0.3472 0.7974 0.4936
vn -0.5061 0.7976 0.3281
vn -0.2297 0.9616 0.1503
vn -0.4412 0.8971 0.0214
vn -0.5077 0.8595 0.0587
vn 0.2797 -0.9532 -0.1147
vn 0.2755 -0.9584 0.0751
vn 0.4095 -0.9109 -0.0508
vn 0.3185 -0.9470 0.0418
vn 0.2069 -0.9722 -0.1098
vn 0.3390 -0.9404 0.0258
vn 0.4553 -0.8829 -0.1145
vn 0.3126 -0.9357 -0.1634
vn 0.3603 -0.9316 -0.0473
vn 0.2903 -0.9493 -0.1204
vn 0.3792 -0.0888 -0.9210
vn 0.4862 -0.1308 -0.8640
vn 0.4120 -0.1706 -0.8951
vn 0.4149 -0.0306 -0.9093
vn 0.6138 -0.1874 -0.7669
vn 0.4606 -0.2003 -0.8647
vn 0.6234 0.7649 -0.1619
vn 0.5915 0.8061 0.0205
vn 0.3706 0.9288 -0.0015
vn 0.2902 0.9413 0.1722
vn 0.2541 0.9557 0.1484
vn 0.3005 0.9521 0.0566
vn 0.2056 0.9534 0.2207
vn 0.1635 0.9687 0.1867
vn 0.3614 0.9312 -0.0475
vn 0.6280 0.2129 -0.7485
vn 0.4471 0.3601 -0.8188
vn 0.7964 0.1348 -0.5896
vn 0.5609 0.0961 -0.8223
vn 0.4722 0.0952 -0.8763
vn 0.4881 0.4200 -0.7650
vn 0.6422 0.7012 -0.3096
vn 0.7033 0.7091 0.0498
vn 0.7951 0.6058 0.0292
vn 0.8143 0.5273 -0.2427
vn 0.0263 -0.9746 0.2222
vn 0.2264 -0.9725 0.0545
vn 0.3143 -0.9459 0.0802
vn 0.2320 -0.9726 -0.0146
vn 0.0500 -0.9773 0.2056
vn -0.2675 -0.9489 0.1672
vn -0.1403 -0.9689 0.2037
vn -0.1943 -0.9807 0.0214
vn -0.8360 0.5411 0.0917
vn -0.5900 0.8074 -0.0052
vn -0.7021 0.7097 0.0571
vn -0.7171 0.6946 0.0571
vn 0.4415 -0.7037 0.5567
vn 0.6512 -0.7114 0.2642
vn 0.7278 -0.6079 0.3176
vn 0.6385 -0.7274 0.2515
vn -0.3255 -0.0041 0.9455
vn -0.3224 -0.0047 0.9466
vn -0.3929 -0.0262 0.9192
vn -0.4044 0.1923 0.8941
vn 0.1161 0.0991 0.9883
vn 0.1053 -0.0931 0.9901
vn 0.2005 -0.0000 0.9797
vn 0.2038 0.0936 0.9745
vn 0.9295 0.0730 -0.3616
vn 0.8955 0.0000 -0.4451
vn 0.8477 0.0661 -0.5264
vn 0.0184 -0.9621 0.2719
vn 0.1694 -0.8599 0.4815
vn -0.0742 -0.7973 0.5989
vn -0.0350 -0.9614 0.2728
vn 0.1561 0.9770 0.1455
vn 0.0109 0.9636 0.2671
vn 0.2926 0.9189 0.2647
vn 0.1784 -0.9747 0.1347
vn 0.0163 -0.9991 0.0394
vn 0.2421 -0.9692 -0.0444
vn 0.1302 -0.9913 -0.0167
vn 0.1297 -0.9912 0.0269
vn 0.1218 -0.9913 0.0491
vn 0.1011 -0.9913 0.0838
vn -0.1107 -0.9910 0.0757
vn 0.0987 -0.9913 0.0866
vn 0.0296 -0.9910 0.1307
vn -0.1293 -0.9913 0.0226
vn 0.0925 -0.9913 0.0932
vn 0.0448 -0.9913 0.1234
vn -0.1277 -0.9911 -0.0368
vn 0.0408 -0.9913 0.1248
vn -0.0625 -0.9911 0.1172
vn -0.1199 -0.9913 -0.0538
vn 0.0366 -0.9913 0.1261
vn -0.0694 -0.9913 0.1116
vn -0.0986 -0.9910 -0.0901
vn 0.0325 -0.9913 0.1272
vn -0.0968 -0.9910 0.0920
vn -0.0900 -0.9910 -0.0989
vn 0.0251 -0.9913 0.1289
vn -0.0862 -0.9913 0.0991
vn -0.0895 -0.9913 0.0961
vn 0.0035 -0.9913 -0.1313
vn -0.1140 -0.9913 0.0652
vn 0.2254 -0.9588 -0.1728
vn 0.2362 -0.0484 -0.9705
vn 0.2410 -0.0573 -0.9688
vn 0.2439 -0.0665 -0.9675
vn -0.1281 0.9911 0.0355
vn 0.0265 0.9914 0.1285
vn 0.1405 0.9689 -0.2036
vn 0.2820 -0.0254 -0.9591
vn 0.2222 0.0000 -0.9750
vn 0.1860 -0.0558 -0.9810
vn 0.1965 0.9725 0.1252
vn 0.0661 0.9625 0.2631
vn 0.0246 0.9782 0.2061
vn 0.5943 -0.7990 0.0919
vn 0.4355 -0.8973 -0.0721
vn 0.5086 -0.8595 -0.0511
vn 0.5639 -0.7979 0.2131
vn 0.3850 -0.0595 -0.9210
vn 0.4443 0.0347 -0.8952
vn 0.5256 0.0000 -0.8507
vn 0.0846 0.8973 0.4332
vn 0.1296 0.8594 0.4946
vn 0.3964 0.7981 0.4538
vn 0.2936 0.7991 0.5246
vn 0.5020 0.0863 0.8605
vn 0.4198 -0.0084 0.9076
vn 0.4175 0.0867 0.9045
vn 0.9590 -0.0520 0.2785
vn 0.9699 -0.1899 0.1524
vn 0.9867 -0.0547 0.1532
vn 0.3309 0.0000 0.9437
vn 0.4104 -0.1242 0.9034
vn 0.4191 0.0038 0.9079
vn -0.1655 -0.0630 0.9842
vn -0.2809 -0.1544 0.9472
vn -0.2883 -0.1950 0.9375
vn 0.2607 0.0065 0.9654
vn 0.2486 -0.1818 0.9514
vn 0.4308 0.0973 0.8972
vn 0.3591 -0.7979 0.4842
vn 0.1623 -0.9617 0.2209
vn 0.4059 -0.8970 0.1747
vn 0.4554 -0.8593 0.2327
vn 0.0522 0.9975 0.0486
vn -0.0411 0.9632 0.2656
vn 0.2349 0.9245 0.3001
vn 0.1168 0.9799 0.1619
vn -0.0133 -0.9948 -0.1009
vn 0.2291 -0.0416 -0.9725
vn 0.2334 -0.0505 -0.9711
vn 0.2235 -0.0523 -0.9733
vn 0.2139 -0.0265 -0.9765
vn -0.0356 0.9873 -0.1546
vn -0.1858 -0.7988 0.5721
vn -0.0855 -0.9621 0.2588
vn 0.0907 -0.8978 0.4310
vn 0.0774 -0.8594 0.5053
vn 0.1730 0.9816 0.0809
vn -0.0894 0.9618 0.2587
vn -0.1102 0.9797 0.1672
vn 0.9925 0.0024 -0.1221
vn 0.9462 0.0029 -0.3234
vn 0.9477 -0.1832 -0.2613
vn -0.7477 -0.5270 0.4040
vn -0.5306 -0.7981 0.2853
vn -0.4624 -0.7116 0.5289
vn -0.5381 -0.6080 0.5837
vn 0.8985 0.2666 -0.3487
vn 0.9780 0.1852 -0.0963
vn 0.8906 0.2716 -0.3647
vn 0.8302 0.4353 -0.3482
vn -0.5539 0.0099 0.8325
vn -0.3086 -0.0046 0.9512
vn -0.4840 0.0027 0.8751
vn -0.4702 -0.1851 0.8629
vn -0.6101 0.0065 0.7923
vn -0.6076 -0.0894 0.7892
vn -0.4470 -0.1007 0.8888
vn -0.5250 0.0935 0.8460
vn -0.0370 0.5257 0.8499
vn -0.0439 0.1835 0.9820
vn 0.2343 0.2730 0.9330
vn 0.2264 0.4367 0.8706
vn 0.3285 -0.7025 0.6314
vn 0.5914 -0.7103 0.3816
vn 0.6536 -0.6071 0.4519
vn 0.5776 -0.7262 0.3728
vn -0.8336 0.5188 0.1899
vn -0.8382 0.4765 0.2654
vn -0.6214 0.7615 0.1844
vn -0.7558 0.6311 0.1746
vn -0.0078 -0.9762 -0.2165
vn -0.2596 -0.9575 -0.1256
vn -0.1359 -0.9747 -0.1774
vn -0.0929 -0.9744 -0.2046
vn -0.3426 -0.9312 -0.1240
vn -0.2214 -0.9603 -0.1697
vn -0.3110 -0.9492 -0.0483
vn -0.2543 -0.9524 -0.1684
vn -0.2102 0.9584 -0.1932
vn -0.0657 0.9852 -0.1584
vn -0.6187 -0.7847 -0.0388
vn -0.8650 -0.5017 0.0070
vn -0.7427 -0.6696 0.0003
vn -0.7869 -0.5962 0.1590
vn 0.3610 0.8970 0.2550
vn 0.4356 0.8590 0.2688
vn 0.5993 0.7987 0.0547
vn 0.5752 0.7986 0.1771
vn -0.8827 0.4543 0.1206
vn -0.8687 0.4507 0.2055
vn -0.8748 0.4819 0.0494
vn -0.8868 0.4562 0.0742
vn -0.3848 -0.2708 0.8824
vn -0.3696 -0.4345 0.8213
vn -0.0137 -0.4355 0.9001
vn -0.0241 -0.2718 0.9621
vn -0.0431 -0.0968 0.9944
vn 0.1378 -0.0082 0.9904
vn 0.1480 0.1800 0.9725
vn 0.6815 0.0633 0.7291
vn 0.6800 -0.1431 0.7191
vn 0.5822 0.0666 0.8104
vn -0.0281 -0.0979 0.9948
vn 0.0452 0.0168 0.9988
vn -0.1638 -0.0963 0.9818
vn -0.3929 0.7112 0.5829
vn -0.4235 0.6080 0.6716
vn -0.1971 0.5262 0.8272
vn -0.1387 0.7976 0.5870
vn 0.5660 -0.7990 0.2028
vn 0.4412 -0.8973 0.0120
vn 0.5093 -0.8594 0.0457
vn 0.5130 -0.7982 0.3158
vn -0.2198 -0.9478 -0.2310
vn -0.3428 -0.9394 0.0008
vn -0.2930 -0.9484 -0.1215
vn 0.7410 0.6338 -0.2217
vn 0.7488 0.6623 -0.0263
vn 0.8309 0.5536 -0.0556
vn -0.2628 -0.5245 0.8098
vn -0.1876 -0.7964 0.5750
vn 0.0357 -0.7093 0.7040
vn 0.0072 -0.6064 0.7951
vn -0.2279 0.1837 0.9562
vn -0.1377 0.0994 0.9855
vn -0.0428 0.1837 0.9820
vn -0.8057 0.0512 0.5901
vn -0.7235 0.0480 0.6887
vn -0.7911 0.1863 0.5827
vn -0.5465 0.8325 0.0915
vn -0.4595 0.8692 0.1827
vn -0.2291 0.4235 0.8765
vn 0.0558 0.4348 0.8988
vn -0.1970 0.5291 0.8254
vn -0.2288 0.1874 0.9553
vn -0.4340 0.7977 0.4188
vn -0.6468 0.7102 0.2778
vn -0.7196 0.6069 0.3373
vn 0.2391 0.8977 0.3702
vn 0.3034 0.8598 0.4107
vn 0.5374 0.7975 0.2743
vn 0.4675 0.7991 0.3779
vn 0.9325 0.2203 -0.2862
vn 0.8205 0.2870 -0.4943
vn 0.9370 0.3076 -0.1658
vn 0.9718 0.1017 -0.2126
vn -0.7695 -0.6130 -0.1790
vn -0.8192 -0.5734 -0.0112
vn -0.5242 0.8515 0.0128
vn -0.5050 0.8631 -0.0026
vn -0.4298 0.9022 -0.0360
vn -0.4096 0.9123 -0.0022
vn -0.3236 0.9460 -0.0174
vn -0.4349 0.9004 -0.0121
vn 0.6916 0.0840 -0.7174
vn 0.5684 0.2605 -0.7804
vn 0.7307 0.3063 -0.6102
vn -0.6931 -0.7011 0.1672
vn -0.7175 -0.6965 0.0100
vn -0.6973 -0.7126 0.0778
vn -0.5555 -0.8265 0.0906
vn 0.3658 0.7099 0.6018
vn 0.4377 0.6069 0.6634
vn 0.6710 0.5253 0.5233
vn 0.6231 0.7027 0.3435
vn 0.5502 -0.0000 0.8350
vn 0.4657 -0.0930 0.8800
vn 0.4789 -0.1098 0.8710
vn -0.4958 -0.0076 0.8684
vn -0.3972 0.1805 0.8998
vn -0.4946 0.0873 0.8647
vn -0.4986 -0.0080 0.8668
vn -0.6759 -0.2639 0.6881
vn -0.4739 -0.1839 0.8612
vn -0.6839 -0.2697 0.6779
vn -0.6502 -0.4333 0.6241
vn -0.1139 0.9724 0.2034
vn -0.3011 0.9338 0.1932
vn -0.1353 0.9137 0.3831
vn -0.5630 -0.8265 -0.0016
vn -0.4354 -0.8977 0.0678
vn -0.5056 -0.8586 -0.0844
vn 0.9788 0.0892 0.1845
vn 0.9950 -0.0057 0.0995
vn 0.9840 0.1784 0.0003
vn 0.9999 -0.0128 0.0086
vn -0.3019 0.0004 0.9533
vn -0.3061 -0.1876 0.9333
vn -0.3261 -0.0193 0.9451
vn -0.2159 -0.0944 0.9718
vn -0.5482 -0.8363 0.0121
vn -0.4022 -0.9153 0.0209
vn -0.4287 -0.9032 0.0183
vn -0.3999 -0.9164 0.0168
vn -0.5643 0.8256 -0.0042
vn -0.4934 0.8685 -0.0480
vn -0.5836 0.8119 -0.0147
vn -0.5301 0.8468 -0.0435
vn -0.5472 0.8366 0.0260
vn -0.5936 0.8005 -0.0827
vn 0.9257 0.0943 0.3663
vn 0.9301 -0.0008 0.3674
vn 0.9656 0.1827 0.1851
vn 0.9804 -0.0076 0.1968
vn -0.4926 -0.8506 0.1840
vn -0.4999 -0.8654 0.0358
vn -0.4174 -0.9042 0.0908
vn -0.3872 -0.8958 0.2182
vn -0.5251 0.8510 0.0000
vn -0.5487 0.8359 0.0107
vn -0.0022 -0.9817 0.1906
vn 0.1865 -0.9611 0.2039
vn 0.1677 -0.9802 0.1058
vn -0.0118 0.9613 0.2752
vn -0.0274 0.7971 0.6032
vn 0.0880 0.7991 0.5947
vn -0.0361 0.7999 0.5990
vn 0.5808 0.0930 0.8087
vn 0.6398 0.1859 0.7457
vn -0.2715 0.0064 0.9624
vn -0.1775 0.0000 0.9841
vn -0.1620 0.0029 0.9868
vn -0.2495 -0.1001 0.9632
vn 0.3252 0.1838 0.9276
vn 0.3874 0.4360 0.8123
vn 0.1244 0.5264 0.8411
vn 0.1427 0.1842 0.9725
vn 0.6910 -0.7108 -0.1314
vn 0.7845 -0.6075 -0.1247
vn 0.8375 -0.5270 0.1446
vn 0.6728 -0.7031 0.2302
vn -0.6809 -0.7317 -0.0305
vn -0.6381 -0.7697 -0.0209
vn -0.6458 -0.7633 0.0162
vn -0.6555 -0.7541 0.0400
vn -0.6479 -0.7617 0.0032
vn -0.6665 -0.7448 0.0327
vn -0.6831 -0.7302 -0.0133
vn -0.6857 -0.7279 0.0000
vn -0.5594 0.7951 0.2344
vn -0.2344 0.9532 0.1907
vn -0.3270 0.9413 0.0837
vn -0.5276 0.8382 0.1382
vn -0.6706 -0.7417 0.0092
vn -0.7279 -0.6848 0.0337
vn -0.6922 -0.6993 0.1784
vn -0.2919 -0.9435 0.1566
vn -0.4131 -0.8949 0.1688
vn -0.4989 -0.8634 0.0748
vn -0.5413 -0.8258 0.1581
vn -0.5904 -0.8044 0.0658
vn -0.5433 -0.8379 0.0521
vn -0.7233 0.6905 0.0066
vn -0.7103 0.7039 0.0094
vn -0.7166 0.6974 -0.0027
vn -0.6646 0.7436 -0.0733
vn -0.6660 0.7459 -0.0085
vn -0.6917 0.7222 0.0000
vn -0.6466 0.7626 0.0165
vn -0.7675 -0.5160 0.3805
vn -0.8359 -0.5488 -0.0040
vn -0.7896 -0.5834 0.1901
vn -0.6936 -0.6302 0.3489
vn -0.6552 0.7551 0.0228
vn -0.6409 0.7521 0.1535
vn -0.5957 0.8008 0.0617
vn -0.4099 0.9109 0.0481
vn -0.5966 0.7386 0.3138
vn -0.5347 0.8445 0.0298
vn -0.1556 0.9667 0.2030
vn -0.1554 0.9878 0.0126
vn -0.1742 0.9636 0.2027
vn -0.3567 0.9184 0.1710
vn -0.2834 0.9579 0.0466
vn -0.5442 -0.5265 0.6532
vn -0.3869 -0.7978 0.4625
vn -0.2306 -0.7097 0.6657
vn -0.2864 -0.6065 0.7417
vn 0.7570 0.5270 0.3864
vn 0.8748 0.1849 0.4478
vn 0.9465 0.2703 0.1761
vn 0.8896 0.4276 0.1603
vn -0.5431 0.0912 0.8347
vn -0.5740 0.0905 0.8138
vn -0.6490 0.0928 0.7551
vn -0.7204 0.0926 0.6874
vn -0.7100 -0.0476 0.7026
vn -0.6545 0.0192 0.7558
vn 0.1133 -0.0034 0.9936
vn 0.1928 -0.1835 0.9639
vn 0.1884 -0.1458 0.9712
vn -0.0041 0.1590 0.9873
vn 0.0015 0.1959 0.9806
vn -0.0796 0.0162 0.9967
vn -0.9975 -0.0569 0.0413
vn -0.9862 -0.1615 0.0352
vn -0.9795 -0.1993 0.0282
vn -0.6842 -0.2718 0.6768
vn -0.6908 -0.4462 0.5689
vn -0.8123 -0.2672 0.5184
vn -0.3611 0.8965 0.2567
vn -0.3950 0.8591 0.3256
vn -0.2483 0.7976 0.5496
vn -0.1120 0.9616 0.2507
vn -0.0184 -0.9724 0.2324
vn -0.3094 -0.9432 0.1208
vn -0.2381 -0.9711 0.0142
vn -0.4297 -0.8815 0.1955
vn -0.3560 -0.9275 0.1138
vn -0.1320 -0.9605 0.2450
vn -0.7423 -0.6701 0.0095
vn -0.7078 -0.6892 0.1547
vn -0.7287 -0.6827 -0.0542
vn -0.7305 -0.6657 0.1521
vn -0.7392 -0.6711 -0.0559
vn -0.7662 -0.6424 -0.0159
vn -0.6192 -0.7852 0.0137
vn -0.9057 -0.4136 -0.0931
vn -0.7693 -0.6388 0.0009
vn -0.6032 -0.7819 0.1574
vn -0.7548 -0.6399 0.1441
vn -0.7043 -0.6989 -0.1244
vn -0.7802 -0.6103 0.1376
vn -0.8108 -0.5834 -0.0475
vn -0.8194 -0.5719 -0.0392
vn -0.8950 -0.4450 0.0302
vn -0.7966 -0.6044 0.0011
vn -0.6819 -0.7275 -0.0761
vn 0.6717 0.0000 -0.7408
vn 0.6368 -0.1639 -0.7534
vn -0.2969 -0.8985 0.3233
vn -0.3660 -0.8600 0.3557
vn -0.2719 -0.9610 0.0507
vn -0.0861 0.9798 0.1807
vn -0.1317 0.9601 0.2468
vn 0.1212 0.9289 0.3500
vn 0.1722 0.9740 0.1469
vn -0.6416 -0.7667 0.0209
vn -0.6673 -0.7448 -0.0042
vn -0.7701 -0.6374 -0.0237
vn -0.7052 -0.7072 -0.0510
vn -0.7335 -0.6795 -0.0178
vn -0.6873 -0.7093 0.1565
vn -0.1260 -0.9469 0.2957
vn -0.1060 -0.9618 0.2526
vn -0.3575 -0.9303 0.0816
vn -0.7543 0.6126 -0.2362
vn -0.8035 0.5807 0.1310
vn -0.4706 0.8316 -0.2948
vn -0.7475 0.6481 0.1456
vn -0.7197 0.6919 -0.0574
vn -0.6863 0.7077 -0.1679
vn -0.7623 0.6472 0.0056
vn -0.8191 0.5737 0.0050
vn -0.7446 0.6674 -0.0134
vn -0.0363 -0.5923 0.8049
vn 0.3024 -0.6055 0.7361
vn 0.0570 -0.5257 0.8487
vn 0.0393 -0.7972 0.6024
vn -0.4488 0.0065 0.8936
vn -0.4490 -0.0902 0.8890
vn -0.3608 -0.0000 0.9327
vn -0.3552 0.0937 0.9301
vn -0.7177 0.6948 -0.0474
vn -0.6988 0.6982 0.1558
vn -0.6010 0.7857 0.1463
vn -0.9124 -0.4086 -0.0227
vn -0.7147 -0.6968 0.0617
vn -0.8222 -0.5692 -0.0055
vn -0.7068 -0.7074 0.0064
vn 0.2469 0.7097 0.6598
vn 0.3032 0.6063 0.7352
vn 0.5592 0.5270 0.6400
vn 0.3973 0.7981 0.4529
vn 0.4022 0.8968 0.1843
vn 0.4787 0.8594 0.1794
vn 0.6009 0.7971 -0.0598
vn 0.5996 0.7976 0.0659
vn -0.5084 0.8545 0.1064
vn -0.4001 0.9165 -0.0024
vn -0.3459 0.9208 0.1801
vn -0.4212 0.8955 0.1441
vn -0.3298 0.9437 0.0262
vn -0.2475 0.9488 0.1962
vn -0.2424 0.9702 0.0068
vn -0.2551 0.9469 0.1955
vn -0.1046 -0.5270 0.8434
vn -0.0754 -0.7981 0.5977
vn 0.1663 -0.7085 0.6858
vn 0.1596 -0.6052 0.7799
vn -0.8379 0.0823 0.5396
vn -0.7835 0.0038 0.6213
vn -0.8245 -0.0964 0.5576
vn -0.8306 -0.0038 0.5569
vn -0.8780 -0.0949 0.4692
vn -0.8871 0.0670 0.4567
vn 0.0108 0.9819 0.1888
vn -0.1706 0.9577 0.2318
vn 0.0600 0.9286 0.3661
vn 0.0262 0.9979 0.0592
vn -0.5423 -0.8248 0.1603
vn -0.8220 -0.5664 0.0595
vn -0.7981 -0.5923 0.1105
vn -0.8886 -0.3648 0.2781
vn -0.8174 -0.5408 0.1984
vn -0.7062 -0.6962 0.1293
vn -0.8191 -0.5439 0.1820
vn -0.7483 -0.6622 0.0394
vn -0.6939 -0.7047 0.1481
vn -0.8663 -0.4861 0.1147
vn -0.7479 -0.6442 0.1601
vn -0.6687 -0.7064 0.2322
vn -0.8109 -0.5533 0.1907
vn -0.8049 -0.5636 0.1858
vn -0.8582 -0.5038 0.0984
vn -0.8247 -0.5649 -0.0272
vn -0.8375 -0.5312 0.1281
vn -0.8211 -0.5706 0.0153
vn -0.6448 -0.7419 0.1839
vn -0.7518 -0.6448 0.1382
vn -0.8626 -0.4578 0.2152
vn -0.8857 -0.4475 0.1239
vn -0.7682 -0.6399 -0.0173
vn -0.9146 -0.4010 -0.0527
vn -0.8421 -0.5277 -0.1116
vn -0.9621 -0.2358 0.1367
vn -0.9152 -0.4019 0.0295
vn -0.9112 -0.3303 0.2462
vn -0.9226 -0.3825 0.0503
vn -0.9914 0.1097 0.0714
vn -0.9914 -0.0269 0.1281
vn -0.9912 0.1133 0.0682
vn -0.9912 -0.0256 0.1298
vn -0.9914 0.1187 0.0551
vn -0.9914 -0.0188 0.1296
vn -0.9913 0.1263 0.0357
vn -0.9913 -0.0073 0.1311
vn -0.9914 0.1311 0.0002
vn -0.9912 0.0099 -0.1321
vn -1.0000 -0.0001 0.0000
vn -0.9124 -0.1913 0.3619
vn -0.8990 -0.3603 0.2489
vn -0.7950 -0.5320 0.2914
vn -0.2059 -0.9778 0.0385
vn -0.2061 -0.9784 0.0164
vn -0.2273 -0.9738 0.0050
vn -0.9022 0.4311 -0.0149
vn -0.8950 0.4454 -0.0245
vn -0.8951 0.4459 0.0000
vn -0.8934 0.4493 0.0000
vn -0.8703 0.4926 0.0001
vn -0.8820 0.4713 -0.0005
vn -0.8990 -0.2150 0.3815
vn -0.8540 -0.3820 0.3532
vn -0.6468 -0.3839 0.6590
vn -0.7903 -0.3066 0.5305
vn -0.8473 0.5015 0.1749
vn -0.8477 0.5304 -0.0000
vn -0.8641 0.4971 0.0787
vn -0.8894 0.4435 0.1106
vn -0.8426 0.5228 0.1290
vn -0.8615 0.5053 0.0495
vn -0.8688 0.4785 0.1272
vn -0.6473 0.6768 0.3506
vn -0.8457 0.5335 0.0109
vn -0.8354 0.5490 -0.0267
vn -0.9015 0.4325 0.0165
vn -0.8510 0.5122 0.1162
vn -0.7427 0.5948 0.3077
vn -0.7218 0.6265 0.2942
vn -0.7813 0.5993 0.1740
vn -0.7125 0.6843 0.1550
vn -0.5562 0.8155 0.1599
vn -0.7253 0.6866 -0.0501
vn -0.8984 0.3606 0.2509
vn -0.8587 0.2749 0.4326
vn -0.7991 0.4384 0.4114
vn 0.9198 -0.1805 0.3483
vn 0.7960 -0.5252 0.3010
vn 0.9200 -0.1829 0.3466
vn 0.8369 -0.1852 0.5152
vn -0.8233 -0.0613 0.5642
vn -0.8867 0.0091 0.4622
vn -0.8297 0.0737 0.5533
vn -0.9011 0.0785 0.4264
vn -0.8471 -0.0477 0.5292
vn -0.8519 0.1207 0.5096
vn -0.9210 -0.0171 0.3891
vn -0.9516 -0.0947 0.2923
vn -0.9605 0.0457 0.2744
vn -0.9789 -0.0601 0.1952
vn -0.9744 -0.0832 0.2087
vn -0.9512 -0.0016 0.3085
vn -0.9506 -0.2580 0.1727
vn -0.7997 -0.5599 0.2167
vn -0.8933 -0.4254 0.1452
vn -0.8949 -0.3556 0.2697
vn -0.8772 -0.4630 0.1275
vn -0.7875 -0.5890 0.1812
vn -0.8188 -0.5194 -0.2446
vn -0.8541 -0.5135 -0.0822
vn -0.8954 -0.4453 0.0074
vn -0.8661 -0.4938 0.0772
vn -0.8167 -0.5583 0.1459
vn -0.9141 -0.3971 -0.0827
vn -0.9271 -0.3666 -0.0777
vn -0.9690 -0.2283 0.0947
vn -0.9520 -0.1862 -0.2430
vn -0.9351 0.3150 0.1626
vn -0.9224 0.3830 0.0503
vn -0.8969 0.4371 -0.0667
vn -0.9023 0.3510 0.2503
vn -0.9299 0.3097 0.1983
vn -0.8901 0.4384 0.1243
vn -0.8056 0.5364 0.2516
vn -0.8615 0.5061 0.0400
vn -0.8921 0.4393 0.1052
vn -0.7960 0.5492 0.2544
vn -0.8846 0.4170 0.2087
vn -0.7640 0.6305 0.1372
vn -0.9511 0.0015 0.3090
vn -0.9511 0.0013 0.3089
vn -0.9512 0.0016 0.3085
vn -0.9176 0.0060 0.3975
vn -0.9072 0.1932 0.3736
vn -0.9489 0.0956 0.3006
vn -0.9290 0.2457 0.2769
vn -0.8819 0.2554 0.3964
vn -0.8904 0.3751 0.2580
vn -0.8992 0.0023 0.4375
vn -0.8571 0.0159 0.5150
vn -0.8592 -0.0106 0.5115
vn -0.8969 -0.4298 0.1042
vn -0.8948 -0.3843 0.2271
vn -0.8943 -0.4467 -0.0252
vn -0.9838 -0.1424 0.1092
vn -0.9783 0.0629 0.1975
vn -0.9821 0.0334 0.1853
vn -0.9513 -0.0004 0.3083
vn -0.9814 0.0383 0.1880
vn -0.9829 0.0064 0.1838
vn -0.9508 0.0006 0.3100
vn -0.9557 -0.1419 -0.2577
vn -0.9881 0.0859 -0.1276
vn -0.9799 -0.0260 -0.1976
vn -0.9838 0.1077 0.1431
vn -0.9690 0.2283 0.0947
vn -0.9396 0.3408 0.0331
vn -0.9566 0.2780 0.0870
vn -0.9567 0.2779 0.0863
vn -0.9318 0.2924 0.2150
vn -0.9817 0.1794 0.0635
vn -0.9853 -0.0642 0.1581
vn -0.9905 0.0622 0.1228
vn -0.8989 0.4249 0.1073
vn -0.8989 0.4251 0.1064
vn -0.8988 0.4251 0.1068
vn -0.9064 0.3968 0.1448
vn -0.9179 0.2981 0.2620
vn -0.9136 0.4066 -0.0085
vn -0.9511 -0.0001 0.3089
vn 0.3296 -0.2719 0.9041
vn 0.2997 -0.4356 0.8487
vn 0.5065 -0.5263 0.6829
vn 0.5864 -0.1842 0.7888
vn 0.7691 -0.5958 -0.2313
vn 0.8821 -0.4360 -0.1785
vn 0.6722 -0.7285 -0.1322
vn -0.9877 0.0185 0.1556
vn -0.9838 0.1424 0.1092
vn -0.9966 0.0821 -0.0062
vn -0.9508 -0.0007 0.3099
vn -0.9830 -0.0185 0.1824
vn -0.9815 -0.0386 0.1876
vn -0.9514 0.0005 0.3080
vn -0.9981 0.0371 0.0491
vn -0.9821 0.1551 0.1068
vn -0.9912 -0.0201 0.1308
vn -0.9816 -0.1501 0.1181
vn -0.9866 -0.0343 0.1596
vn -0.9889 0.0902 0.1177
vn -0.9993 0.0381 -0.0035
vn -0.9905 -0.0622 0.1228
vn -0.9741 -0.1909 0.1215
vn -0.9675 -0.0365 0.2500
s off
f 105/1/1 265/2/2 122/3/2
f 14/4/3 128/5/4 129/6/5 398/7/6
f 330/8/7 79/9/7 59/10/8 277/11/9
f 253/12/10 103/13/11 197/14/12 249/15/13
f 377/16/14 415/17/14 268/18/15 267/19/16
f 377/16/17 416/20/17 415/17/17
f 335/21/18 321/22/18 317/23/18 328/24/18
f 54/25/19 49/26/20 62/27/21 61/28/22
f 16/29/23 33/30/23 130/31/24 131/32/25
f 149/33/26 196/34/27 109/35/27
f 196/34/28 149/33/29 110/36/28
f 404/37/30 403/38/31 420/39/31 410/40/32
f 8/41/33 379/42/34 266/43/35
f 379/42/36 7/44/37 380/45/36
f 379/42/36 380/45/36 6/46/36
f 379/42/36 6/46/36 381/47/36
f 379/42/36 382/48/36 5/49/36
f 379/42/36 5/49/36 383/50/36
f 379/42/36 383/50/36 4/51/36
f 379/42/36 4/51/36 384/52/36
f 379/42/36 384/52/36 3/53/36
f 379/42/36 3/53/36 385/54/36
f 379/42/36 385/54/36 373/55/36
f 379/42/36 373/55/36 421/56/36
f 379/42/36 421/56/36 20/57/36
f 379/42/36 20/57/36 386/58/36
f 379/42/36 386/58/36 19/59/36
f 379/42/36 19/59/36 387/60/36
f 379/42/36 387/60/36 18/61/36
f 379/42/36 17/62/38 388/63/36
f 379/42/36 391/64/36 16/29/36
f 379/42/36 16/29/36 392/65/36
f 379/42/36 393/66/36 15/67/36
f 379/42/36 14/68/39 394/69/36
f 379/42/36 394/69/36 13/70/36
f 379/42/36 13/70/36 12/71/36
f 379/42/36 12/71/36 395/72/36
f 379/42/36 395/72/36 396/73/36
f 379/42/36 396/73/36 374/74/36
f 379/42/36 375/75/36 11/76/36
f 379/42/36 9/77/40 376/78/36
f 392/65/41 16/29/41 131/32/42
f 403/38/43 405/79/43 411/80/44 420/81/45
f 402/82/46 405/79/47 14/4/47
f 405/79/48 403/38/48 14/4/48
f 403/38/49 394/69/49 14/68/50
f 356/83/51 372/84/51 204/85/52
f 370/86/53 380/45/53 7/44/54
f 9/77/55 420/39/56 376/78/56
f 234/87/57 349/88/58 350/89/58 238/90/59
f 50/91/60 4/51/61 383/50/61 45/92/62
f 33/30/63 306/93/63 134/94/64
f 306/93/65 312/95/65 134/94/66
f 391/64/67 34/96/67 16/29/67
f 325/97/68 280/98/69 291/99/69 80/100/69
f 404/37/70 394/69/71 403/38/71
f 404/37/72 13/70/73 394/69/73
f 305/101/74 142/102/75 138/103/76 312/95/74
f 352/104/77 358/105/78 350/89/78
f 352/104/79 350/89/78 349/88/78
f 352/104/80 348/106/78 353/107/78
f 352/104/81 353/107/78 347/108/78
f 352/104/82 345/109/83 354/110/78
f 352/104/84 355/111/78 365/112/78
f 352/104/85 361/113/86 366/114/78
f 352/104/87 367/115/78 360/116/78
f 352/104/88 360/116/78 368/117/78
f 352/104/89 368/117/78 359/118/78
f 352/104/90 359/118/78 369/119/78
f 352/104/91 372/120/78 356/83/78
f 369/119/92 359/118/92 380/45/92
f 359/118/93 6/46/93 380/45/93
f 410/40/94 420/39/95 9/77/96
f 34/96/97 29/121/97 35/122/97
f 34/96/97 35/122/97 28/123/97
f 34/96/97 28/123/97 36/124/97
f 34/96/97 36/124/97 27/125/97
f 34/96/97 27/125/97 32/126/97
f 34/96/97 32/126/97 37/127/97
f 34/96/97 38/128/97 31/129/97
f 34/96/97 31/129/97 39/130/97
f 34/96/97 39/130/97 30/131/97
f 34/96/97 30/131/97 40/132/97
f 34/96/97 40/132/97 303/133/97
f 34/96/97 302/134/98 307/135/97
f 34/96/97 309/136/97 301/137/97
f 34/96/97 301/137/97 310/138/97
f 34/96/97 310/138/97 311/139/97
f 34/96/97 311/139/97 314/140/97
f 34/96/97 313/141/99 304/142/97
f 34/96/97 305/101/97 312/95/97
f 34/96/97 312/95/97 306/93/97
f 28/123/100 35/122/100 391/64/100
f 35/122/101 29/121/101 391/64/101
f 29/121/102 34/96/102 391/64/102
f 395/72/103 12/71/103 404/37/104
f 12/71/105 13/70/105 404/37/106
f 77/143/107 74/144/108 52/145/108 98/146/109
f 112/147/110 199/148/111 245/149/112
f 359/118/113 368/117/113 6/46/113
f 368/117/114 360/116/114 6/46/114
f 360/116/115 367/115/115 6/46/115
f 366/114/116 361/113/117 6/46/116
f 361/113/118 381/47/119 6/46/119
f 11/76/120 375/75/120 410/150/120
f 374/74/121 396/73/121 410/150/121
f 396/73/122 395/72/122 410/40/123
f 37/127/124 32/126/124 390/151/124
f 32/126/125 27/125/125 390/151/125
f 27/125/126 36/124/126 390/151/126
f 36/124/127 28/123/127 390/151/127
f 71/152/128 78/153/128 73/154/129 72/155/130
f 31/129/131 38/128/131 389/156/131
f 169/157/132 102/158/133 120/159/134
f 102/158/135 237/160/136 120/159/137
f 102/158/138 119/161/139 237/160/140
f 119/161/141 101/162/142 237/160/143
f 293/163/144 83/164/145 288/165/146 294/166/147
f 354/167/148 75/168/149 77/169/148 355/111/148
f 352/170/150 357/171/150 258/172/151 254/173/152
f 133/174/153 107/175/154 409/176/153 397/177/153
f 40/132/155 30/131/155 388/63/155
f 30/131/156 39/130/156 388/63/156
f 39/130/157 31/129/157 388/178/157
f 435/179/158 436/180/158 322/181/159 323/182/160
f 413/183/161 419/184/162 401/185/161 407/186/161
f 121/187/163 197/188/164 103/189/164 149/33/165
f 22/190/166 46/191/166 5/49/166
f 52/145/167 97/192/167 5/49/167
f 97/192/168 74/144/168 5/49/168
f 74/144/169 22/190/169 5/49/169
f 303/133/170 40/132/170 26/193/170 58/194/170
f 98/195/171 52/145/171 23/196/171
f 347/108/172 353/107/172 226/197/173 222/198/174
f 74/144/175 97/192/175 52/145/175
f 298/199/176 87/200/176 17/62/177
f 87/200/178 47/201/178 17/62/179
f 397/177/180 409/176/180 414/202/180 408/203/180
f 74/144/181 46/191/181 22/190/181
f 96/204/182 73/205/182 46/191/182
f 74/144/183 96/204/183 46/191/183
f 95/206/184 383/50/184 51/207/185
f 73/205/186 95/206/186 51/207/187
f 1/208/188 45/209/188 383/50/188
f 299/210/189 302/134/190 303/211/191 86/212/192
f 95/206/193 1/208/193 383/50/193
f 51/207/194 383/50/195 5/49/195 46/213/196
f 321/22/18 319/214/18 316/215/18 317/23/18
f 57/216/197 48/217/197 18/61/197
f 48/217/198 85/218/198 18/61/198
f 88/219/199 298/199/200 25/220/201
f 23/196/202 365/221/203 355/222/202 98/195/202
f 47/201/204 87/200/204 298/199/204
f 58/194/205 26/193/205 47/201/205
f 58/194/206 86/212/206 303/133/206
f 430/223/207 43/224/208 386/58/208 437/225/208
f 353/107/209 348/106/209 230/226/210 226/197/211
f 94/227/212 45/209/213 1/208/213
f 53/228/214 4/51/214 50/91/215
f 350/89/216 358/105/216 242/229/217 238/90/218
f 21/230/219 64/231/219 4/51/219
f 64/231/220 44/232/220 4/51/220
f 52/145/221 5/49/221 382/48/221 23/196/221
f 53/228/222 68/233/222 4/51/222
f 68/233/223 21/230/223 4/51/223
f 208/234/224 71/152/224 72/155/225
f 345/109/226 75/168/227 354/167/228
f 345/109/229 211/235/230 75/168/231
f 211/235/232 208/234/232 75/168/233
f 19/59/234 42/236/234 387/60/234
f 42/236/235 289/237/235 387/60/235
f 289/237/236 56/238/236 387/60/236
f 56/238/237 288/239/237 387/60/237
f 288/239/238 83/164/238 387/60/238
f 84/240/239 41/241/240 387/60/240
f 89/242/241 57/216/241 41/241/241
f 85/218/242 48/217/242 57/216/242
f 190/243/243 300/244/244 287/245/243
f 358/105/245 351/246/246 246/247/247 242/229/248
f 299/210/249 307/135/250 302/134/251
f 116/248/252 202/249/253 221/250/254
f 86/212/255 58/194/255 47/201/255 298/251/256
f 272/252/257 274/253/257 66/254/258
f 274/253/259 275/255/259 64/256/260
f 93/257/261 44/232/261 64/231/261
f 93/257/262 63/258/263 44/232/262
f 2/259/264 24/260/264 384/52/264
f 24/260/265 443/261/265 384/52/265
f 443/261/266 3/53/266 384/52/266
f 49/26/267 54/25/268 384/52/268
f 54/25/269 2/259/269 384/52/269
f 270/262/270 67/263/271 208/264/272
f 386/58/273 43/224/273 19/59/273
f 43/224/274 82/265/274 19/59/274
f 82/265/275 55/266/275 19/59/275
f 55/266/276 290/267/276 19/59/276
f 290/267/277 42/236/277 19/59/277
f 290/267/278 90/268/278 42/236/278
f 90/268/279 289/237/279 42/236/279
f 283/269/280 284/270/280 289/271/281
f 293/163/282 285/272/283 190/273/284
f 186/274/285 307/135/286 299/210/287
f 202/249/288 116/248/289 126/275/290
f 185/276/291 117/277/292 202/249/292
f 160/278/293 112/279/294 157/280/295 156/281/296
f 344/282/297 269/283/297 272/284/298
f 269/283/299 344/282/299 274/253/299
f 344/282/300 343/285/300 274/253/300
f 343/285/301 275/255/301 274/253/301
f 343/285/302 276/286/302 275/255/302
f 276/286/303 70/287/303 275/255/303
f 69/288/304 63/258/305 275/255/306
f 41/241/307 57/216/307 18/61/307 387/60/307
f 54/25/308 61/28/309 2/259/308
f 61/28/310 24/260/311 2/259/311
f 92/289/312 443/261/312 24/260/312
f 61/28/313 92/289/314 24/260/314
f 92/289/315 60/290/315 443/261/315
f 444/291/316 446/292/316 423/293/316
f 444/291/316 423/293/316 447/294/316
f 444/291/316 447/294/316 422/295/316
f 444/291/316 422/295/316 436/180/316
f 444/291/316 436/180/316 435/179/316
f 444/291/316 430/223/317 437/225/316
f 444/291/316 437/225/316 429/296/316
f 444/291/316 429/296/316 438/297/316
f 444/291/316 438/297/316 428/298/316
f 444/291/316 428/298/316 439/299/316
f 444/291/316 439/299/316 427/300/316
f 444/291/316 427/300/316 426/301/316
f 444/291/316 425/302/318 440/303/316
f 444/291/316 441/304/316 424/305/316
f 444/291/316 424/305/316 442/306/316
f 442/306/319 424/305/319 3/53/319
f 424/305/320 441/304/320 3/53/320
f 441/304/321 385/54/321 3/53/321
f 344/282/322 271/307/323 209/308/324
f 20/57/325 438/297/325 386/58/325
f 438/297/326 429/296/326 386/58/326
f 429/296/327 437/225/327 386/58/327
f 365/221/328 23/196/329 382/48/329 364/309/330
f 430/223/331 91/310/332 43/224/332
f 290/267/333 55/266/333 82/265/333
f 281/311/334 341/312/335 283/269/335
f 341/312/336 284/270/336 283/269/336
f 296/313/337 282/314/338 283/269/339
f 341/312/340 286/315/340 284/270/340
f 285/316/341 294/166/342 284/270/343
f 286/317/344 342/318/345 191/319/346
f 203/320/347 117/277/348 185/276/349
f 193/321/350 203/320/351 185/276/352
f 193/321/353 195/322/354 203/320/355
f 195/322/356 99/323/356 203/320/357
f 99/323/358 319/214/358 203/320/359
f 210/324/360 343/285/361 344/282/361
f 329/325/362 277/326/363 343/285/363
f 210/324/364 340/327/365 343/285/365
f 340/327/366 339/328/366 343/285/366
f 339/328/18 330/329/367 343/285/18
f 372/84/368 7/330/368 205/331/369 204/85/370
f 79/9/371 444/291/371 59/10/372
f 79/9/373 330/8/373 444/291/373
f 330/8/374 334/332/374 444/291/374
f 440/303/375 425/302/376 385/54/375
f 425/302/377 373/55/378 385/54/378
f 319/214/379 320/333/379 210/324/380
f 320/333/381 339/328/381 210/324/382
f 339/328/383 340/327/383 210/324/384
f 421/56/385 439/299/385 20/57/385
f 439/299/386 428/298/386 20/57/386
f 428/298/387 438/297/387 20/57/387
f 291/99/388 297/334/388 430/223/389
f 297/334/390 91/335/391 430/223/392
f 291/99/393 280/98/393 297/334/393
f 279/336/394 282/337/395 297/334/395
f 279/336/396 341/312/397 281/311/398
f 342/318/399 286/317/400 341/312/399
f 279/336/401 324/338/402 341/312/402
f 325/97/403 336/339/18 341/312/18
f 336/339/404 337/340/404 341/312/404
f 337/340/405 118/341/405 341/312/405
f 189/342/406 342/318/407 341/312/407
f 337/340/408 338/343/408 118/341/408
f 338/343/409 336/339/409 118/341/409
f 336/339/410 315/344/410 118/341/410
f 315/344/411 318/345/411 118/341/411
f 318/345/412 316/215/412 118/341/412
f 316/215/413 194/346/413 118/347/414
f 409/176/415 107/175/416 268/18/417 415/17/415
f 99/323/418 195/322/418 193/321/419
f 78/348/420 65/349/421 50/91/422 45/92/423
f 321/22/424 339/328/424 319/214/424
f 339/328/18 320/333/18 319/214/18
f 339/328/18 335/21/18 330/329/425
f 335/21/18 328/24/18 325/350/18
f 335/21/18 325/350/18 330/329/426
f 325/350/427 322/351/427 333/352/427
f 325/350/427 333/352/427 330/329/428
f 333/352/427 334/332/427 330/8/427
f 321/22/18 335/21/18 339/328/18
f 331/353/429 446/292/430 334/332/430
f 426/301/431 427/300/431 421/56/431
f 426/301/431 421/56/431 373/55/431
f 427/300/432 439/299/432 421/56/432
f 325/97/433 80/100/434 431/354/435
f 80/100/436 291/99/436 431/354/437
f 328/24/18 336/339/18 325/97/438
f 317/23/439 316/215/439 336/339/439
f 316/215/18 315/344/18 336/339/18
f 338/343/440 337/340/440 336/339/440
f 328/24/18 317/23/18 336/339/18
f 316/215/441 318/345/441 315/344/441
f 322/351/442 278/355/442 333/352/442
f 278/355/443 422/295/443 333/352/443
f 331/353/444 423/293/445 446/292/445
f 316/215/446 319/214/446 99/323/446 193/321/447
f 436/180/448 278/355/448 322/351/448
f 436/180/449 422/295/449 278/355/449
f 204/85/450 205/331/451 262/356/452
f 262/356/452 205/331/451 263/357/453
f 254/173/454 255/358/455 250/359/456
f 250/359/456 255/358/455 251/360/457
f 246/247/458 247/361/459 242/229/460
f 242/229/460 247/361/459 243/362/461
f 238/90/462 239/363/463 234/87/464
f 234/87/464 239/363/463 235/364/465
f 241/365/466 240/366/467 245/149/468
f 245/149/469 240/366/467 244/367/470
f 249/15/471 248/368/472 253/12/473
f 253/12/473 248/368/472 252/369/474
f 253/12/475 252/369/474 257/370/476
f 257/370/476 252/369/474 256/371/477
f 265/372/478 264/373/479 207/374/480
f 207/374/481 264/373/479 206/375/482
f 207/374/481 206/375/483 268/18/484
f 268/18/485 206/375/482 267/19/486
f 199/376/487 237/160/488 241/365/466
f 197/14/489 245/149/469 249/15/490
f 162/377/491 163/378/492 158/379/493
f 158/379/494 163/378/495 159/380/496
f 150/381/497 151/382/498 146/383/499
f 146/383/499 151/382/500 147/384/501
f 142/102/502 143/385/503 138/103/504
f 138/103/505 143/385/506 139/386/507
f 159/380/496 160/278/508 155/387/509
f 155/387/509 160/278/508 156/281/510
f 147/384/501 148/388/511 143/385/503
f 143/385/503 148/388/511 144/389/512
f 143/385/506 144/389/512 139/386/513
f 139/386/507 144/389/512 140/390/514
f 139/386/507 140/390/515 135/391/516
f 135/391/516 140/390/515 136/392/517
f 135/391/516 136/392/517 131/32/518
f 131/32/518 136/392/517 132/393/519
f 133/394/520 132/393/521 137/395/522
f 137/395/523 132/393/519 136/392/517
f 137/395/523 136/392/517 141/396/524
f 141/396/524 136/392/517 140/390/525
f 149/33/526 148/388/527 153/397/528
f 153/397/528 148/388/529 152/398/530
f 153/397/528 152/398/531 157/280/532
f 157/280/533 152/398/531 156/281/510
f 122/399/534 133/394/535 137/395/523
f 121/187/536 149/33/526 153/397/528
f 109/400/537 104/401/538 108/402/539
f 266/43/540 267/19/541 205/331/451
f 205/331/451 267/19/486 206/375/482
f 259/403/542 260/404/543 255/358/455
f 255/358/455 260/404/543 256/371/477
f 247/361/459 248/368/472 243/362/461
f 243/362/461 248/368/472 244/367/470
f 243/362/461 244/367/470 239/363/463
f 239/363/463 244/367/470 240/366/467
f 237/160/488 233/405/544 232/406/545
f 237/160/546 232/406/545 236/407/547
f 227/408/548 228/409/549 223/410/550
f 223/410/550 228/409/551 224/411/552
f 219/412/553 220/413/554 216/414/555
f 216/414/556 220/413/554 217/415/557
f 212/416/558 213/417/559 208/264/560
f 208/264/561 213/417/562 209/308/563
f 226/197/564 227/408/548 222/198/565
f 222/198/565 227/408/548 223/410/550
f 222/198/565 223/410/566 218/418/567
f 218/418/567 223/410/550 219/412/553
f 215/419/568 216/414/555 211/420/569
f 211/420/570 216/414/555 212/416/558
f 210/324/571 209/308/563 214/421/572
f 214/421/573 209/308/563 213/417/559
f 221/250/574 217/415/557 220/413/554
f 203/320/575 210/324/576 214/421/573
f 203/320/575 214/421/573 202/422/577
f 201/423/578 221/250/574 225/424/579
f 182/425/580 183/426/581 123/427/582
f 123/427/582 183/426/583 124/428/584
f 123/427/585 124/428/584 178/429/586
f 178/429/587 124/428/584 179/430/588
f 174/431/589 175/432/590 170/433/591
f 170/433/591 175/432/590 171/434/592
f 170/433/591 171/434/592 166/435/593
f 166/435/593 171/434/592 167/436/594
f 187/437/595 188/438/596 183/426/597
f 183/426/581 188/438/596 184/439/598
f 179/430/588 180/440/599 175/432/590
f 175/432/590 180/440/599 176/441/600
f 171/434/592 172/442/601 167/436/602
f 167/436/594 172/442/601 168/443/603
f 118/347/604 185/276/605 189/342/606
f 173/444/607 172/442/601 177/445/608
f 177/445/608 172/442/601 176/441/609
f 177/445/608 176/441/600 181/446/610
f 181/446/611 176/441/600 180/440/599
f 126/275/612 125/447/613 185/276/605
f 185/276/614 125/447/615 184/439/598
f 189/342/606 188/438/596 192/448/616
f 192/448/617 188/438/596 191/319/618
f 400/449/619 398/7/620 399/450/621
f 418/451/622 411/80/623 412/452/624
f 418/451/622 412/452/625 419/184/626
f 417/453/627 413/454/628 414/455/629
f 415/456/630 417/453/631 414/455/629
f 418/451/622 419/184/632 416/457/633
f 416/457/633 419/184/632 417/453/631
f 85/458/634 89/459/635 84/240/636
f 295/460/637 289/271/638 290/461/639
f 289/271/638 294/166/640 288/165/641
f 78/348/642 94/227/643 95/462/644
f 65/463/645 67/464/646 66/254/647
f 18/465/648 25/220/649 17/62/650
f 62/27/651 70/466/652 61/28/653
f 61/28/654 70/466/655 60/467/656
f 72/155/657 73/154/658 74/468/659 76/469/660
f 84/240/661 292/470/662 287/245/663 85/218/663
f 265/372/664 207/374/665 106/471/666
f 207/374/667 268/18/668 106/471/669
f 268/18/670 107/175/671 106/472/672
f 107/175/673 133/174/674 106/472/675
f 165/473/676 120/159/677 112/279/678 161/474/679
f 108/402/680 105/1/681 122/399/682
f 105/1/683 108/402/684 265/2/685
f 108/402/686 261/475/687 265/372/688
f 145/476/689 144/389/690 148/388/691 149/33/692
f 301/137/693 174/431/694 170/433/695 310/138/693
f 260/404/696 264/373/697 265/372/698 261/475/699
f 397/477/700 398/7/701 133/174/702
f 398/7/703 129/6/704 133/394/705
f 104/401/706 261/475/707 108/402/708
f 104/401/709 109/400/710 261/475/711
f 109/400/712 257/370/713 261/475/714
f 181/446/715 180/440/716 125/447/717 126/275/718
f 188/438/719 187/437/720 190/273/721 191/319/722
f 163/378/723 164/478/724 160/278/725 159/380/726
f 416/457/727 417/453/728 415/456/729
f 414/455/730 409/176/731 415/17/731
f 259/403/732 263/357/733 264/373/734 260/404/735
f 400/449/736 14/4/737 398/7/738
f 237/160/739 236/407/740 240/366/741 241/365/742
f 145/476/743 149/33/744 109/35/745
f 196/479/746 257/370/747 109/400/748
f 196/34/749 110/36/749 257/370/750
f 110/480/751 103/13/752 257/370/753
f 103/13/754 253/12/755 257/370/756
f 239/363/757 238/90/758 242/229/759 243/362/760
f 7/44/761 8/41/762 205/331/763
f 8/41/764 266/43/765 205/331/766
f 379/481/767 378/482/767 266/43/768
f 379/42/36 8/41/769 7/44/770
f 379/42/36 381/47/36 382/48/36
f 379/42/36 18/61/36 17/62/771
f 379/42/36 388/63/36 389/156/36
f 379/42/36 389/156/36 390/151/36
f 379/42/36 390/151/36 391/64/36
f 379/42/36 392/65/36 393/66/36
f 379/42/36 15/67/36 14/68/772
f 379/42/36 374/74/36 375/75/36
f 379/42/36 11/76/36 10/483/773
f 379/42/36 10/483/774 9/77/775
f 379/42/36 376/78/36 377/16/36
f 379/42/36 377/16/36 378/482/36
f 376/484/776 416/20/776 377/16/776
f 419/184/777 413/454/778 417/453/779
f 376/484/780 418/451/781 416/457/782
f 225/424/783 224/411/784 228/409/785 229/485/786
f 14/68/787 15/486/788 128/5/789
f 310/138/790 170/433/791 166/435/792 311/139/790
f 216/414/793 215/419/794 218/418/795 219/412/796
f 127/487/797 392/65/798 131/32/799
f 26/488/800 40/132/801 388/63/801 17/62/802
f 407/489/803 399/450/804 408/203/805
f 407/186/806 400/490/806 399/450/807
f 402/82/808 14/4/809 400/449/810
f 158/379/811 159/380/812 155/387/813 154/491/814
f 185/276/815 184/439/816 188/438/817 189/342/818
f 133/394/819 122/3/820 265/2/820 106/471/820
f 103/13/821 110/480/822 149/33/823
f 164/478/824 163/378/825 167/436/826 168/443/827
f 86/212/828 298/251/829 300/244/830 299/210/831
f 124/428/832 125/447/833 180/440/834 179/430/835
f 183/426/836 182/425/837 186/274/838 187/437/839
f 258/172/840 357/171/841 262/356/842
f 357/492/843 356/83/843 262/356/844
f 356/83/845 204/85/846 262/356/847
f 372/120/848 371/493/848 7/330/848
f 371/493/849 370/86/849 7/330/849
f 420/81/850 411/80/851 376/78/852
f 411/80/853 418/451/854 376/484/855
f 393/66/856 392/494/856 127/487/857
f 33/30/858 134/94/859 130/31/860
f 312/95/861 138/103/862 134/94/863
f 34/495/864 33/496/864 16/29/864
f 406/497/865 402/82/866 401/498/867
f 406/499/868 405/500/869 402/82/870
f 127/487/871 131/32/872 132/393/873 128/5/874
f 351/246/875 352/104/876 250/359/877 246/247/878
f 218/418/879 346/501/880 347/108/881 222/198/882
f 293/163/883 292/470/884 84/240/885 83/502/886
f 251/360/887 255/358/888 256/371/889 252/369/890
f 114/503/891 113/504/892 173/444/893 177/445/894
f 120/159/895 237/160/896 199/148/897 112/147/898
f 408/505/899 414/202/900 413/183/900 407/489/901
f 234/87/902 235/364/903 231/506/904 230/226/905
f 304/507/906 150/381/907 146/383/908 305/101/906
f 352/170/909 254/173/910 250/359/911
f 352/104/912 351/246/913 358/105/78
f 352/104/914 349/88/78 348/106/78
f 352/104/915 347/108/78 346/501/916
f 352/104/917 346/501/918 345/109/919
f 352/104/920 354/110/78 355/111/78
f 352/104/921 365/112/78 364/309/922
f 352/104/923 364/309/924 363/508/925
f 352/104/926 363/508/927 362/509/928
f 352/104/929 362/509/930 361/113/931
f 352/104/932 366/114/78 367/115/78
f 352/104/933 369/119/78 370/86/78
f 352/104/934 370/86/78 371/493/78
f 352/104/935 371/493/78 372/120/78
f 352/104/936 356/83/78 357/492/78
f 369/510/937 380/45/937 370/86/937
f 10/483/938 410/150/939 9/77/940
f 34/96/97 37/127/97 38/128/97
f 34/96/97 303/133/97 302/134/941
f 34/96/97 307/135/97 308/511/97
f 34/96/97 308/511/97 309/136/97
f 34/96/97 314/140/97 313/141/942
f 34/96/97 304/142/97 305/101/97
f 34/96/97 306/93/97 33/30/97
f 390/151/943 28/123/943 391/64/943
f 410/40/944 395/72/945 404/37/946
f 305/101/947 146/383/948 142/102/949
f 258/172/950 262/356/951 263/357/952 259/403/953
f 411/80/954 405/500/955 406/497/956 412/512/956
f 154/491/957 155/387/958 151/382/959 150/381/960
f 112/147/961 111/513/962 157/514/963
f 198/515/964 245/149/965 111/516/966
f 112/147/967 198/515/968 111/516/969
f 198/515/970 112/147/971 245/149/972
f 199/376/973 241/365/974 245/149/975
f 247/361/976 246/247/977 250/359/978 251/360/979
f 313/141/980 154/491/981 150/381/982 304/142/983
f 367/115/984 366/517/984 6/46/984
f 11/518/985 410/150/986 10/483/987
f 375/75/988 374/519/988 410/150/988
f 389/156/989 37/127/989 390/151/989
f 227/408/990 226/197/991 230/226/992 231/506/993
f 313/141/994 158/379/995 154/491/996
f 161/474/997 112/279/998 160/278/999
f 213/417/1000 212/416/1001 216/414/1002 217/415/1003
f 132/393/1004 133/394/1005 129/6/1006 128/5/1007
f 229/485/1008 200/520/1009 201/423/1010 225/424/1011
f 115/521/1012 221/250/1013 201/423/1014 114/503/1015
f 168/443/1016 169/157/1017 165/473/1018 164/478/1019
f 247/361/1020 251/360/1021 252/369/1022 248/368/1023
f 286/317/1024 191/319/1025 190/273/1026 285/272/1027
f 361/113/1028 362/509/1029 381/47/1030
f 362/509/1031 363/508/1032 381/47/1033
f 363/508/1034 382/48/1035 381/522/1035
f 388/178/1036 31/129/1036 389/156/1036
f 38/128/1037 37/523/1037 389/156/1037
f 66/254/1038 68/524/1039 53/228/1040 50/91/1041
f 138/103/1042 139/386/1043 135/391/1044 134/94/1045
f 297/525/1046 296/313/1047 82/526/1048 81/527/1049
f 229/485/1050 228/409/1051 232/406/1052 233/405/1053
f 169/157/1054 120/159/1055 165/473/1056
f 102/158/1057 169/157/1058 119/161/1059
f 101/162/1060 233/405/1061 237/160/1062
f 175/432/1063 176/441/1064 172/442/1065 171/434/1066
f 254/173/1067 258/172/1068 259/403/1069 255/358/1070
f 363/508/1071 364/309/1072 382/48/1073
f 393/66/1074 127/487/1075 128/5/1076 15/67/1074
f 228/409/1077 227/408/1078 231/506/1079 232/406/1080
f 173/444/1081 113/528/1082 169/157/1083
f 101/162/1084 119/161/1085 169/157/1086
f 287/245/1087 300/244/1088 298/199/1087 85/218/1087
f 169/157/1089 168/443/1090 172/442/1091 173/444/1092
f 125/447/615 124/428/1093 183/426/1094 184/439/1095
f 146/383/1096 147/384/1097 143/385/1098 142/102/1099
f 408/203/1100 399/450/1101 398/7/1102 397/477/1103
f 49/26/1104 384/52/1105 4/51/1105 44/232/1105
f 25/220/1106 298/199/1107 17/62/1108
f 47/201/1109 26/488/1110 17/62/1111
f 401/498/1112 402/82/1113 400/490/1114 407/186/1114
f 67/464/1115 65/463/1116 78/153/1117 71/529/1118
f 151/382/1119 152/398/1120 148/388/1121 147/384/1122
f 111/516/1123 245/149/1124 197/188/1123 121/187/1125
f 114/503/1126 177/445/1127 181/530/1128 115/521/1129
f 224/411/1130 225/424/1131 221/250/1132 220/413/1133
f 309/136/1134 178/429/1135 174/431/1136 301/137/1134
f 73/205/1137 51/207/1138 46/213/1139
f 108/531/1140 122/399/1141 137/395/1142 141/396/1143
f 200/520/1144 229/485/1145 233/405/1146 101/162/1147
f 73/205/1148 96/204/1148 74/144/1148
f 77/143/1149 98/146/1150 355/222/1151
f 85/218/1152 25/220/1153 18/465/1154
f 85/458/1155 88/219/1156 25/220/1157
f 109/35/1158 108/402/1159 141/396/1160 145/476/1161
f 76/469/1162 74/468/1163 77/169/1164 75/168/1165
f 88/219/1166 85/458/634 298/199/1167
f 348/106/1168 349/532/1168 234/87/1169 230/226/1170
f 166/435/1171 167/436/1172 163/378/1173 162/377/1174
f 121/533/1175 153/397/1176 157/514/1175 111/516/1175
f 113/504/1177 200/534/1178 101/535/1179 169/157/1180
f 161/474/1181 160/278/1182 164/478/1183 165/473/1184
f 205/331/1185 206/375/1186 264/373/1187 263/357/1188
f 78/348/1189 95/462/1190 73/205/1191
f 94/227/1192 1/208/1193 95/206/1193
f 94/227/1194 78/348/1195 45/209/1196
f 187/437/1197 186/274/1198 299/210/1199 300/244/1200
f 65/463/1201 66/254/1202 50/91/1203
f 75/168/1204 208/234/1205 76/469/1206
f 208/234/1207 72/155/1208 76/469/1209
f 83/502/1210 84/240/1211 387/60/1212
f 84/240/1213 89/459/1214 41/241/1215
f 89/459/635 85/458/634 57/216/1216
f 209/308/1217 271/307/1218 272/252/1219 208/264/1220
f 292/470/1221 190/243/1222 287/536/1223
f 190/273/1224 187/437/1225 300/244/1226
f 309/136/1227 308/511/1227 178/429/1228
f 308/511/1229 123/427/1230 178/429/1231
f 220/413/1232 219/412/1233 223/410/1234 224/411/1235
f 144/389/1236 145/476/1237 141/396/1238 140/390/1239
f 126/275/1240 115/521/1241 181/530/1242
f 126/275/1243 100/537/1244 115/521/1245
f 100/537/1246 221/250/1247 115/521/1248
f 100/537/1249 126/275/1250 116/248/1251
f 100/537/1252 116/248/1253 221/250/1254
f 202/249/1255 217/415/1256 221/250/1257
f 178/429/1258 179/430/1259 175/432/1260 174/431/1261
f 215/419/1262 346/501/1263 218/418/1264
f 215/419/1265 345/109/1266 346/501/1267
f 67/464/1268 272/252/1269 66/254/1270
f 274/253/1271 68/524/1272 66/254/1273
f 68/524/1274 64/256/1275 21/230/1276
f 68/524/1277 274/253/1278 64/256/1279
f 275/255/1280 63/258/1281 64/256/1282
f 63/258/1283 93/257/1284 64/256/1285
f 401/185/1286 419/184/1287 412/512/1286 406/497/1286
f 211/420/1288 212/416/1289 208/264/1290
f 314/538/1291 162/377/1292 158/379/1293 313/141/1294
f 272/284/1295 270/262/1296 208/264/1297
f 67/464/1298 71/529/1299 208/234/1300
f 215/419/1301 211/420/1302 345/109/1303
f 295/460/1304 283/269/1305 289/271/1306
f 284/270/1307 294/166/1308 289/271/1309
f 288/239/1310 56/238/1310 289/237/1310
f 90/268/1311 290/267/1311 289/271/1312
f 239/363/1313 240/366/1314 236/407/1315 235/364/1316
f 114/503/1317 201/423/1318 200/534/1319 113/504/1320
f 293/163/1321 190/243/1322 292/470/1323
f 62/27/1324 49/26/1325 44/232/1326 63/258/1327
f 155/387/1328 156/281/1329 152/398/1330 151/382/1331
f 134/94/1332 135/391/1333 131/32/1334 130/31/1335
f 186/274/1336 182/425/1337 307/135/1338
f 182/425/1339 123/427/1340 307/135/1341
f 123/427/1342 308/511/1343 307/539/1343
f 232/406/1344 231/506/1345 235/364/1346 236/407/1347
f 185/276/1348 202/249/1349 126/275/1350
f 117/277/1351 203/320/1352 202/422/1353
f 311/139/1354 166/435/1355 162/377/1356 314/538/1357
f 270/262/1358 272/284/1359 67/464/1360
f 271/307/1361 344/282/1362 272/284/1363
f 269/540/1364 273/541/1365 272/284/1366
f 273/541/1367 274/253/1368 272/252/1368
f 273/541/1369 269/540/1370 274/253/1371
f 70/466/1372 62/27/1373 275/255/1374
f 62/27/1375 69/288/1376 275/255/1377
f 69/288/1378 62/27/1379 63/258/1380
f 442/542/1381 3/53/1381 443/261/1381
f 60/467/1382 59/10/1383 443/261/1384
f 59/10/1385 444/291/1386 443/543/1386
f 444/291/316 445/544/316 446/292/316
f 444/291/316 435/179/316 434/545/1387
f 444/291/316 434/545/1388 433/546/1389
f 444/291/316 433/546/1390 432/547/1391
f 444/291/316 432/547/1392 431/354/1393
f 444/291/316 431/354/1394 430/223/1395
f 444/291/316 426/301/316 425/302/1396
f 444/291/316 440/303/316 441/304/316
f 444/291/1397 442/306/1397 443/543/1397
f 210/324/1398 344/282/1399 209/308/1400
f 91/335/1401 297/334/1402 81/527/1403
f 91/335/1404 81/527/1405 43/224/1406
f 81/527/1407 82/526/1408 43/224/1409
f 214/421/1410 213/417/1411 217/415/1412 202/249/1413
f 296/313/1414 290/461/1415 82/526/1416
f 296/313/1417 283/269/1418 290/461/1419
f 283/269/1420 295/460/1421 290/461/1422
f 282/314/1423 281/311/1424 283/269/1425
f 286/317/1426 285/316/1427 284/270/1428
f 285/272/1429 293/163/1430 294/166/1431
f 342/318/1432 192/448/1433 191/319/1434
f 256/371/1435 260/404/1436 261/475/1437 257/370/1438
f 118/347/1439 194/346/1440 185/276/1441
f 194/548/1442 193/321/1443 185/276/1444
f 319/214/1445 210/324/1446 203/320/1447
f 330/329/1448 329/325/1449 343/285/1450
f 277/11/1451 276/549/1452 343/285/1453
f 277/11/1454 70/287/1455 276/286/1455
f 277/11/1456 60/467/1457 70/466/1458
f 60/290/1459 92/289/1459 61/28/1460
f 277/11/1461 59/10/1462 60/467/1463
f 334/332/1464 445/544/1464 444/291/1464
f 441/304/1465 440/550/1465 385/54/1465
f 431/354/1466 291/99/1467 430/223/1468
f 280/551/1469 279/336/1470 297/334/1471
f 282/314/1472 296/313/1473 297/525/1474
f 279/336/1475 281/311/1476 282/314/1477
f 324/552/1478 325/97/1479 341/312/1480
f 118/347/1481 189/342/1482 341/312/1483
f 342/318/1484 189/342/1485 192/448/1486
f 316/215/1487 193/321/1488 194/548/1489
f 277/326/1490 329/325/1491 330/329/1492
f 334/332/1493 446/292/1493 445/544/1493
f 333/553/1494 332/554/1495 334/332/1496
f 332/554/1497 331/353/1498 334/332/1499
f 425/302/1500 426/555/1501 373/55/1502
f 432/547/1503 326/556/1504 431/354/1505
f 326/557/1506 325/97/1507 431/354/1508
f 434/545/1509 435/558/1510 323/559/1511 327/560/1511
f 325/97/1512 324/552/1513 280/98/1514
f 324/338/1515 279/336/1516 280/551/1517
f 326/557/1518 322/351/427 325/350/427
f 245/149/1519 244/367/1520 248/368/1521 249/15/1522
f 378/482/1523 377/16/1523 267/19/1524 266/43/1525
f 433/546/1526 326/556/1527 432/547/1528
f 327/560/1529 323/559/1529 326/557/1529
f 323/182/1530 322/181/1531 326/557/1532
f 433/546/1533 327/560/1534 326/557/1534
f 447/294/1535 332/554/1536 333/352/1535 422/295/1535
f 434/545/1537 327/560/1538 433/546/1539
f 423/293/1540 331/353/1541 332/554/1542 447/294/1540
