# Blender v3.3.21 OBJ File: 'nex10.blend'
# www.blender.org
v -0.173450 -0.048975 0.141975
v -0.173450 -0.050000 0.139500
v -0.173450 -0.049881 0.140406
v -0.173450 -0.049531 0.141250
v -0.173450 -0.048250 0.142531
v -0.173450 -0.047406 0.142881
v -0.173450 -0.046500 0.143000
v -0.173450 0.049531 0.141250
v -0.173450 0.048975 0.141975
v -0.173450 0.048250 0.142531
v -0.173450 -0.049881 0.015594
v -0.173450 -0.049531 0.014750
v -0.173450 -0.048250 0.013469
v -0.173450 -0.047406 0.013120
v -0.173450 -0.050000 0.016500
v -0.173450 -0.046500 0.013000
v -0.173450 -0.048975 0.014025
v -0.173450 0.046500 0.013000
v -0.173450 0.047406 0.013119
v -0.173450 0.049880 0.015594
v -0.173450 0.050000 0.016500
v -0.173450 0.049531 0.014750
v -0.173450 0.048975 0.014025
v -0.173450 0.048250 0.013469
v -0.196504 0.042553 0.104548
v -0.196342 0.042662 0.104577
v -0.196429 0.042615 0.104561
v -0.196425 0.042618 0.108025
v -0.196504 0.042553 0.108025
v -0.196268 0.042665 0.108318
v -0.196483 0.042553 0.108210
v -0.202150 -0.007000 0.128000
v -0.202650 -0.007000 0.127500
v -0.202650 0.032400 0.127500
v -0.202650 0.032818 0.127473
v -0.202650 0.034348 0.126839
v -0.202650 0.034663 0.126563
v -0.202650 0.034939 0.126248
v -0.202650 0.035171 0.125900
v -0.202650 0.035356 0.125525
v -0.202650 0.035573 0.124718
v -0.202650 0.035356 0.065475
v -0.202650 0.034663 0.064437
v -0.202650 0.034000 0.063929
v -0.202650 0.033624 0.063744
v -0.202650 0.033228 0.063609
v -0.202650 0.032817 0.063527
v -0.202650 0.032400 0.063500
v -0.202650 -0.007828 0.063609
v -0.202650 -0.008225 0.063744
v -0.202650 -0.008948 0.064161
v -0.202650 -0.009263 0.064437
v -0.202650 -0.010091 0.065872
v -0.202650 -0.010173 0.066282
v -0.202650 -0.010173 0.124718
v -0.202650 -0.007828 0.127391
v -0.202650 -0.010200 0.124300
v -0.202650 -0.007418 0.127473
v -0.202650 -0.008225 0.127257
v -0.202650 -0.008600 0.127071
v -0.202650 -0.008948 0.126839
v -0.202650 -0.009263 0.126563
v -0.202650 -0.009539 0.126248
v -0.202650 -0.009771 0.125900
v -0.202650 -0.009956 0.125525
v -0.202650 -0.010091 0.125128
v -0.202150 -0.007483 0.127968
v -0.202150 -0.007958 0.127874
v -0.202150 -0.008416 0.127719
v -0.202650 -0.010200 0.066700
v -0.202650 -0.009957 0.065476
v -0.202650 -0.009771 0.065100
v -0.202650 -0.009539 0.064752
v -0.202650 -0.008600 0.063929
v -0.202650 -0.007418 0.063528
v -0.202650 -0.007000 0.063500
v -0.202150 0.035974 0.065742
v -0.202150 0.035818 0.065284
v -0.202650 0.034348 0.064161
v -0.202650 0.034939 0.064752
v -0.202650 0.035171 0.065100
v -0.202650 0.035491 0.065872
v -0.202650 0.035572 0.066282
v -0.202150 0.036100 0.066700
v -0.202150 0.036068 0.066217
v -0.202150 0.036100 0.124300
v -0.202150 0.035974 0.125258
v -0.202150 0.035335 0.126552
v -0.202150 0.035016 0.126916
v -0.202150 0.034652 0.127235
v -0.202150 0.032883 0.127968
v -0.202150 0.032400 0.128000
v -0.202150 0.033358 0.127874
v -0.202150 0.033816 0.127718
v -0.202150 0.034250 0.127504
v -0.202150 0.035604 0.126150
v -0.202150 0.035818 0.125716
v -0.202150 0.036068 0.124783
v -0.202650 0.035600 0.124300
v -0.202650 0.035491 0.125128
v -0.202650 0.034000 0.127071
v -0.202650 0.033625 0.127256
v -0.202650 0.033228 0.127391
v -0.202650 0.035600 0.066700
v -0.202652 -0.003004 0.068746
v -0.202652 0.028904 0.068747
v -0.202652 0.028903 0.122254
v -0.202652 -0.003004 0.122254
v -0.189100 -0.041172 0.060147
v -0.189100 -0.041079 0.059455
v -0.189100 -0.041008 0.059113
v -0.189100 -0.041133 0.059800
v -0.189100 -0.041079 0.062146
v -0.189100 -0.041172 0.061454
v -0.096319 0.084176 0.000000
v 0.082176 0.098319 0.000000
v 0.094321 0.089000 0.000000
v 0.097000 -0.079000 0.000000
v 0.096319 -0.084176 0.000000
v 0.094321 -0.089000 0.000000
v 0.087000 -0.096321 0.000000
v 0.082176 -0.098319 0.000000
v -0.096319 -0.084176 0.000000
v -0.097000 0.079000 0.000000
v -0.097000 -0.079000 0.000000
v -0.020000 -0.100000 0.012768
v 0.097000 -0.002919 0.159619
v 0.097000 -0.001546 0.161325
v 0.097000 -0.001166 0.161609
v 0.096999 -0.000432 0.162000
v 0.095573 -0.016575 0.162000
v 0.091335 -0.032662 0.162000
v 0.049912 -0.083173 0.162000
v 0.034966 -0.090478 0.162000
v 0.018992 -0.095122 0.162000
v 0.002458 -0.096969 0.162000
v -0.014147 -0.095963 0.162000
v -0.030337 -0.092134 0.162000
v 0.096983 -0.079000 0.014184
v 0.097000 0.079000 0.000000
v 0.097000 0.001546 0.161325
v 0.097000 0.000778 0.161821
v 0.097000 -0.000778 0.161821
v 0.097000 -0.002258 0.160571
v -0.030336 0.092134 0.162000
v -0.014147 0.095963 0.162000
v 0.002459 0.096969 0.162000
v 0.018992 0.095122 0.162000
v 0.075004 0.061509 0.162000
v 0.091335 0.032662 0.162000
v 0.095573 0.016575 0.162000
v 0.095899 0.014573 0.162000
v 0.096183 0.012565 0.162000
v 0.096999 0.000432 0.162000
v 0.097000 0.001166 0.161609
v 0.097000 0.002257 0.160571
v 0.097000 0.002919 0.159619
v 0.077000 0.099000 0.014000
v -0.000903 0.099000 0.053766
v -0.000429 0.099000 0.053938
v 0.000034 0.099000 0.053991
v 0.000495 0.099000 0.053922
v 0.000964 0.099000 0.053735
v 0.077000 0.099000 0.000000
v -0.077000 0.099000 0.000000
v -0.077000 0.099000 0.014000
v 0.063390 -0.073421 0.162000
v 0.075004 -0.061509 0.162000
v 0.084411 -0.047788 0.162000
v 0.096624 0.008533 0.162000
v 0.084411 0.047788 0.162000
v 0.063391 0.073421 0.162000
v 0.049913 0.083173 0.162000
v 0.034967 0.090478 0.162000
v -0.084081 0.097704 0.014000
v -0.087398 0.096085 0.014000
v -0.080521 0.098670 0.014184
v -0.084075 0.097689 0.014184
v -0.082176 0.098319 0.000000
v -0.087000 0.096321 0.000000
v -0.091142 0.093142 0.000000
v -0.094321 0.089000 0.000000
v -0.080524 0.098687 0.014000
v -0.125000 0.064864 0.156323
v -0.125000 0.064359 0.157519
v -0.125000 0.061331 0.159826
v -0.119400 0.008000 0.174800
v -0.118811 0.010200 0.174800
v -0.118111 0.011111 0.174800
v -0.116139 0.012250 0.174800
v -0.117200 0.011811 0.174800
v -0.119250 0.009139 0.174800
v -0.110600 0.008000 0.174800
v -0.111889 0.011111 0.174800
v -0.115000 0.012400 0.174800
v -0.113861 0.012250 0.174800
v -0.112800 0.011811 0.174800
v -0.111189 0.010200 0.174800
v -0.110750 0.009139 0.174800
v -0.125000 -0.062531 0.159332
v -0.125000 -0.064359 0.157519
v -0.125000 -0.064864 0.156323
v -0.165835 -0.050437 0.010003
v -0.165868 -0.051712 0.010330
v -0.165868 -0.052017 0.010522
v -0.165868 -0.052469 0.010942
v -0.165880 0.052619 0.145028
v -0.165929 0.051961 0.145633
v -0.165929 0.052815 0.144601
v -0.165835 0.050437 0.010003
v -0.165938 0.052371 0.010897
v -0.165868 0.051836 0.010401
v -0.165840 0.052142 0.010608
v -0.125000 0.062531 0.159332
v -0.125000 0.063564 0.158545
v -0.125000 -0.063564 0.158545
v -0.125000 -0.061331 0.159826
v -0.165925 -0.052349 0.145316
v -0.165925 -0.052009 0.145604
v -0.152070 0.056113 0.150313
v -0.151259 0.057242 0.149272
v -0.165882 0.052328 0.145375
v -0.151645 0.056987 0.149542
v -0.151886 0.056737 0.149782
v -0.151982 0.056584 0.149920
v -0.152063 0.056353 0.150119
v -0.152004 0.055866 0.150501
v -0.151830 0.055570 0.150710
v -0.151835 0.055608 0.150694
v -0.151840 -0.055584 0.150700
v -0.152065 -0.056075 0.150342
v -0.151981 -0.056586 0.149919
v -0.151861 -0.056769 0.149753
v -0.151632 -0.056997 0.149532
v -0.151235 -0.057254 0.149258
v -0.151652 -0.056919 0.149664
v -0.151818 -0.056527 0.150063
v -0.151585 -0.055511 0.150823
v -0.152066 -0.056336 0.150133
v -0.151989 -0.055831 0.150526
v -0.165879 -0.052649 0.144983
v -0.129000 -0.060906 0.158381
v -0.129000 -0.063031 0.156750
v -0.129000 -0.062475 0.157475
v -0.129000 -0.061750 0.158031
v -0.129000 0.063031 0.156750
v -0.129000 0.062475 0.157475
v -0.129000 0.061750 0.158031
v -0.129000 0.060906 0.158381
v -0.169000 -0.052500 0.013500
v -0.115000 -0.012400 0.174800
v -0.116139 -0.012250 0.174800
v -0.118111 -0.011111 0.174800
v -0.119400 -0.008000 0.174800
v -0.119250 -0.009139 0.174800
v -0.118811 -0.010200 0.174800
v -0.117200 -0.011811 0.174800
v -0.110750 -0.009139 0.174800
v -0.110600 -0.008000 0.174800
v -0.111189 -0.010200 0.174800
v -0.111889 -0.011111 0.174800
v -0.112800 -0.011811 0.174800
v -0.113861 -0.012250 0.174800
v 0.096319 0.084176 0.000000
v 0.091142 0.093142 0.000000
v 0.087000 0.096321 0.000000
v 0.089175 0.094867 0.014000
v 0.091883 0.092360 0.014000
v 0.096687 0.082524 0.014000
v 0.095704 0.086081 0.014000
v 0.094085 0.089398 0.014000
v 0.086052 0.096834 0.014000
v 0.082621 0.098194 0.014000
v 0.079839 0.098797 0.014000
v 0.095689 0.086075 0.014184
v 0.094070 0.089389 0.014184
v 0.091871 0.092349 0.014184
v 0.089165 0.094854 0.014184
v 0.086044 0.096819 0.014184
v 0.082616 0.098178 0.014184
v 0.096983 0.079000 0.014184
v 0.091142 -0.093142 0.000000
v 0.094834 -0.088052 0.014000
v 0.092867 -0.091175 0.014000
v 0.080524 -0.098687 0.014000
v 0.084081 -0.097704 0.014000
v 0.087398 -0.096085 0.014000
v 0.090360 -0.093883 0.014000
v 0.096194 -0.084621 0.014000
v 0.096797 -0.081839 0.014000
v 0.080521 -0.098670 0.014184
v 0.084075 -0.097689 0.014184
v 0.087389 -0.096070 0.014184
v 0.090349 -0.093871 0.014184
v 0.092854 -0.091165 0.014184
v 0.094819 -0.088044 0.014184
v 0.077000 -0.099000 0.014000
v 0.077000 -0.099000 0.000000
v -0.021047 -0.100000 0.002337
v -0.024300 -0.100000 0.004456
v -0.025258 -0.100000 0.007175
v -0.024641 -0.100000 0.009992
v -0.023428 -0.100000 0.011500
v -0.022634 -0.100000 0.012062
v -0.020808 -0.100000 0.012706
v -0.021751 -0.100000 0.012468
v -0.024104 -0.100000 0.010802
v -0.025020 -0.100000 0.009097
v -0.025228 -0.100000 0.008147
v -0.025109 -0.100000 0.006215
v -0.024786 -0.100000 0.005298
v -0.023667 -0.100000 0.003718
v -0.022910 -0.100000 0.003108
v -0.022053 -0.100000 0.002649
v -0.020000 -0.100000 0.002232
v 0.020808 -0.100000 0.002294
v 0.021751 -0.100000 0.002532
v 0.023428 -0.100000 0.003500
v 0.024104 -0.100000 0.004198
v 0.024641 -0.100000 0.005008
v 0.025020 -0.100000 0.005903
v 0.025228 -0.100000 0.006853
v 0.024786 -0.100000 0.009702
v 0.023667 -0.100000 0.011282
v 0.022910 -0.100000 0.011892
v 0.020000 -0.100000 0.012768
v 0.021047 -0.100000 0.012663
v 0.022053 -0.100000 0.012351
v 0.024300 -0.100000 0.010544
v 0.025109 -0.100000 0.008785
v 0.025258 -0.100000 0.007825
v 0.022634 -0.100000 0.002938
v 0.020000 -0.100000 0.002232
v -0.094321 -0.089000 0.000000
v -0.091142 -0.093142 0.000000
v -0.087000 -0.096321 0.000000
v -0.082176 -0.098319 0.000000
v -0.077000 -0.099000 0.000000
v -0.082621 -0.098194 0.014000
v -0.086052 -0.096834 0.014000
v -0.079839 -0.098797 0.014000
v -0.077000 -0.099000 0.014000
v -0.082616 -0.098178 0.014184
v 0.100000 0.020000 0.012500
v 0.100000 0.022500 0.011830
v 0.100000 0.023536 0.011036
v 0.100000 0.023536 0.003964
v 0.100000 0.021294 0.002670
v 0.100000 0.022500 0.003170
v 0.100000 0.024330 0.005000
v 0.100000 0.024830 0.006206
v 0.100000 0.025000 0.007500
v 0.100000 0.024830 0.008794
v 0.100000 0.024330 0.010000
v 0.100000 0.021294 0.012330
v 0.100000 -0.020000 0.012500
v 0.100000 -0.023536 0.011036
v 0.100000 -0.024830 0.008794
v 0.100000 -0.025000 0.007500
v 0.100000 -0.024330 0.005000
v 0.100000 -0.023536 0.003964
v 0.100000 -0.022500 0.003170
v 0.100000 -0.021294 0.002670
v 0.100000 -0.024830 0.006206
v 0.100000 -0.024330 0.010000
v 0.100000 -0.022500 0.011830
v 0.100000 -0.021294 0.012330
v 0.100000 -0.020000 0.002500
v 0.100000 0.020000 0.002500
v -0.185272 -0.041716 0.032448
v -0.185272 -0.042265 0.034485
v -0.185472 -0.039675 0.029725
v -0.185472 -0.037925 0.028382
v -0.185472 -0.033700 0.027250
v -0.185472 -0.035887 0.027538
v -0.185472 -0.041018 0.031475
v -0.185472 -0.041862 0.033513
v -0.169000 0.052500 0.013500
v -0.169000 0.052500 0.142500
v -0.169000 -0.049500 0.145500
v -0.169000 -0.052500 0.142500
v -0.169000 -0.049500 0.010500
v -0.169000 0.049500 0.010500
v -0.169000 0.049500 0.145500
vt 0.000000 0.168627
vt 1.000000 0.164706
vt 1.000000 0.250980
vt 0.000000 0.250980
vt 0.250980 0.501961
vt 0.000000 0.623529
vt 0.000000 0.501961
vt 1.000000 0.250980
vt 0.000000 0.168627
vt 1.000000 0.168627
vt 0.000000 0.000000
vt 0.000000 0.000000
vt 0.000000 0.000000
vt 0.000000 0.000000
vt 1.000000 1.000000
vt 0.000000 0.741176
vt 0.000000 0.000000
vt 0.505882 0.003922
vt 0.000000 0.000000
vt 0.000000 0.000000
vt 0.000000 0.000000
vt 0.000000 0.000000
vt 0.000000 0.835294
vt 0.000000 0.917647
vt 0.000000 0.000000
vt 0.000000 0.501961
vt 0.000000 0.000000
vt 0.000000 0.000000
vt 0.000000 0.000000
vt 0.000000 0.000000
vt 0.984314 0.050980
vt 0.000000 0.000000
vt 0.000000 0.000000
vt 0.925490 0.003922
vt 0.000000 0.000000
vt 0.000000 0.000000
vt 0.000000 0.666667
vt 0.000000 0.000000
vt 0.000000 0.000000
vt 0.000000 1.000000
vt 0.000000 0.000000
vt 0.000000 0.000000
vt 0.000000 0.835294
vt 0.000000 0.000000
vt 0.000000 0.000000
vt 0.000000 0.000000
vt 0.000000 0.000000
vt 0.000000 0.000000
vt 0.000000 0.917647
vt 0.000000 0.000000
vt 0.000000 0.470588
vt 0.000000 0.000000
vt 0.000000 0.000000
vt 0.000000 0.000000
vt 0.000000 0.000000
vt 0.000000 0.000000
vt 0.000000 0.000000
vt 0.000000 0.000000
vt 0.000000 0.588235
vt 0.372549 0.984314
vt 0.000000 0.333333
vt 0.000000 0.000000
vt 0.000000 0.000000
vt 0.000000 0.000000
vt 0.000000 0.000000
vt 0.066667 0.250980
vt 0.000000 0.000000
vt 0.000000 0.000000
vt 0.000000 0.000000
vt 0.000000 1.000000
vt 0.000000 0.000000
vt 0.000000 0.333333
vt 0.000000 0.000000
vt 1.000000 0.501961
vt 0.000000 0.000000
vt 0.000000 0.000000
vt 0.000000 0.666667
vt 0.000000 0.000000
vt 0.000000 0.000000
vt 0.000000 0.584314
vt 0.000000 0.000000
vt 0.000000 0.000000
vt 0.117647 0.584314
vt 0.000000 0.333333
vt 0.000000 0.701961
vt 0.000000 0.000000
vt 0.117647 0.819608
vt 0.000000 0.909804
vt 0.000000 0.666667
vt 0.000000 0.000000
vt 0.000000 0.647059
vt 0.941177 0.768628
vt 0.000000 0.000000
vt 0.250980 0.933333
vt 0.000000 0.000000
vt 0.000000 0.000000
vt 0.000000 0.000000
vt 0.000000 0.000000
vt 0.000000 0.000000
vt 0.000000 0.666667
vt 0.000000 0.000000
vt 0.000000 0.000000
vt 0.000000 0.000000
vt 0.000000 0.000000
vt 0.000000 0.349020
vt 0.000000 0.000000
vt 0.000000 0.231373
vt 0.000000 0.000000
vt 0.000000 0.000000
vt 0.117647 0.231373
vt 0.000000 0.000000
vt 0.000000 0.000000
vt 0.000000 0.000000
vt 0.000000 0.000000
vt 0.000000 0.000000
vt 0.000000 0.333333
vt 0.000000 0.000000
vt 0.976471 0.992157
vt 1.000000 0.666667
vt 0.000000 0.000000
vt 0.968628 0.996078
vt 0.000000 0.000000
vt 0.000000 0.000000
vt 0.000000 0.000000
vt 0.933333 0.250980
vt 0.000000 0.584314
vt 0.000000 0.000000
vt 1.000000 0.556863
vt 0.043137 0.000000
vt 0.000000 0.000000
vt 1.000000 0.572549
vt 0.552941 0.501961
vt 0.000000 0.000000
vt 0.000000 0.000000
vt 0.596078 0.443137
vt 0.000000 0.349020
vt 0.000000 0.000000
vt 0.000000 0.231373
vt 0.000000 0.000000
vt 0.000000 0.501961
vt 0.000000 0.000000
vt 0.000000 0.000000
vt 0.000000 0.000000
vt 0.000000 0.000000
vt 0.250980 0.933333
vt 0.000000 0.000000
vt 0.000000 0.082353
vt 0.000000 0.000000
vt 0.000000 0.000000
vt 0.000000 0.168627
vt 0.000000 0.000000
vt 0.000000 0.000000
vt 0.000000 0.250980
vt 0.501961 0.749020
vt 0.000000 0.000000
vt 0.000000 0.000000
vt 1.000000 0.749020
vt 0.000000 0.000000
vt 0.000000 0.000000
vt 0.145098 0.854902
vt 0.678431 0.733333
vt 0.000000 0.584314
vt 0.000000 0.501961
vt 0.933333 0.250980
vt 0.000000 0.000000
vt 0.000000 0.000000
vt 0.000000 0.000000
vt 0.000000 0.000000
vt 0.000000 0.000000
vt 0.000000 0.666667
vt 0.000000 0.000000
vt 0.486275 0.231373
vt 0.000000 0.000000
vt 0.007843 0.964706
vt 0.000000 0.000000
vt 0.066667 0.749020
vt 0.000000 0.000000
vt 0.000000 0.000000
vt 0.000000 0.000000
vt 0.000000 0.000000
vt 0.000000 0.000000
vt 0.000000 0.000000
vt 0.000000 0.333333
vt 0.000000 0.000000
vt 0.000000 0.000000
vt 0.000000 0.501961
vt 0.000000 0.415686
vt 0.000000 1.000000
vt 0.000000 0.000000
vt 0.000000 0.000000
vt 0.000000 0.000000
vt 0.000000 0.470588
vt 0.000000 0.411765
vt 0.000000 1.000000
vt 0.117647 0.113725
vt 0.000000 0.000000
vt 0.843137 0.878431
vt 0.000000 0.835294
vt 0.000000 0.415686
vt 0.000000 0.333333
vt 0.000000 0.000000
vt 0.000000 0.000000
vt 0.980392 0.984314
vt 1.000000 1.000000
vt 1.000000 0.917647
vt 0.000000 0.000000
vt 0.000000 0.000000
vt 0.000000 0.000000
vt 1.000000 0.941177
vt 1.000000 0.929412
vt 0.000000 0.000000
vt 1.000000 0.168627
vt 1.000000 0.082353
vt 0.000000 0.000000
vt 0.000000 0.000000
vt 1.000000 0.250980
vt 0.000000 0.749020
vt 0.000000 0.333333
vt 1.000000 0.333333
vt 1.000000 0.584314
vt 0.988235 0.972549
vt 0.000000 0.082353
vt 0.000000 0.941177
vt 0.000000 0.949020
vt 0.000000 0.666667
vt 0.000000 0.749020
vt 0.000000 0.819608
vt 0.000000 0.000000
vt 0.000000 0.000000
vt 0.000000 0.835294
vt 1.000000 0.415686
vt 1.000000 0.501961
vt 0.000000 0.000000
vt 0.000000 0.000000
vt 0.015686 0.011765
vt 0.768628 0.576471
vt 0.768628 0.423529
vt 0.501961 0.000000
vt 0.000000 0.000000
vt 0.000000 0.000000
vt 0.250980 0.988235
vt 0.000000 0.000000
vt 0.000000 0.000000
vt 0.000000 0.000000
vt 0.000000 0.000000
vt 1.000000 1.000000
vt 0.000000 0.666667
vt 0.000000 0.584314
vt 0.000000 0.000000
vt 0.000000 0.000000
vt 0.000000 0.501961
vt 0.000000 0.000000
vt 0.000000 0.000000
vt 0.000000 0.000000
vt 0.000000 0.000000
vt 0.000000 0.113725
vt 0.003922 0.956863
vt 0.000000 0.000000
vt 0.000000 0.000000
vt 0.000000 0.000000
vt 0.000000 0.000000
vt 0.000000 0.835294
vt 0.000000 0.000000
vt 0.984314 0.980392
vt 0.000000 0.749020
vt 0.000000 0.835294
vt 0.000000 0.000000
vt 0.000000 0.000000
vt 0.000000 0.000000
vt 0.000000 0.000000
vt 0.000000 0.000000
vt 0.000000 0.000000
vt 0.000000 0.000000
vt 0.000000 0.000000
vt 0.627451 0.996078
vt 1.000000 0.168627
vt 0.000000 0.000000
vt 0.000000 0.000000
vt 0.000000 0.000000
vt 0.000000 0.000000
vt 1.000000 0.149020
vt 0.000000 0.000000
vt 0.000000 0.000000
vt 0.000000 0.000000
vt 0.000000 0.000000
vt 0.066667 0.050980
vt 0.000000 0.000000
vt 0.000000 0.000000
vt 0.552941 0.501961
vt 0.000000 0.000000
vt 0.000000 0.000000
vt 0.000000 0.000000
vt 0.000000 0.000000
vt 0.000000 0.000000
vt 0.000000 0.000000
vt 0.000000 0.415686
vt 0.000000 0.333333
vt 0.000000 0.043137
vt 0.000000 0.000000
vt 0.000000 0.000000
vt 0.000000 0.498039
vt 0.000000 0.000000
vt 0.000000 0.929412
vt 0.000000 0.000000
vt 0.000000 0.000000
vt 0.000000 0.000000
vt 0.000000 0.647059
vt 0.117647 0.349020
vt 0.117647 0.466667
vt 0.843137 0.121569
vt 1.000000 0.250980
vt 0.000000 0.000000
vt 0.749020 0.988235
vt 0.000000 0.000000
vt 1.000000 0.533333
vt 1.000000 0.180392
vt 0.000000 0.000000
vt 0.000000 0.000000
vt 0.000000 0.000000
vt 0.000000 0.000000
vt 0.490196 0.368627
vt 0.000000 0.000000
vt 0.000000 0.749020
vt 0.000000 0.666667
vt 0.250980 0.066667
vt 0.372549 0.015686
vt 0.749020 0.066667
vt 0.627451 0.015686
vt 0.501961 0.000000
vt 0.000000 0.000000
vt 0.000000 0.000000
vt 0.000000 0.000000
vt 0.000000 0.000000
vt 0.000000 0.050980
vt 0.015686 0.372549
vt 0.000000 0.250980
vt 0.000000 0.168627
vt 0.011765 0.027451
vt 0.003922 0.043137
vt 0.015686 0.019608
vt 0.035294 0.003922
vt 0.000000 0.000000
vt 0.000000 0.000000
vt 0.000000 0.666667
vt 0.000000 0.000000
vt 0.984314 0.372549
vt 1.000000 0.501961
vt 0.690196 0.615686
vt 0.000000 0.000000
vt 0.000000 0.000000
vt 0.000000 0.000000
vt 0.541176 0.839216
vt 0.000000 0.000000
vt 0.941177 0.254902
vt 0.000000 0.000000
vt 0.000000 0.819608
vt 0.000000 0.882353
vt 0.000000 0.000000
vt 0.015686 0.988235
vt 0.000000 0.000000
vt 0.000000 0.000000
vt 0.000000 0.352941
vt 0.000000 0.000000
vt 0.000000 0.000000
vt 0.000000 0.000000
vt 0.690196 0.498039
vt 0.000000 0.000000
vt 0.000000 0.000000
vt 0.003922 0.996078
vt 0.003922 0.996078
vt 0.000000 0.000000
vt 0.000000 0.000000
vt 0.117647 0.349020
vt 0.117647 0.466667
vt 0.000000 0.917647
vt 1.000000 0.917647
vt 0.749020 0.501961
vt 0.000000 0.000000
vt 0.000000 0.000000
vt 0.000000 0.000000
vt 0.000000 0.000000
vt 0.031373 0.858824
vt 0.000000 0.000000
vt 0.000000 0.000000
vt 0.003922 0.623529
vt 0.000000 0.000000
vt 0.000000 0.000000
vt 0.000000 0.000000
vt 0.000000 0.000000
vt 0.000000 0.000000
vt 0.000000 0.000000
vt 0.000000 0.000000
vt 0.003922 0.349020
vt 0.000000 0.000000
vt 0.000000 0.000000
vt 0.000000 0.588235
vt 0.000000 0.000000
vt 0.000000 0.000000
vt 0.000000 0.000000
vt 0.000000 0.000000
vt 0.000000 0.000000
vt 0.000000 0.945098
vt 0.000000 0.000000
vt 0.000000 0.529412
vt 0.964706 0.878431
vt 0.000000 0.000000
vt 0.000000 0.000000
vt 0.913726 0.992157
vt 0.929412 0.972549
vt 1.000000 0.560784
vt 0.000000 0.803922
vt 0.000000 0.000000
vt 0.000000 0.000000
vt 0.000000 0.000000
vt 0.952941 0.082353
vt 0.000000 0.976471
vt 0.000000 0.619608
vt 0.000000 0.439216
vt 0.007843 0.709804
vt 0.062745 0.960784
vt 0.000000 0.000000
vt 0.000000 0.168627
vt 0.000000 0.231373
vt 0.117647 0.113725
vt 0.372549 0.996078
vt 0.501961 1.000000
vt 1.000000 0.415686
vt 0.000000 0.349020
vt 0.000000 0.466667
vt 0.000000 0.941177
vt 0.000000 0.168627
vt 1.000000 0.298039
vt 0.000000 0.333333
vt 0.000000 0.000000
vt 0.000000 1.000000
vt 0.498039 0.000000
vt 0.501961 0.000000
vt 0.501961 0.000000
vt 0.117647 0.231373
vt 0.000000 0.588235
vt 0.996078 0.074510
vt 0.000000 0.529412
vt 0.494118 0.003922
vt 0.000000 1.000000
vt 0.000000 0.000000
vt 0.000000 0.250980
vt 0.117647 0.701961
vt 0.784314 0.929412
vt 0.713726 0.964706
vt 0.000000 0.835294
vt 0.866667 0.862745
vt 0.000000 0.000000
vt 0.898039 0.184314
vt 0.000000 0.250980
vt 0.117647 0.231373
vt 0.909804 0.607843
vt 0.501961 0.549020
vt 0.501961 0.231373
vt 0.000000 1.000000
vt 0.984314 0.372549
vt 0.000000 0.050980
vt 0.000000 0.058824
vt 1.000000 0.000000
vt 0.768628 0.333333
vt 0.117647 0.584314
vt 0.007843 0.007843
vt 0.000000 0.501961
vt 1.000000 0.415686
vt 0.145098 0.027451
vt 0.250980 0.011765
vt 1.000000 0.192157
vt 0.627451 0.003922
vt 0.364706 0.329412
vt 0.000000 0.909804
vt 0.490196 0.439216
vt 0.490196 0.764706
vt 0.015686 0.372549
vt 0.000000 0.909804
vt 0.117647 0.819608
vt 0.000000 0.168627
vt 0.117647 0.701961
vt 0.854902 0.145098
vt 0.000000 0.000000
vt 0.000000 0.000000
vt 0.000000 0.584314
vt 0.047059 0.917647
vt 0.996078 0.650980
vt 0.988235 0.737255
vt 0.976471 0.811765
vt 0.000000 0.082353
vt 0.000000 0.000000
vt 0.968628 0.141176
vt 0.000000 0.776471
vn -0.7071 0.1830 0.6830
vn -0.7071 0.2706 0.6533
vn -0.6902 0.7071 0.1537
vn -0.5490 0.8358 -0.0000
vn -0.7071 0.7071 0.0000
vn -0.7071 0.6533 -0.2706
vn -0.7071 0.6830 -0.1830
vn -0.7071 0.0000 0.7071
vn 0.0000 1.0000 0.0000
vn 0.0097 0.9998 0.0186
vn -0.7685 -0.5872 -0.2541
vn -0.6798 -0.6634 -0.3127
vn -0.6786 -0.6708 -0.2991
vn 0.0000 0.0000 -1.0000
vn 0.0199 0.1294 -0.9914
vn 0.0825 -0.1014 -0.9914
vn -0.0616 -0.1156 -0.9914
vn -0.0100 0.9998 0.0191
vn -1.0000 -0.0003 0.0000
vn 0.0259 0.0123 0.9996
vn 0.0304 0.1047 0.9940
vn -0.0289 0.1661 0.9857
vn 0.1135 -0.9935 -0.0064
vn -0.0881 0.9918 0.0931
vn -0.0236 0.1791 0.9835
vn -0.0895 0.1243 0.9882
vn 0.0000 0.0000 1.0000
vn -0.0651 0.0665 0.9957
vn -0.0922 -0.0098 0.9957
vn -0.0778 -0.0512 0.9957
vn 0.0001 -0.0930 0.9957
vn -0.9490 -0.2606 -0.1773
vn -0.9351 -0.2789 -0.2187
vn 0.6136 0.7839 0.0953
vn 0.4377 0.8969 -0.0634
vn 0.5016 0.8554 0.1292
vn -0.2622 0.9650 0.0067
vn -0.1533 0.9861 -0.0634
vn 0.2479 0.9440 0.2179
vn 0.2665 0.9544 0.1345
vn 0.3680 0.9267 0.0765
vn 0.2737 0.9616 0.0222
vn -0.3756 0.7283 0.5732
vn -0.2525 0.7649 0.5927
vn -0.3337 0.7379 0.5866
vn -0.1436 0.3767 0.9151
vn -0.2248 0.3498 0.9095
vn -0.1104 0.2717 0.9560
vn -0.0316 0.2407 0.9701
vn -0.6363 0.7715 0.0000
vn -0.5593 0.8241 0.0894
vn -0.4013 0.5381 -0.7412
vn -0.5109 0.4697 -0.7200
vn -0.4378 0.6265 -0.6449
vn -0.5473 0.5576 -0.6241
vn -0.4578 0.6804 -0.5723
vn -0.4182 0.7687 -0.4840
vn -0.4770 0.8776 -0.0484
vn -0.3756 0.9266 0.0186
vn -0.4399 0.8981 0.0009
vn -0.3254 0.9446 0.0442
vn -0.4384 0.8988 0.0027
vn -0.3296 0.9420 0.0638
vn -0.4808 0.8688 -0.1180
vn -0.4008 0.9144 0.0568
vn -0.3954 0.9155 -0.0748
vn -0.1962 0.2554 0.9467
vn -0.3058 0.9432 0.1298
vn -0.3393 0.9407 0.0046
vn -0.3446 0.8768 0.3355
vn -0.3201 0.9285 0.1884
vn -0.3578 0.8297 0.4285
vn -0.2861 0.8951 0.3421
vn -0.3549 -0.7402 0.5711
vn -0.3568 -0.8117 0.4625
vn -0.7063 0.6349 0.3131
vn -0.7071 0.6124 0.3536
vn -0.3510 -0.3574 0.8655
vn -0.4716 0.2117 0.8560
vn -0.3521 0.2236 0.9089
vn -0.9094 -0.4077 -0.0821
vn -0.9193 -0.3857 -0.0785
vn -0.9103 -0.4056 -0.0827
vn -0.3641 0.7689 0.5255
vn -0.4070 0.6904 0.5981
vn -0.3878 0.6279 0.6749
vn 0.8498 0.5192 0.0909
vn 0.9005 0.4348 0.0028
vn 0.9214 0.3713 0.1146
vn 0.9238 0.3826 -0.0115
vn -0.3639 0.4534 -0.8137
vn -0.4738 0.3861 -0.7915
vn -0.4216 0.5342 -0.7327
vn -0.4804 0.6008 -0.6390
vn -0.4961 0.6140 -0.6140
vn -0.5476 -0.6052 0.5778
vn -0.5864 0.7486 -0.3095
vn -0.5745 0.7863 -0.2274
vn -0.5041 0.8636 0.0118
vn -0.5423 0.8329 -0.1103
vn -0.6290 0.7748 -0.0634
vn -0.5216 0.8508 -0.0647
vn -0.5791 0.7962 -0.1749
vn -0.5261 0.8479 -0.0661
vn -0.4621 0.8831 -0.0818
vn -0.8232 -0.2082 -0.5282
vn -0.8332 -0.3366 -0.4387
vn -0.8031 -0.4714 -0.3644
vn -0.4753 0.8798 -0.0002
vn -0.4701 0.8732 0.1287
vn -0.6829 0.6970 0.2189
vn -0.3384 0.9294 0.1471
vn -0.5177 0.8536 -0.0582
vn -0.5125 0.8220 0.2483
vn -0.4356 0.8957 0.0896
vn -0.4969 0.8678 -0.0083
vn -0.6838 0.7291 0.0281
vn -0.5235 0.8333 0.1778
vn -0.5346 0.8412 -0.0819
vn -0.5054 0.8481 0.1590
vn -0.5082 0.8449 0.1672
vn -0.5388 0.7974 0.2716
vn -0.5947 0.7283 0.3404
vn -0.5973 0.7208 0.3516
vn -0.5596 0.7433 0.3665
vn -0.5684 0.7084 0.4184
vn -0.5723 0.6816 0.4560
vn -0.5750 0.6557 0.4893
vn -0.5476 0.6052 -0.5778
vn -0.4057 0.6879 0.6018
vn -0.3903 0.8032 0.4500
vn -0.3566 0.8780 0.3194
vn -0.7749 -0.3590 0.5203
vn -0.7999 -0.4030 0.4446
vn -0.7835 -0.3881 0.4852
vn -0.9320 -0.1421 -0.3334
vn -0.9319 -0.2700 -0.2422
vn -0.3820 0.4929 0.7817
vn -0.4991 0.4593 0.7348
vn -0.3746 0.3854 0.8433
vn -0.4917 0.3514 0.7967
vn -0.3565 0.2558 0.8986
vn -0.3597 0.2448 0.9004
vn -0.2908 0.3558 0.8882
vn -0.3557 0.2224 0.9077
vn -0.3586 0.3470 0.8666
vn -0.3979 0.1647 0.9025
vn -0.3110 0.1761 0.9340
vn -0.8594 0.3026 -0.4121
vn 0.0600 0.0275 0.9978
vn -0.0026 0.0963 0.9953
vn -0.6479 -0.5414 -0.5359
vn -0.5476 -0.6052 -0.5778
vn 0.0616 0.0070 0.9981
vn -0.1767 0.0732 -0.9815
vn -0.0464 0.0646 -0.9968
vn -0.8251 0.4411 -0.3529
vn -0.5040 -0.0117 -0.8636
vn -0.5744 0.2275 -0.7863
vn -0.5419 0.1095 -0.8333
vn -0.6851 0.2544 -0.6826
vn -0.5864 0.3103 -0.7482
vn -0.5737 0.4985 -0.6500
vn -0.1744 0.0682 -0.9823
vn -0.0275 -0.9992 0.0285
vn 0.0588 -0.9981 0.0187
vn -0.1085 -0.9927 0.0531
vn -0.1335 -0.9909 -0.0198
vn -0.3952 0.9146 0.0854
vn -0.2811 0.9497 0.1379
vn -0.2683 0.9374 0.2219
vn -0.2093 0.9772 0.0348
vn -0.8511 0.3459 -0.3948
vn 0.0538 0.0534 0.9971
vn -0.0388 0.0498 0.9980
vn -0.8174 0.4542 -0.3543
vn -0.8072 0.5150 -0.2886
vn -0.8068 0.4916 -0.3277
vn -0.7974 0.5390 -0.2711
vn -0.7693 0.5730 -0.2827
vn -0.7437 0.6178 -0.2555
vn -0.7059 0.6743 -0.2169
vn -0.7459 0.6308 -0.2139
vn -0.7458 0.6343 -0.2035
vn -0.7148 0.6620 -0.2255
vn -0.6511 0.7360 -0.1855
vn -0.6315 0.7606 -0.1505
vn -0.5782 0.8088 -0.1071
vn -0.4712 0.8682 -0.1555
vn -0.4797 0.8598 -0.1750
vn -0.7061 0.5888 0.3933
vn -0.6725 0.6154 0.4111
vn -0.6157 0.7879 -0.0152
vn -0.5719 0.8185 -0.0542
vn -0.5282 0.8438 -0.0947
vn -0.6329 0.7733 -0.0376
vn -0.7493 0.6623 0.0000
vn -0.7492 0.6623 0.0000
vn -0.7067 0.7067 0.0350
vn -0.6887 0.7235 0.0479
vn -0.6500 0.7564 0.0738
vn -0.4492 0.8856 0.1179
vn -0.6152 0.7865 -0.0547
vn -0.7061 0.0463 0.7066
vn -0.6577 -0.1525 0.7376
vn -0.6591 -0.1457 0.7378
vn -0.7061 -0.1381 0.6945
vn -0.6579 -0.2421 0.7131
vn -0.6595 -0.2355 0.7139
vn -0.7064 -0.2267 0.6705
vn -0.7396 -0.2157 0.6376
vn -0.7071 0.3535 0.6125
vn -0.7185 0.2688 0.6414
vn -0.7071 0.2707 0.6532
vn -0.6969 0.3567 0.6222
vn -0.7380 0.3749 0.5611
vn -0.6738 0.4208 0.6074
vn -0.7060 0.4458 0.5503
vn -0.7061 0.3934 0.5888
vn -0.7064 0.7062 -0.0470
vn -0.6583 0.7515 -0.0443
vn -0.7358 0.6745 -0.0609
vn -0.8721 0.0738 -0.4838
vn -0.8012 0.1122 -0.5878
vn -0.8012 0.0929 -0.5912
vn -0.5793 0.3868 0.7174
vn -0.5737 0.4985 0.6500
vn -0.6724 0.4762 0.5667
vn 0.4893 0.8717 0.0280
vn 0.3800 0.9149 -0.1367
vn 0.3768 0.9263 -0.0061
vn 0.3103 0.9468 0.0852
vn -0.6266 0.5328 0.5688
vn -0.6008 0.4079 0.6875
vn -0.5779 0.4662 0.6699
vn -0.6292 0.4313 0.6466
vn -0.5773 0.4541 0.6786
vn -0.6046 0.3621 0.7095
vn -0.6056 0.3505 0.7144
vn -0.5681 0.3639 0.7381
vn -0.5876 0.2699 0.7628
vn -0.5896 0.2574 0.7656
vn -0.5510 0.2691 0.7899
vn -0.5317 0.2094 0.8206
vn -0.5246 0.1653 0.8352
vn -0.4892 0.0577 0.8703
vn -0.4828 0.0406 0.8748
vn -0.4688 0.0617 0.8811
vn -0.3882 0.3753 0.8417
vn -0.4054 0.4633 0.7880
vn -0.4687 0.5474 0.6933
vn -0.4664 0.6758 0.5708
vn -0.4668 0.6881 0.5555
vn -0.5730 0.6780 0.4605
vn -0.5832 0.5909 0.5574
vn 0.9982 0.0532 0.0277
vn 0.9978 0.0410 0.0526
vn -0.4065 0.4821 0.7761
vn -0.3881 -0.6520 -0.6513
vn -0.4932 -0.6123 -0.6180
vn -0.4058 -0.6044 -0.6856
vn 0.9985 -0.0555 0.0005
vn 0.9979 0.0512 -0.0392
vn 0.9967 0.0493 -0.0643
vn 0.9926 0.0464 -0.1120
vn 0.9591 0.0369 -0.2807
vn 0.6402 0.0000 -0.7682
vn -0.1519 0.0200 -0.9882
vn -0.5837 0.4933 0.6450
vn -0.5476 0.6052 0.5778
vn -0.5600 0.6783 0.4757
vn -0.5737 -0.4985 -0.6500
vn -0.5816 -0.4280 -0.6918
vn -0.5852 -0.1859 -0.7893
vn -0.5864 -0.3095 -0.7486
vn -0.6468 -0.1037 -0.7556
vn -0.5423 -0.1103 -0.8329
vn -0.1744 -0.0682 -0.9823
vn -0.1767 -0.0732 -0.9815
vn -0.0475 -0.0588 -0.9971
vn -0.4730 -0.3843 -0.7929
vn -0.3628 -0.4510 -0.8155
vn -0.5189 0.6097 0.5992
vn -0.7643 0.0000 -0.6448
vn -0.8700 0.0432 -0.4911
vn 0.9937 0.1115 -0.0058
vn 0.9754 0.2018 0.0891
vn -0.4107 0.5678 0.7134
vn -0.3218 0.6155 0.7194
vn -0.8702 0.2175 -0.4421
vn -0.0226 -0.0076 0.9997
vn 0.0576 0.0398 0.9975
vn -1.0000 0.0001 -0.0002
vn -1.0000 0.0002 -0.0002
vn -0.9989 0.0452 -0.0077
vn -0.9989 0.0386 -0.0275
vn -1.0000 0.0002 -0.0001
vn -0.9990 -0.0044 -0.0455
vn -1.0000 0.0003 -0.0001
vn -0.7063 0.6702 -0.2279
vn -0.9990 0.0453 0.0053
vn -0.9989 0.0456 -0.0131
vn -1.0000 0.0003 -0.0000
vn -0.9990 0.0068 -0.0449
vn 0.8930 0.4145 0.1755
vn 0.8571 0.5072 0.0900
vn -0.7070 0.7070 -0.0151
vn -0.7051 0.7045 -0.0811
vn -1.0000 0.0003 0.0001
vn -0.9989 0.0472 -0.0005
vn -0.9989 0.0059 -0.0465
vn -1.0000 0.0002 0.0001
vn -1.0000 0.0002 0.0002
vn -0.7058 0.5328 0.4669
vn -0.6579 0.5626 0.5006
vn -0.6583 0.5668 0.4954
vn -0.3725 0.6488 0.6636
vn -0.3549 0.7402 0.5711
vn -0.3568 0.8117 0.4625
vn -0.3558 0.8122 0.4624
vn -0.7061 0.7066 0.0463
vn -0.7061 -0.0463 0.7066
vn -1.0000 0.0000 0.0000
vn 0.0615 0.0000 0.9981
vn 0.9945 0.0460 0.0946
vn 0.9953 0.0463 0.0847
vn 0.9968 0.0475 0.0636
vn 0.9977 0.0492 0.0464
vn 1.0000 -0.0000 0.0000
vn 0.9911 0.1282 0.0371
vn 0.9909 0.0248 0.1326
vn -0.2845 -0.7574 0.5877
vn -0.4071 -0.6910 0.5973
vn 0.9591 -0.0369 -0.2807
vn 0.9926 -0.0464 -0.1120
vn 0.9984 -0.0528 -0.0219
vn -0.5419 -0.8333 -0.1094
vn -0.5852 -0.7894 -0.1857
vn -0.5816 -0.6919 -0.4278
vn -0.5864 -0.7482 -0.3103
vn -0.5137 -0.5935 -0.6195
vn -0.4584 -0.6823 -0.5695
vn -0.4713 -0.8820 0.0000
vn -0.8108 -0.4424 0.3833
vn -0.8276 -0.4744 0.3000
vn -0.8153 -0.4667 0.3427
vn 0.9939 0.0982 0.0495
vn 0.9785 0.2045 -0.0261
vn 0.9935 0.0966 0.0599
vn -0.1519 -0.0200 -0.9882
vn -0.9110 -0.0275 -0.4114
vn -0.9037 0.0000 -0.4282
vn -0.8805 0.0306 -0.4731
vn -1.0000 0.0000 -0.0004
vn -1.0000 0.0001 -0.0003
vn -1.0000 0.0002 -0.0003
vn -1.0000 0.0000 0.0004
vn -1.0000 0.0001 0.0003
vn -0.9989 0.0168 0.0427
vn -0.9989 0.0049 0.0467
vn -0.9989 0.0218 0.0409
vn -1.0000 0.0002 0.0003
vn -0.9989 0.0095 0.0458
vn -0.9989 0.0259 0.0385
vn -1.0000 0.0001 0.0002
vn -0.7072 0.6829 -0.1831
vn -0.7184 0.6893 -0.0938
vn -0.7065 0.6943 -0.1373
vn -0.6724 0.7261 -0.1438
vn -0.5224 -0.0564 0.8509
vn -0.5135 -0.0478 0.8567
vn -0.4924 -0.0258 0.8700
vn -0.4688 -0.0617 0.8811
vn 0.5582 -0.7747 0.2972
vn 0.5145 -0.8495 0.1170
vn 0.6744 -0.7132 0.1913
vn 0.5744 -0.7900 0.2143
vn -0.4923 0.0000 0.8704
vn 0.9998 0.0027 0.0204
vn 0.9881 -0.0071 0.1537
vn 0.9997 0.0118 0.0217
vn 0.9880 -0.0019 0.1544
vn 0.9996 0.0167 0.0224
vn 0.9876 0.0059 0.1566
vn 0.9994 0.0251 0.0236
vn 0.9992 0.0321 0.0246
vn 0.9983 -0.0534 0.0221
vn 0.9982 -0.0530 0.0276
vn -0.1438 0.0000 -0.9896
vn 0.8452 0.5270 0.0893
vn 0.7971 0.6038 -0.0061
vn 0.7853 0.6039 -0.1365
vn 0.7957 0.5994 0.0867
vn -0.4065 -0.9135 0.0140
vn -0.3570 -0.9297 0.0905
vn -0.3058 -0.9432 0.1299
vn -0.3199 -0.9286 0.1878
vn -0.3547 -0.8812 0.3126
vn -0.3379 -0.8251 0.4528
vn -0.3876 -0.8108 0.4386
vn -0.4726 -0.6862 0.5529
vn -0.4898 -0.8718 0.0000
vn -0.9199 -0.3763 -0.1105
vn -0.9344 -0.3116 -0.1728
vn -0.9253 -0.3488 -0.1488
vn -0.5864 -0.7482 0.3103
vn -0.5419 -0.8333 0.1094
vn -0.4913 -0.8710 0.0000
vn -0.6054 -0.7939 -0.0565
vn -0.6462 -0.7566 -0.0994
vn -0.6933 -0.7050 -0.1496
vn -0.7509 -0.6205 -0.2261
vn -0.9175 -0.0559 -0.3937
vn -0.9302 -0.3281 -0.1644
vn -0.9404 -0.2580 -0.2215
vn -0.9333 -0.2988 -0.1992
vn -0.8242 -0.5089 0.2486
vn -0.8341 -0.5277 0.1604
vn -0.8249 -0.5266 0.2058
vn -0.9364 -0.1947 -0.2919
vn -0.9796 -0.1001 -0.1745
vn -0.9292 -0.1190 -0.3499
vn -1.0000 0.0000 -0.0003
vn -1.0000 -0.0002 -0.0003
vn -1.0000 -0.0001 -0.0003
vn -1.0000 -0.0001 -0.0002
vn -1.0000 -0.0002 -0.0002
vn -0.9989 -0.0397 0.0253
vn -0.9989 -0.0276 -0.0384
vn -0.9989 -0.0393 -0.0236
vn -1.0000 -0.0002 -0.0001
vn -0.9990 -0.0303 -0.0342
vn -0.9989 -0.0428 -0.0204
vn -0.9989 0.0178 -0.0436
vn -1.0000 -0.0003 -0.0001
vn -1.0000 -0.0003 0.0001
vn -0.9989 -0.0469 -0.0012
vn -0.9989 -0.0428 0.0172
vn -0.9989 -0.0465 0.0034
vn -0.9989 -0.0411 0.0218
vn -1.0000 -0.0002 0.0001
vn -0.9990 -0.0451 0.0076
vn -0.9989 -0.0392 0.0265
vn -0.9989 -0.0448 0.0117
vn -0.9989 -0.0355 0.0306
vn -1.0000 -0.0002 0.0002
vn -0.9989 -0.0436 0.0170
vn -0.9989 -0.0322 0.0332
vn -0.9989 -0.0420 0.0215
vn -0.9989 -0.0282 0.0361
vn -1.0000 -0.0001 0.0002
vn -0.9990 -0.0379 0.0240
vn -0.9988 -0.0255 0.0409
vn -1.0000 -0.0001 0.0003
vn -0.9989 -0.0390 -0.0278
vn -1.0000 -0.0002 0.0003
vn -0.7061 0.1381 0.6945
vn -0.7154 0.1785 0.6755
vn -0.7068 0.1823 0.6836
vn -0.6421 -0.2030 0.7393
vn -0.6149 -0.1531 0.7736
vn -0.5882 -0.1018 0.8023
vn -0.5715 -0.1069 0.8136
vn -0.5419 -0.1095 0.8333
vn -0.5864 -0.3103 0.7482
vn -0.5737 -0.4985 0.6500
vn -0.4226 -0.5739 0.7014
vn -0.4054 -0.4642 0.7875
vn -0.4058 -0.4664 0.7860
vn -0.3860 -0.3642 0.8476
vn -0.3948 -0.3444 0.8518
vn -0.3599 -0.2455 0.9001
vn -0.3557 -0.2224 0.9077
vn 0.8999 -0.4009 0.1714
vn 0.9381 -0.3352 0.0871
vn 0.8913 -0.3760 0.2534
vn 0.9998 -0.0027 0.0204
vn 0.9990 -0.0363 0.0252
vn 0.9936 -0.0754 0.0840
vn 0.9992 -0.0321 0.0246
vn 0.9257 -0.3670 0.0914
vn 0.9603 -0.2580 0.1060
vn 0.2009 -0.9778 0.0589
vn 0.8484 -0.5293 0.0059
vn -0.9049 -0.1507 -0.3980
vn -0.8276 -0.2147 -0.5186
vn -0.7478 -0.2470 -0.6162
vn -0.7470 -0.2614 -0.6113
vn -0.8154 -0.4592 -0.3524
vn -0.7901 -0.5528 -0.2651
vn -0.2684 -0.9373 0.2224
vn -0.2818 -0.9494 0.1385
vn -0.3435 -0.8801 0.3277
vn -0.2860 -0.8951 0.3420
vn -0.3578 -0.8298 0.4283
vn -0.8027 -0.4169 0.4265
vn -0.8214 -0.4538 0.3456
vn -0.8079 -0.4433 0.3884
vn -0.8221 -0.4884 0.2925
vn -0.8337 -0.5126 0.2056
vn -0.8239 -0.5083 0.2508
vn -0.7064 0.6701 0.2281
vn -0.7376 0.6350 0.2299
vn -0.8212 -0.5596 0.1119
vn -0.8201 -0.5633 0.1006
vn -0.7705 -0.6320 0.0830
vn -0.7742 -0.6272 0.0843
vn -0.9162 -0.4008 0.0000
vn -0.7184 -0.6913 -0.0777
vn -0.7960 -0.5981 -0.0936
vn -0.7863 -0.6110 -0.0915
vn -0.8478 -0.5225 -0.0913
vn -0.8656 -0.4872 -0.1158
vn -0.8571 -0.5044 -0.1046
vn -0.9200 -0.3800 -0.0957
vn -0.9187 -0.3769 -0.1176
vn -0.9205 -0.3701 -0.1252
vn -0.9377 -0.3310 -0.1053
vn -0.9182 -0.3946 -0.0340
vn -0.4110 -0.5806 0.7029
vn -0.5129 -0.4833 0.7095
vn -0.5336 -0.5461 0.6458
vn -0.9190 -0.3894 -0.0610
vn -0.8927 -0.4497 0.0290
vn -0.8546 -0.5146 0.0692
vn -0.7666 -0.3562 0.5343
vn -0.7568 -0.3257 0.5667
vn -0.7843 -0.3743 0.4947
vn -0.7330 -0.3023 0.6094
vn -0.7202 -0.2677 0.6401
vn -0.7525 -0.3221 0.5744
vn -0.7071 -0.2657 0.6553
vn -0.7171 -0.2192 0.6616
vn -0.3682 0.2320 0.9003
vn -0.3510 0.3574 0.8655
vn -0.3523 0.4739 0.8071
vn -0.7031 -0.2835 0.6521
vn -0.6833 -0.2341 0.6916
vn -0.7279 -0.2004 0.6557
vn -0.7101 -0.2697 0.6504
vn 0.0616 0.0010 0.9981
vn -0.3727 -0.3736 0.8494
vn -0.7058 0.4669 0.5328
vn -0.6582 0.4954 0.5669
vn -0.6579 0.5006 0.5627
vn -0.3521 -0.2236 0.9089
vn -0.3041 -0.2337 0.9235
vn 0.0600 -0.0275 0.9978
vn 0.0207 0.0571 0.9982
vn 0.9994 -0.0250 0.0236
vn 0.9970 0.0752 0.0189
vn 0.9996 -0.0172 0.0225
vn 0.9943 0.0540 -0.0923
vn 0.9941 -0.0356 -0.1025
vn 0.9997 -0.0118 0.0217
vn 0.9889 -0.0215 0.1473
vn 0.8028 0.5585 0.2089
vn 0.8103 0.5859 0.0042
vn 0.7619 0.6470 0.0311
vn 0.6919 0.6872 0.2213
vn 0.7672 0.6290 0.1258
vn 0.5994 0.7764 0.1948
vn -0.1556 -0.1918 0.9690
vn -0.1104 -0.2717 0.9560
vn -0.0314 -0.2411 0.9700
vn -0.1436 -0.3767 0.9151
vn -0.2246 -0.3488 0.9099
vn -0.2073 -0.5929 0.7782
vn -0.2884 -0.5651 0.7730
vn -0.2525 -0.7649 0.5927
vn -0.3756 -0.7283 0.5732
vn -0.3336 -0.7373 0.5875
vn -0.6977 0.6923 0.1842
vn -0.7061 0.6945 0.1381
vn -0.6968 0.7107 0.0966
vn -0.3972 -0.7729 0.4949
vn -0.3782 -0.7091 0.5951
vn 0.0000 -0.9126 -0.4089
vn -0.0125 -0.9921 -0.1248
vn -0.0157 -0.9986 -0.0508
vn -0.0177 -0.9997 -0.0152
vn -0.0181 -0.9998 -0.0105
vn -0.0189 -0.9998 -0.0029
vn 0.0193 -0.9998 -0.0000
vn -0.1123 -0.2714 0.9559
vn -0.1962 -0.2554 0.9467
vn 0.9938 -0.0242 -0.1083
vn 0.9997 0.0087 0.0212
vn -0.5778 0.4583 0.6754
vn -0.4702 0.5529 0.6879
vn -0.5805 0.5100 0.6347
vn -0.5849 0.5568 0.5898
vn 0.1096 0.9939 -0.0078
vn -0.0193 -0.9998 0.0000
vn -0.0847 -0.9918 0.0958
vn -0.0125 -0.9913 -0.1308
vn -0.0185 -0.9998 0.0078
vn -0.1307 -0.9907 0.0369
vn -0.0182 -0.9998 0.0121
vn -0.1308 -0.9906 0.0392
vn -0.0179 -0.9997 0.0173
vn 0.0981 -0.9951 0.0102
vn 0.1168 -0.9931 -0.0111
vn -0.0101 -0.9997 0.0219
vn -0.0242 -0.9977 -0.0628
vn -0.0053 -0.9998 0.0211
vn -0.0190 -0.9978 -0.0636
vn -0.0016 -0.9998 0.0205
vn -0.0148 -0.9978 -0.0643
vn 0.0000 -0.9998 0.0203
vn 0.0730 -0.9952 0.0653
vn 0.0021 -0.9998 0.0205
vn 0.0121 -0.9978 -0.0647
vn 0.0784 -0.9924 -0.0952
vn 0.0117 -0.9997 0.0218
vn 0.0228 -0.9977 -0.0634
vn 0.0176 -0.9996 0.0226
vn 0.0721 -0.9934 0.0887
vn -0.0559 -0.0808 0.9952
vn 0.0167 -0.1265 0.9918
vn -0.0247 -0.0437 0.9987
vn -0.8726 0.1779 -0.4549
vn -0.8590 0.0586 -0.5086
vn 0.9998 0.0000 0.0201
vn 0.0171 -0.9996 -0.0241
vn 0.0164 -0.9992 -0.0358
vn 0.0115 -0.9887 -0.1496
vn 0.0000 -1.0000 0.0000
vn 0.0761 -0.9915 -0.1056
vn -0.1040 -0.9909 -0.0853
vn 0.1333 -0.9908 -0.0216
vn 0.0000 -1.0000 -0.0001
vn 0.0760 -0.9914 -0.1067
vn 0.0622 -0.9914 0.1154
vn 0.0000 -1.0000 0.0001
vn 0.0006 -0.1383 0.9904
vn 0.0488 -0.0675 0.9965
vn -0.0435 -0.0546 0.9976
vn -0.3747 -0.3873 0.8424
vn 0.2664 -0.9639 0.0061
vn 0.2960 -0.9459 0.1332
vn 0.0180 -0.9997 0.0154
vn 0.0183 -0.9998 0.0106
vn 0.0186 -0.9998 0.0066
vn -0.1101 -0.9938 -0.0139
vn 0.3028 -0.9230 0.2374
vn 0.2001 -0.9797 0.0140
vn 0.1678 -0.9814 0.0934
vn 0.2811 0.9597 -0.0000
vn 0.1420 0.9899 -0.0000
vn 0.2763 0.9434 0.1837
vn 0.5000 0.8660 0.0000
vn 0.6088 0.7934 -0.0000
vn 0.7071 0.7071 -0.0000
vn 0.5199 -0.8542 0.0000
vn 0.6680 -0.7442 0.0000
vn 0.6566 -0.7315 0.1838
vn 0.5110 -0.8397 0.1838
vn 0.9851 -0.1708 0.0185
vn 0.9997 -0.0159 0.0185
vn 0.9998 -0.0120 0.0185
vn -0.2588 -0.9659 0.0000
vn -0.2810 -0.9597 0.0000
vn -0.4526 -0.8917 0.0000
vn -0.5000 -0.8660 -0.0000
vn 0.0226 -0.9997 -0.0131
vn -0.0191 -0.9979 0.0622
vn -0.1096 -0.9939 -0.0078
vn -0.1519 -0.9883 0.0140
vn 0.3000 0.9513 0.0714
vn 0.2118 0.9773 0.0020
vn 0.0983 0.9951 0.0039
vn 0.4572 -0.8715 0.1773
vn 0.2649 -0.9385 0.2215
vn 0.2566 -0.9410 0.2206
vn 0.3045 -0.9503 -0.0655
vn 0.1151 0.0630 -0.9914
vn 0.1207 0.0508 -0.9914
vn -0.0440 -0.1236 -0.9914
vn 0.1072 -0.0755 -0.9914
vn -0.0616 -0.1154 -0.9914
vn 0.1012 -0.0829 -0.9914
vn -0.0855 -0.0992 -0.9914
vn 0.0888 -0.0963 -0.9914
vn -0.0986 -0.0858 -0.9914
vn -0.1179 0.0571 -0.9914
vn -0.0413 -0.1243 -0.9914
vn -0.1078 0.0738 -0.9914
vn -0.0479 -0.1216 -0.9914
vn -0.0921 0.0931 -0.9914
vn 0.0074 0.9998 0.0187
vn 0.0094 0.2450 0.9695
vn -0.0099 0.1630 0.9866
vn 0.0135 0.2439 0.9697
vn 0.0145 0.1299 0.9914
vn 0.0532 0.2051 0.9773
vn 0.0471 0.2081 0.9770
vn 0.0028 0.9998 0.0187
vn -0.0022 0.9998 0.0188
vn -0.0069 0.9998 0.0190
vn -0.0604 0.9971 0.0461
vn -0.1421 0.9873 0.0709
vn 0.0209 0.9996 0.0185
vn 0.5201 -0.8541 -0.0036
vn 0.5134 -0.8395 0.1779
vn 0.3440 -0.9209 0.1835
vn 0.3587 -0.9335 -0.0009
vn 0.9263 -0.3768 -0.0061
vn 0.9468 -0.3103 0.0852
vn -0.0761 0.1257 0.9891
vn 0.0851 0.0640 0.9943
vn -0.0561 0.0811 0.9951
vn -0.0417 0.2925 0.9554
vn -0.0496 0.2098 0.9765
vn -0.0375 0.2922 0.9556
vn 0.9995 -0.0255 0.0210
vn 0.9836 -0.1571 0.0885
vn 0.9947 -0.0909 0.0479
vn -0.0001 0.0000 1.0000
vn -0.0792 -0.0489 0.9957
vn -0.0036 -0.0927 0.9957
vn 0.0719 -0.0589 0.9957
vn -0.0513 -0.0775 0.9957
vn 0.0455 -0.0801 0.9957
vn -0.0830 -0.0401 0.9957
vn 0.0610 -0.0704 0.9957
vn 0.0918 0.0149 0.9957
vn 0.0639 0.0667 0.9957
vn 0.0457 -0.0803 0.9957
vn 0.0118 0.0920 0.9957
vn 0.6375 0.7641 0.0988
vn 0.4570 0.8895 -0.0044
vn 0.4432 0.8778 0.1820
vn -0.0255 0.1582 0.9871
vn 0.0561 0.0000 0.9984
vn 0.0377 0.0911 0.9951
vn -0.0307 0.0256 0.9992
vn 0.0413 0.0845 0.9956
vn 0.1566 0.9652 0.2095
vn 0.2325 0.9722 0.0277
vn 0.1616 0.9800 0.1162
vn 0.2857 -0.9578 0.0327
vn 0.4060 -0.9138 -0.0056
vn 0.4891 -0.8682 0.0837
vn -0.7574 0.6489 0.0722
vn -0.7357 0.6465 0.2017
vn -0.1140 0.2753 0.9546
vn -0.1761 0.2164 0.9603
vn -0.2952 0.9222 0.2499
vn -0.2683 0.8291 0.4906
vn -0.3586 0.8582 0.3674
vn -0.2073 0.5929 0.7782
vn -0.2886 0.5659 0.7723
vn -0.3517 0.9361 -0.0023
vn -0.3501 0.9190 0.1814
vn -0.1383 0.9863 0.0901
vn 0.7315 0.6566 0.1837
vn 0.6767 0.7310 0.0879
vn 0.5984 0.7799 0.1837
vn 0.7413 0.6711 -0.0012
vn 0.7041 0.7101 0.0003
vn 0.6483 0.7493 0.1348
vn 0.8852 0.4171 0.2062
vn 0.9061 0.4158 0.0773
vn 0.8886 0.4084 0.2090
vn -0.0275 0.0143 0.9995
vn 0.0488 0.0675 0.9965
vn 0.0538 -0.0534 0.9971
vn 0.0949 0.0294 0.9950
vn -0.0330 -0.0862 0.9957
vn 0.5013 -0.8649 0.0256
vn 0.6038 -0.7971 -0.0061
vn 0.6665 -0.7401 0.0892
vn -0.3808 0.3884 -0.8391
vn -0.3852 0.5019 -0.7744
vn -0.3701 0.6094 -0.7011
vn -0.4722 0.8729 -0.1227
vn -0.4386 0.8987 0.0024
vn -0.3730 0.9213 -0.1096
vn -0.3617 0.9282 0.0875
vn -0.2389 0.9626 0.1275
vn -0.3293 0.9436 -0.0340
vn -0.3481 0.8636 0.3647
vn -0.2238 0.8957 0.3843
vn -0.2235 0.9023 0.3687
vn -0.3450 0.1500 0.9265
vn -0.2208 0.2710 0.9369
vn -0.3041 0.2337 0.9235
vn 0.0576 -0.0398 0.9975
vn 0.0861 0.0491 0.9951
vn -0.0231 -0.0846 0.9961
vn 0.6917 0.6905 0.2116
vn 0.7810 0.6210 0.0658
vn 0.6959 0.7137 0.0800
vn -0.2125 0.0446 -0.9761
vn -0.2268 0.1741 -0.9583
vn -0.2318 0.3010 -0.9250
vn -0.4631 -0.7077 0.5335
vn -0.4290 -0.5633 0.7061
vn -0.5191 -0.5996 0.6091
vn -0.2382 0.8435 0.4815
vn -0.2451 0.9174 0.3136
vn -0.3735 0.8261 0.4220
vn -0.4674 0.7759 0.4237
vn -0.3643 0.8034 0.4710
vn -0.4741 0.6757 0.5645
vn -0.4713 0.6343 0.6128
vn -0.4981 0.6398 0.5853
vn -0.1135 0.9935 -0.0064
vn -0.2413 0.9704 0.0042
vn 0.9940 0.0689 0.0844
vn 0.9951 0.0875 -0.0463
vn 0.9756 0.1952 0.1008
vn 0.1421 -0.0439 0.9889
vn 0.1451 -0.0324 0.9889
vn 0.0613 -0.0167 0.9980
vn -0.0286 0.0072 0.9996
vn 0.9806 0.1731 0.0925
vn 0.9628 0.2702 0.0066
vn 0.9460 0.2959 0.1324
vn 0.9734 -0.2173 0.0723
vn 0.9933 -0.0922 0.0695
vn 0.9560 -0.2102 0.2047
vn -0.3531 -0.5680 0.7435
vn -0.3731 0.3069 0.8756
vn -0.3702 0.3239 0.8707
vn -0.3760 0.3171 0.8707
vn -0.3698 0.6609 0.6530
vn -0.3787 0.8317 0.4060
vn -0.2616 0.7697 0.5823
vn -0.0868 0.0886 0.9923
vn 0.2258 -0.0638 0.9721
vn 0.0617 -0.0056 0.9981
vn 0.0721 0.0097 0.9973
vn 0.0718 0.0101 0.9974
vn 0.0616 0.0087 0.9981
vn 0.0721 0.0112 0.9973
vn 0.0717 0.0117 0.9974
vn 0.0616 0.0100 0.9981
vn 0.9821 0.1698 0.0820
vn 0.9857 0.1502 0.0759
vn 0.9746 0.1057 0.1974
vn 0.9861 0.1494 0.0726
vn 0.9893 0.1297 0.0664
vn 0.9787 0.0840 0.1875
vn 0.9984 0.0528 -0.0219
vn -0.2162 -0.0447 -0.9753
vn -0.2086 -0.3006 -0.9307
vn -0.2268 -0.1741 -0.9583
vn -0.3120 -0.4510 -0.8362
vn -0.4071 -0.5682 -0.7152
vn -0.3889 -0.4908 -0.7796
vn 0.6433 -0.7548 0.1283
vn 0.7894 -0.5834 0.1912
vn 0.7015 -0.6775 0.2212
vn 0.9985 0.0555 0.0005
vn -0.3828 0.5686 0.7281
vn -0.2596 0.5938 0.7616
vn -0.3630 0.6703 0.6472
vn -0.4124 0.6323 0.6558
vn 0.9996 0.0232 0.0185
vn 0.9994 0.0301 0.0185
vn 0.9980 0.0516 0.0359
vn 0.7044 -0.7043 0.0888
vn 0.7431 -0.6691 0.0049
vn 0.7682 -0.6402 -0.0047
vn 0.8245 -0.5658 0.0112
vn 0.9983 0.0534 0.0221
vn 0.9985 0.0549 0.0072
vn 0.9911 0.0339 0.1291
vn 0.9909 -0.1144 0.0716
vn 0.9967 -0.0493 -0.0643
vn 0.9979 -0.0512 -0.0392
vn 0.5635 0.7983 0.2127
vn 0.6510 0.7491 0.1224
vn 0.4606 0.8698 0.1768
vn 0.9798 0.1746 0.0974
vn 0.9823 0.1871 0.0104
vn 0.9182 0.3771 0.1217
vn 0.9595 0.2547 0.1205
vn -0.3816 0.3505 0.8553
vn -0.2471 0.3558 0.9013
vn -0.3774 0.4696 0.7981
vn -0.3769 0.3593 0.8537
vn -0.3646 -0.6108 -0.7029
vn -0.3854 -0.5022 -0.7741
vn -0.2900 -0.4484 -0.8455
vn -0.4914 -0.4244 -0.7605
vn -0.4736 -0.4702 -0.7447
vn -0.4442 -0.4117 -0.7957
vn -0.4328 -0.6136 -0.6604
vn -0.4705 -0.6744 -0.5690
vn -0.4849 -0.5232 -0.7008
vn 0.4449 0.8766 0.1832
vn 0.4546 0.8907 0.0018
vn 0.2811 0.9597 0.0005
vn 0.2741 0.9443 0.1820
vn 0.9902 -0.1390 -0.0134
vn 0.9915 0.1267 0.0285
vn 0.9867 0.1611 -0.0233
vn 0.9997 -0.0087 0.0212
vn 0.9925 -0.1149 0.0423
vn 0.9896 0.1401 -0.0322
vn 0.9996 0.0172 0.0225
vn 0.9990 0.0363 0.0252
vn 0.9977 0.0638 0.0220
vn 0.9995 0.0033 0.0300
vn -0.4122 0.7257 0.5508
vn -0.3982 0.7495 0.5288
vn -0.3871 0.8141 0.4329
vn -0.5292 0.7905 0.3084
vn 0.9985 -0.0549 0.0072
vn 0.9513 -0.3000 0.0714
vn 0.9773 -0.2118 0.0020
vn -0.5419 -0.8344 -0.1005
vn -0.4434 -0.8935 0.0707
vn -0.4718 -0.8817 -0.0004
vn -0.3666 -0.9303 -0.0097
vn -0.3486 -0.9372 -0.0074
vn -0.3672 -0.9265 0.0826
vn -0.2943 -0.8717 0.3919
vn -0.3536 -0.8095 0.4686
vn -0.3844 -0.8191 0.4257
vn 0.9352 -0.3236 0.1441
vn 0.9434 -0.3295 0.0374
vn 0.9682 -0.2503 0.0042
vn 0.9579 -0.2156 0.1897
vn 0.9942 -0.1074 -0.0074
vn -0.4946 -0.6697 0.5539
vn -0.5186 -0.7059 0.4825
vn -0.3739 -0.7380 0.5617
vn -0.3274 -0.3220 0.8883
vn -0.2543 -0.2866 0.9237
vn -0.3612 -0.2513 0.8980
vn -0.3979 -0.1647 0.9025
vn 0.9933 -0.1152 -0.0027
vn 0.9936 -0.0926 0.0643
vn 0.9874 -0.1571 0.0199
vn 0.9922 -0.0904 0.0853
vn 0.9866 -0.1546 0.0525
vn 0.9834 -0.0870 0.1593
vn 0.9841 -0.1679 0.0581
vn 0.9811 -0.0867 0.1730
vn 0.9998 -0.0045 0.0185
vn 0.4193 0.8892 0.1830
vn 0.5146 0.8518 0.0981
vn 0.3111 0.9403 0.1376
vn -0.2118 -0.9773 0.0020
vn -0.2811 -0.9597 0.0000
vn -0.1420 -0.9899 -0.0000
vn -0.2763 -0.9434 0.1837
vn -0.3004 -0.9496 0.0891
vn -0.3586 -0.8577 0.3685
vn -0.2683 -0.8291 0.4906
vn -0.2952 -0.9222 0.2499
vn -0.2237 -0.8957 0.3843
vn -0.3481 -0.8636 0.3647
vn -0.2235 -0.9022 0.3688
vn -0.3588 -0.8264 0.4340
vn -0.3966 -0.7961 0.4572
vn -0.4104 -0.8465 0.3393
vn -0.3243 -0.7950 0.5126
vn -0.3887 -0.8062 0.4460
vn -0.3408 -0.8300 0.4415
vn -0.3657 -0.7959 0.4826
vn -0.4031 -0.7361 0.5438
vn -0.3764 -0.8374 0.3963
vn -0.3747 -0.8391 0.3945
vn -0.3618 -0.6738 0.6443
vn -0.4004 -0.7457 0.5326
vn 0.8108 -0.5475 0.2070
vn 0.7620 -0.6366 0.1193
vn 0.8805 -0.4434 0.1677
vn -0.3828 -0.5661 0.7301
vn 0.1068 -0.9920 0.0679
vn 0.1877 -0.9779 0.0922
vn 0.0926 -0.9840 0.1523
vn 0.3544 -0.9187 0.1743
vn 0.4582 -0.8887 -0.0149
vn 0.5234 -0.8456 0.1048
vn 0.5055 -0.8403 0.1958
vn -0.4890 0.8682 0.0837
vn -0.4060 0.9138 -0.0056
vn -0.2847 0.9586 0.0056
vn -0.5231 0.8521 -0.0165
vn -0.5166 0.7036 0.4879
vn -0.4986 0.6732 0.5461
vn -0.2516 0.7543 0.6064
vn -0.2501 0.7671 0.5907
vn -0.3607 -0.2525 0.8978
vn -0.3501 -0.1411 0.9260
vn -0.4142 -0.2969 0.8604
vn -0.2042 0.9728 0.1095
vn -0.2837 0.9501 0.1295
vn -0.1876 0.9629 0.1940
vn 0.9996 -0.0167 0.0224
vn 0.9942 0.1078 0.0013
vn 0.9893 -0.1381 0.0464
vn 0.7799 -0.5984 0.1838
vn 0.8429 -0.5307 0.0884
vn 0.7323 -0.6452 0.2177
vn 0.6338 -0.7675 0.0962
vn 0.7310 -0.6767 0.0884
vn 0.9813 0.0323 0.1897
vn 0.9940 -0.0942 0.0561
vn 0.9949 0.0308 0.0962
vn -0.0187 -0.9984 -0.0530
vn -0.0712 -0.9962 0.0507
vn -0.1840 -0.9807 0.0665
vn 0.0135 -0.2439 0.9697
vn -0.0099 -0.1630 0.9866
vn 0.0094 -0.2450 0.9695
vn 0.0548 -0.1299 0.9900
vn -0.1143 -0.1598 0.9805
vn -0.0893 -0.1240 0.9883
vn -0.1309 -0.1650 0.9776
vn -0.0418 -0.2926 0.9553
vn -0.0376 -0.2921 0.9556
vn 0.1451 0.0324 0.9889
vn 0.0613 0.0167 0.9980
vn 0.0387 0.1067 0.9935
vn 0.0237 -0.0682 0.9974
vn -0.3840 -0.6165 0.6873
vn -0.4246 -0.5178 0.7427
vn -0.4847 -0.6406 0.5955
vn -0.2206 -0.6898 0.6896
vn -0.3353 -0.6758 0.6564
vn -0.3404 -0.7632 0.5492
vn -0.0167 -0.9994 -0.0312
vn -0.0173 -0.9996 -0.0214
vn -0.0185 -0.9998 -0.0065
vn -0.3714 0.6605 0.6526
vn -0.3533 0.4588 0.8153
vn -0.3531 0.5680 0.7435
vn -0.0188 -0.9998 0.0041
vn -0.1305 -0.9908 0.0352
vn -0.1471 -0.9887 0.0277
vn 0.0655 -0.9900 0.1252
vn -0.0307 -0.9976 -0.0617
vn -0.1282 -0.9913 0.0308
vn 0.0794 -0.9878 0.1339
vn 0.0171 -0.9978 -0.0641
vn 0.0234 0.9989 0.0406
vn 0.1856 0.9783 0.0923
vn 0.1050 0.9922 0.0672
vn 0.0520 -0.2057 0.9772
vn 0.0145 -0.1299 0.9914
vn -0.0530 -0.1821 0.9819
vn 0.0188 -0.9998 -0.0041
vn 0.0184 -0.9998 -0.0078
vn 0.0180 -0.9998 -0.0119
vn 0.0176 -0.9997 -0.0170
vn 0.0153 -0.9980 -0.0606
vn 0.1250 -0.9915 0.0361
vn -0.0803 -0.9909 0.1079
vn 0.0396 -0.9908 0.1291
vn -0.1303 -0.9914 -0.0134
vn -0.0880 -0.9914 0.0972
vn -0.0255 -0.1582 0.9871
vn 0.0377 -0.0911 0.9951
vn 0.0914 -0.1532 0.9840
vn 0.0953 -0.1502 0.9840
vn -0.0307 -0.0256 0.9992
vn 0.2651 -0.9600 0.0899
vn 0.3538 -0.9353 0.0030
vn 0.4352 -0.8827 0.1771
vn 0.0626 -0.9945 0.0842
vn 0.7993 0.5940 0.0909
vn 0.7281 0.6611 0.1814
vn 0.8380 0.5138 0.1836
vn 0.8555 0.5177 -0.0013
vn 0.0176 -0.9996 0.0219
vn 0.0175 -0.9910 0.1331
vn 0.1337 -0.9893 -0.0582
vn 0.0190 -0.9998 0.0029
vn 0.0304 -0.1047 0.9940
vn -0.0519 -0.1463 0.9879
vn -0.0296 -0.1654 0.9858
vn -0.1448 -0.9848 0.0958
vn -0.3050 -0.9420 0.1398
vn -0.3277 -0.9426 0.0640
vn -0.2339 -0.9722 0.0051
vn -0.9370 -0.2156 -0.2750
vn -0.8709 -0.3061 -0.3845
vn -0.7958 -0.0792 -0.6003
vn -0.8002 -0.2041 -0.5639
vn -0.8063 -0.5466 -0.2263
vn -0.4898 0.0000 -0.8718
vn -0.1551 0.0000 -0.9879
s off
f 103/1/1 93/2/1 94/3/2
f 103/1/1 94/3/2 102/4/2
f 31/5/3 28/6/4 29/7/5
f 78/8/6 82/9/7 77/10/7
f 32/11/8 92/12/8 34/13/8 33/14/8
f 164/15/9 166/16/9 159/17/9
f 164/15/9 163/18/9 158/19/9
f 163/18/10 147/20/10 158/19/10
f 370/21/11 376/22/11 12/23/12 11/24/13
f 116/25/14 265/26/15 117/27/14
f 116/25/14 117/27/14 264/28/14
f 116/25/14 264/28/14 140/29/14
f 116/25/14 140/29/14 118/30/14
f 116/25/14 120/31/14 282/32/14
f 116/25/14 282/32/14 121/33/14
f 116/25/14 122/34/14 298/35/14
f 116/25/14 298/35/14 338/36/14
f 116/25/14 334/37/16 123/38/14
f 116/25/14 123/38/14 125/39/14
f 116/25/14 124/40/14 115/41/14
f 116/25/14 115/41/14 182/42/14
f 116/25/14 179/43/17 165/44/14
f 159/17/18 166/16/18 147/20/18
f 108/45/19 105/46/19 70/47/19 57/48/19
f 196/49/20 174/50/21 148/51/22
f 285/52/23 297/53/23 298/35/23 122/34/23
f 183/54/24 177/55/24 166/56/24
f 190/57/25 195/58/25 146/59/26
f 190/60/27 188/61/28 192/62/27
f 190/60/27 192/62/27 187/63/27
f 190/60/27 187/63/27 254/64/27
f 190/60/27 254/64/27 255/65/27
f 190/60/27 256/66/27 253/67/27
f 190/60/27 253/67/27 257/68/27
f 190/60/27 257/68/27 252/69/27
f 190/60/27 251/70/29 263/71/27
f 190/60/27 260/72/30 258/73/27
f 190/60/27 259/74/27 193/75/27
f 190/60/27 193/75/27 199/76/27
f 190/60/27 198/77/31 194/78/27
f 190/60/27 194/78/27 197/79/27
f 73/80/32 52/81/33 372/82/33 376/22/33
f 278/83/34 266/84/35 272/85/36
f 175/86/37 177/55/37 179/43/38
f 148/51/39 174/50/40 280/87/41 274/88/42
f 185/89/43 215/90/44 145/91/45
f 214/92/46 186/93/46 145/91/47
f 186/93/48 191/94/48 145/91/49
f 29/95/50 28/6/51 27/96/50 25/97/50
f 212/98/52 213/99/52 180/100/53
f 213/99/54 211/101/54 180/100/55
f 211/101/56 378/102/56 180/100/57
f 378/102/58 26/103/58 180/100/59
f 26/103/60 28/104/60 180/100/61
f 28/104/62 176/105/63 180/100/64
f 28/104/65 379/106/65 175/107/66
f 186/93/67 189/108/67 191/94/67
f 379/106/68 184/109/68 178/110/69
f 221/111/70 223/112/70 184/109/70
f 379/106/71 221/111/71 184/109/71
f 223/112/72 246/113/72 185/89/73
f 244/114/74 243/115/74 201/116/75 216/117/74
f 39/118/76 96/119/77 97/120/76 40/121/76
f 200/122/78 217/123/78 242/124/78 245/125/78
f 249/126/79 188/127/80 186/93/80
f 110/128/81 54/129/82 53/130/82 111/131/83
f 225/132/84 207/133/85 222/134/85 226/135/86
f 271/136/87 275/137/88 117/27/88
f 270/138/89 264/28/90 117/27/90
f 383/139/91 212/98/91 181/140/92
f 383/139/93 213/99/93 212/98/93
f 383/139/94 211/101/94 213/99/94
f 383/139/95 378/102/95 211/101/95
f 1/141/96 4/142/96 381/143/96 380/144/96
f 22/145/97 20/146/97 378/102/97
f 20/147/98 21/148/99 378/102/100
f 21/148/101 26/103/102 378/102/102
f 21/148/103 85/149/104 26/103/104
f 85/149/105 27/96/105 26/103/105
f 373/150/106 13/151/107 17/152/107 372/153/108
f 27/96/109 28/6/110 26/103/109
f 31/5/111 30/154/112 28/6/113
f 30/154/114 379/106/115 28/104/115
f 30/154/116 31/5/117 379/106/118
f 31/5/119 98/155/120 379/106/120
f 98/155/121 87/156/121 379/106/121
f 87/156/122 97/120/122 379/106/122
f 97/157/123 96/119/124 379/106/125
f 96/119/126 88/158/127 379/106/127
f 88/158/128 8/159/128 379/106/128
f 23/160/129 22/145/129 378/102/129 383/139/129
f 209/161/130 223/112/131 379/106/131
f 223/112/132 221/111/132 379/106/132
f 61/162/133 62/163/134 1/141/135 5/164/135
f 50/165/136 375/166/136 373/150/137 74/167/136
f 220/168/138 227/169/138 248/170/139
f 227/169/140 229/171/140 248/170/141
f 228/172/142 384/173/143 249/126/144
f 384/173/145 188/127/145 249/126/146
f 384/173/147 192/62/147 188/61/148
f 44/174/149 79/175/149 23/160/149 24/176/149
f 150/177/150 171/178/150 198/77/151
f 12/23/152 17/152/153 382/179/153 250/180/153
f 170/181/154 153/182/154 199/76/154 193/75/154
f 115/41/155 383/139/155 182/183/156
f 80/184/157 22/145/157 23/160/157 43/185/157
f 18/186/158 19/187/159 383/188/160
f 19/187/161 24/189/162 383/188/162
f 24/176/163 23/160/163 383/139/163
f 115/41/164 210/190/164 383/139/164
f 303/191/165 136/192/166 137/193/167 342/194/168
f 178/110/169 184/109/170 145/91/171 177/195/172
f 79/175/173 43/185/173 23/160/173
f 194/78/174 149/196/174 172/197/174 197/198/175
f 80/199/176 81/200/177 22/145/178
f 81/200/179 42/201/180 22/145/180
f 42/201/181 20/146/181 22/145/181
f 42/201/182 78/202/182 20/146/182
f 78/8/183 77/10/184 20/146/185
f 77/10/186 85/149/187 20/146/187
f 85/149/188 21/148/189 20/147/190
f 39/118/191 38/203/191 88/158/191 96/119/192
f 84/204/193 25/97/194 85/205/195
f 25/97/196 27/96/196 85/149/196
f 25/97/197 104/206/197 99/207/197
f 25/97/198 99/207/198 29/95/198
f 99/207/199 86/208/199 29/95/199
f 86/208/200 98/155/200 29/95/200
f 98/155/201 31/5/202 29/7/203
f 35/209/204 34/210/204 92/12/204 91/211/204
f 68/212/205 67/213/206 58/214/207 56/215/207
f 69/216/208 68/212/209 56/215/210 59/217/211
f 101/218/212 102/4/213 94/3/214 95/219/215
f 101/218/216 95/219/217 90/220/218 36/221/219
f 104/206/220 84/204/221 85/149/220 83/222/222
f 47/223/223 46/224/223 19/187/224 18/186/225
f 10/225/226 384/173/227 9/226/228
f 272/85/229 266/84/230 116/25/231 273/227/232
f 10/225/233 90/220/234 384/173/235
f 90/220/236 95/228/237 384/173/237
f 95/219/238 94/3/239 384/173/240
f 94/3/241 93/2/242 384/173/243
f 93/2/244 91/211/245 384/173/245
f 91/211/246 92/12/246 384/173/246
f 92/12/247 187/63/247 384/173/247
f 187/63/248 192/62/248 384/173/248
f 229/171/249 227/169/249 384/173/249
f 227/169/250 208/229/250 384/173/250
f 208/229/251 222/134/251 384/173/251
f 9/226/252 8/230/253 88/231/254 89/232/255
f 354/233/256 281/234/256 170/181/256 157/235/257
f 208/229/258 227/169/258 220/168/258
f 206/236/259 250/180/260 382/179/260 205/237/261
f 359/238/262 139/239/262 118/30/262 364/240/262
f 350/241/263 347/242/263 140/29/263
f 347/242/264 349/243/264 140/29/264
f 349/243/265 348/244/265 140/29/265
f 348/244/266 369/245/266 140/29/266
f 369/246/267 118/30/267 140/29/267
f 124/40/268 210/190/268 115/41/268
f 9/226/269 384/173/270 379/106/270 8/230/271
f 17/152/272 13/151/272 382/179/272
f 13/247/273 14/248/274 382/179/275
f 14/248/276 16/249/277 382/179/277
f 203/250/278 123/38/278 382/179/278
f 123/38/279 334/37/280 382/179/279
f 335/251/281 204/252/282 382/179/282
f 222/134/283 207/133/283 379/106/283 384/173/283
f 16/249/284 374/253/284 18/254/284
f 374/253/285 47/255/285 18/254/285
f 281/234/286 140/29/286 264/28/286 269/256/287
f 220/168/288 226/135/289 222/134/288 208/229/288
f 45/257/290 44/174/290 24/189/290
f 198/77/291 171/178/292 149/196/292 194/78/292
f 44/174/293 106/258/293 79/175/293
f 106/258/294 43/185/294 79/175/294
f 106/258/294 80/184/294 43/185/294
f 106/258/294 81/200/295 80/199/296
f 106/258/297 42/201/297 81/200/298
f 106/258/299 82/259/299 42/201/299
f 82/9/7 78/8/6 42/201/300
f 106/258/299 83/222/301 82/9/302
f 106/258/303 104/206/303 83/222/304
f 171/178/305 150/177/305 275/137/305 271/136/306
f 25/97/307 84/204/308 104/206/307
f 107/260/303 41/261/303 99/207/303
f 107/260/309 100/262/310 41/261/309
f 107/260/309 40/263/309 100/262/311
f 107/260/312 39/118/312 40/121/312
f 107/260/313 38/203/313 39/118/313
f 107/260/313 37/264/313 38/203/313
f 37/264/314 89/232/315 88/231/316 38/203/314
f 247/265/317 215/90/318 185/89/319 246/266/320
f 99/207/321 41/261/321 98/155/321 86/208/321
f 58/214/322 67/267/322 32/11/322 33/14/322
f 107/260/323 106/258/323 105/46/323 108/45/323
f 259/268/324 130/269/324 154/270/324
f 154/270/325 142/271/325 170/181/325
f 142/271/326 155/272/326 170/181/326
f 155/272/327 141/273/327 170/181/327
f 141/273/328 156/274/328 170/181/328
f 353/275/329 345/276/330 355/277/329
f 353/275/329 355/277/329 344/278/329
f 353/275/329 344/278/329 356/279/329
f 353/275/329 356/279/329 367/280/329
f 353/275/329 366/281/331 357/282/329
f 353/275/329 357/282/329 365/283/329
f 353/275/329 365/283/329 358/284/329
f 353/275/329 359/238/329 364/240/329
f 353/275/329 364/240/329 360/285/329
f 353/275/329 362/286/329 363/287/329
f 353/275/329 363/287/329 368/288/329
f 353/275/329 369/246/329 348/244/329
f 353/275/329 348/244/329 349/243/329
f 353/275/329 349/243/329 347/242/329
f 232/289/332 239/290/333 218/291/333 241/292/333
f 368/288/334 363/287/334 118/30/334
f 363/287/335 362/286/335 118/30/335
f 360/285/336 364/240/336 118/30/336
f 15/293/337 11/294/337 250/180/337
f 11/24/338 12/23/339 250/180/340
f 206/236/341 336/295/342 250/180/342
f 336/295/343 381/143/343 250/180/343
f 63/296/344 64/297/345 4/142/346 1/141/346
f 170/181/347 281/234/347 269/256/348 153/298/349
f 125/39/350 123/38/350 203/250/350
f 75/299/351 76/300/351 374/301/351
f 76/300/352 48/302/352 374/301/352
f 48/303/353 47/223/353 374/253/353
f 48/303/354 106/258/354 47/223/354
f 106/258/355 46/224/355 47/223/355
f 106/258/356 45/257/356 46/224/356
f 106/258/355 44/174/355 45/257/355
f 34/13/357 107/260/357 108/45/357 33/14/357
f 34/210/357 35/209/357 107/260/357
f 35/304/358 103/1/359 107/260/358
f 103/1/360 102/4/361 107/260/362
f 102/4/363 101/218/364 107/260/358
f 101/305/365 36/221/365 107/260/365
f 36/221/313 37/264/313 107/260/313
f 82/9/366 83/222/367 85/149/368 77/10/369
f 67/267/370 7/306/370 32/11/370
f 7/306/371 380/144/371 32/11/371
f 380/144/372 254/64/372 32/11/372
f 380/144/373 255/65/373 254/64/373
f 133/307/374 293/308/375 294/309/376 167/310/377
f 187/63/378 92/12/378 32/11/378 254/64/378
f 344/278/379 355/277/379 154/270/379
f 345/276/380 155/272/381 142/271/381
f 345/276/382 141/273/383 155/272/383
f 346/311/384 156/274/385 141/273/385
f 346/312/386 354/313/386 156/274/386
f 358/284/387 365/283/387 139/239/387
f 365/283/388 127/314/388 139/239/388
f 203/250/389 210/190/389 124/40/389 125/39/389
f 271/136/390 117/27/391 265/26/392 268/315/393
f 339/316/394 343/317/395 381/143/395
f 343/317/396 202/318/396 381/143/396
f 202/318/397 235/319/397 381/143/397
f 235/319/398 234/320/398 381/143/398
f 236/321/399 241/292/400 381/143/400
f 241/292/401 218/291/401 381/143/401
f 15/293/402 250/180/402 381/143/402 2/322/402
f 71/323/403 72/324/404 376/325/405 377/326/405
f 4/327/406 3/328/406 381/143/406
f 3/328/407 2/329/407 381/143/407
f 2/322/408 114/330/408 109/331/408
f 2/322/408 109/331/408 15/293/408
f 109/331/409 371/332/409 15/293/409
f 371/332/410 11/294/410 15/293/410
f 371/332/411 377/333/411 11/294/411
f 377/333/412 370/21/412 11/294/412
f 49/334/413 75/299/413 374/301/413 375/335/413
f 72/324/414 73/80/415 376/325/416
f 65/336/417 66/337/418 3/328/419 4/327/419
f 51/338/420 74/167/420 373/150/421
f 50/339/422 49/334/422 375/166/422
f 49/334/423 105/46/423 75/299/423
f 105/46/354 76/300/354 75/299/354
f 49/334/424 50/339/424 105/46/424
f 50/165/425 74/167/425 105/46/425
f 74/167/426 51/338/426 105/46/426
f 51/338/427 52/340/427 105/46/427
f 52/81/427 73/80/428 105/46/427
f 73/80/429 72/324/430 105/46/431
f 72/324/432 71/323/433 105/46/431
f 71/323/434 53/130/431 105/46/431
f 53/341/435 54/129/435 105/46/435
f 54/129/19 70/47/19 105/46/19
f 57/48/19 55/342/19 108/45/19
f 55/342/436 66/343/436 108/45/436
f 66/337/437 65/336/438 108/45/436
f 65/336/439 64/297/440 108/45/441
f 64/297/442 63/296/443 108/45/441
f 63/296/444 62/163/445 108/45/446
f 62/163/447 61/162/448 108/45/446
f 61/162/449 60/344/450 108/45/451
f 60/344/452 59/217/453 108/45/454
f 59/217/455 56/215/456 108/45/456
f 56/215/454 58/214/454 108/45/454
f 58/214/357 33/14/357 108/45/357
f 35/304/457 91/211/457 93/2/458 103/1/459
f 68/212/460 6/345/461 67/213/462
f 6/346/463 7/347/463 67/267/463
f 6/346/464 380/144/464 7/306/464
f 6/346/465 5/164/465 380/144/465
f 5/164/466 1/141/466 380/144/466
f 219/348/467 231/349/468 380/144/468
f 231/349/469 240/350/469 380/144/469
f 240/350/470 230/351/470 380/144/470
f 238/352/471 242/124/472 380/144/472
f 242/124/473 256/353/473 380/144/473
f 169/354/474 296/355/474 289/356/475 132/357/476
f 105/46/354 106/258/354 48/302/354 76/300/354
f 367/280/477 356/279/477 130/269/477
f 365/283/478 144/358/478 127/359/479
f 357/282/480 144/358/480 365/283/480
f 296/355/481 283/360/481 289/356/482
f 296/355/483 120/31/483 283/360/483
f 296/355/484 284/361/484 120/31/484
f 373/150/485 375/166/486 14/248/487 13/247/488
f 376/22/489 372/82/489 17/152/489 12/23/490
f 138/362/491 202/318/492 343/317/492
f 234/320/493 235/319/493 202/318/493
f 201/116/494 243/115/495 234/320/495
f 62/163/496 63/296/497 1/141/498
f 64/297/499 65/336/500 4/142/501
f 40/263/502 97/120/502 87/156/502 100/262/503
f 66/343/504 55/342/504 3/328/504
f 55/342/505 113/363/505 3/328/505
f 113/363/506 2/329/506 3/328/506
f 113/363/507 114/330/507 2/322/507
f 114/330/508 57/48/508 70/47/508
f 114/330/508 70/47/508 109/331/508
f 112/364/509 371/332/509 109/331/509
f 112/364/510 110/365/510 371/332/510
f 110/365/511 377/333/511 371/332/511
f 110/128/512 111/131/513 377/333/514
f 111/131/515 53/130/516 377/333/516
f 53/130/517 71/323/518 377/326/517
f 54/129/519 112/364/519 109/331/519 70/47/519
f 239/290/520 231/349/520 219/348/521 218/366/522
f 110/365/523 112/364/523 54/129/523
f 114/330/524 55/342/524 57/48/524
f 114/330/525 113/363/525 55/342/525
f 5/164/526 60/344/527 61/162/528
f 5/164/529 59/217/530 60/344/531
f 5/164/532 69/367/532 59/217/533
f 249/126/534 186/93/535 214/92/535 248/170/536
f 69/216/537 6/345/538 68/212/539
f 69/367/540 5/164/540 6/346/540
f 154/270/541 170/181/541 193/75/541 259/268/541
f 242/124/542 230/351/542 240/350/542
f 37/264/543 36/221/543 90/220/544 89/232/545
f 217/123/546 256/353/546 242/124/546
f 217/123/547 253/67/547 256/66/547
f 169/354/548 132/368/548 260/72/549
f 357/282/550 128/369/551 144/358/550
f 357/282/552 366/281/553 129/370/554
f 366/371/555 143/372/555 129/370/556
f 149/196/557 171/178/557 276/373/558 277/374/559
f 172/197/560 149/196/560 277/374/561 278/83/562
f 99/207/303 104/206/303 106/258/303 107/260/303
f 252/375/563 217/123/564 138/362/565
f 217/123/566 200/122/566 138/362/567
f 200/122/568 216/117/568 138/362/569
f 216/117/570 201/116/571 138/362/572
f 100/262/573 87/156/574 98/376/575 41/261/574
f 237/377/576 244/114/577 239/290/577
f 298/35/578 333/378/578 315/379/578
f 298/35/578 315/379/578 338/36/578
f 315/379/579 299/380/579 338/36/579
f 299/380/580 314/381/580 338/36/580
f 312/382/581 300/383/581 338/36/581
f 300/383/582 311/384/582 338/36/582
f 310/385/583 301/386/583 338/36/583
f 331/387/584 322/388/584 298/35/584 297/53/584
f 252/69/585 257/68/585 217/123/585
f 257/68/586 253/67/586 217/123/586
f 345/276/587 142/271/588 154/270/588 355/277/588
f 90/220/589 10/225/590 9/389/591 89/232/592
f 116/25/593 164/390/593 158/19/593 274/391/593
f 301/386/594 309/392/594 342/194/595 338/36/596
f 308/393/597 302/394/597 342/194/598
f 302/394/599 307/395/599 342/194/600
f 307/395/601 303/191/601 342/194/602
f 304/396/603 306/397/604 136/192/605
f 306/397/606 305/398/606 136/192/607
f 305/398/608 126/399/608 136/192/609
f 126/399/610 326/400/610 136/192/611
f 326/400/612 327/401/612 136/192/613
f 328/402/614 325/403/615 136/192/616
f 325/403/617 297/53/617 136/192/618
f 135/404/619 263/71/620 251/70/621
f 45/257/622 24/189/622 19/187/623 46/224/622
f 344/278/624 154/270/624 130/269/624 356/279/624
f 318/405/625 332/406/625 298/35/625
f 332/406/626 317/407/626 298/35/626
f 316/408/627 333/378/627 298/35/627
f 333/378/628 317/409/628 332/406/628
f 333/378/628 332/406/628 318/405/628
f 333/378/628 322/410/628 331/387/628
f 333/378/628 330/411/629 323/412/628
f 333/378/628 323/412/628 329/413/628
f 333/378/628 329/413/628 324/414/628
f 333/378/628 325/415/628 328/402/630
f 333/378/628 327/416/631 326/400/628
f 333/378/628 326/400/628 126/399/628
f 333/378/632 126/399/632 305/398/632
f 333/378/628 305/398/628 306/397/628
f 333/378/628 306/397/628 304/396/633
f 333/378/628 303/417/634 307/395/628
f 333/378/628 307/395/628 302/394/628
f 333/378/628 302/394/628 308/393/628
f 333/378/628 309/418/628 301/386/628
f 333/378/628 301/386/628 310/385/628
f 333/378/628 311/419/628 300/383/628
f 333/378/628 300/383/628 312/382/628
f 333/378/628 314/420/628 299/380/628
f 333/378/635 299/380/635 315/379/635
f 133/307/636 167/421/637 262/422/638
f 245/125/639 242/124/639 240/350/639 231/349/639
f 285/52/640 122/34/640 286/423/641
f 324/414/642 329/413/642 297/53/642
f 329/413/643 323/412/643 297/53/643
f 323/412/644 330/411/645 297/53/644
f 291/424/646 135/404/647 285/52/648
f 353/275/329 350/241/329 351/425/329
f 353/275/329 351/425/329 352/426/329
f 273/227/649 274/88/650 280/87/651
f 266/84/652 267/427/653 265/26/654
f 287/428/655 288/429/656 294/309/657
f 293/308/658 287/428/655 294/309/657
f 131/430/659 128/369/660 129/370/661
f 337/431/662 339/316/663 340/432/664
f 337/431/662 340/432/664 336/433/665
f 338/36/666 342/194/667 341/434/668 337/431/669
f 164/15/9 165/435/9 166/16/9
f 164/15/9 159/17/9 160/436/9
f 164/15/9 160/436/9 161/437/9
f 164/15/9 161/437/9 162/438/9
f 164/15/9 162/438/9 163/18/9
f 273/227/670 116/25/671 274/88/672
f 292/439/673 134/440/674 135/404/675 291/424/676
f 116/25/14 266/84/677 265/26/678
f 116/25/14 118/30/14 119/441/14
f 116/25/14 119/441/14 120/31/14
f 116/25/14 121/33/14 122/34/14
f 116/25/14 338/36/14 337/431/679
f 116/25/14 337/431/680 336/433/681
f 116/25/14 336/433/682 335/251/683
f 116/25/14 335/251/684 334/37/685
f 116/25/14 125/39/14 124/40/14
f 116/25/14 182/42/14 181/140/686
f 116/25/14 181/140/687 180/100/688
f 116/25/14 180/100/689 179/43/690
f 116/25/14 165/44/14 164/15/14
f 162/438/691 147/20/691 163/18/691
f 146/59/692 195/58/693 147/442/694
f 195/58/695 148/51/696 147/442/697
f 162/438/698 161/437/698 147/20/698
f 161/437/699 160/436/699 147/20/699
f 160/436/700 159/443/700 147/20/700
f 166/16/701 146/59/702 147/442/703
f 287/428/704 293/308/705 292/439/706 286/423/707
f 283/360/708 120/31/708 119/441/708 289/356/709
f 195/444/710 196/49/711 148/51/712
f 145/91/713 190/57/714 146/59/715
f 127/359/716 131/430/717 290/445/718 139/239/718
f 190/60/719 191/94/719 189/108/719
f 190/60/27 189/108/27 188/61/720
f 190/60/27 255/65/27 256/66/27
f 190/60/27 252/69/27 251/70/721
f 190/60/27 263/71/27 262/422/722
f 190/60/27 262/422/723 261/446/724
f 190/60/27 261/446/725 260/72/726
f 190/60/27 258/73/27 259/74/27
f 190/60/27 199/76/27 198/77/727
f 190/60/27 197/79/27 196/49/728
f 190/60/27 196/49/729 195/444/730
f 278/83/731 272/85/732 279/447/733
f 196/49/734 197/198/735 174/50/736
f 197/198/737 173/448/738 174/449/738
f 278/83/739 267/427/740 266/84/741
f 286/423/742 122/34/743 121/33/743 287/428/744
f 177/55/745 183/54/745 179/43/746
f 191/94/747 190/60/747 145/91/748
f 184/450/749 185/89/750 145/91/751
f 215/451/752 214/92/752 145/91/753
f 175/107/754 178/110/755 177/195/756
f 277/374/757 268/452/758 278/83/759
f 268/315/760 265/26/761 278/83/762
f 265/26/763 267/427/764 278/83/765
f 197/198/766 172/197/767 173/448/767
f 167/310/768 168/453/768 261/446/769 262/422/770
f 287/428/771 121/33/772 282/32/772 288/429/773
f 181/140/774 212/98/775 180/100/776
f 176/105/777 28/104/778 175/107/779
f 379/106/780 178/110/781 175/107/782
f 223/112/783 185/89/784 184/450/785
f 188/61/786 189/454/787 186/93/788
f 168/453/789 169/354/789 260/72/790 261/446/791
f 275/455/792 270/138/793 117/27/794
f 182/183/795 383/139/796 181/140/797
f 218/366/798 219/348/799 380/144/800 381/143/800
f 207/456/801 209/161/802 379/106/803
f 224/457/804 246/113/805 223/112/805
f 225/132/806 226/135/807 247/265/808
f 183/54/809 166/56/809 165/44/809 179/43/810
f 171/178/811 271/136/812 276/373/813
f 132/357/814 131/430/815 258/73/816 260/72/817
f 269/256/818 264/28/819 275/455/820
f 264/28/821 270/138/822 275/455/823
f 200/122/824 245/125/824 244/114/824 216/117/824
f 228/172/825 229/458/826 384/173/827
f 225/132/828 224/457/829 207/456/830
f 131/430/831 130/459/832 259/74/833 258/460/833
f 153/298/834 152/461/835 199/76/836
f 152/461/837 151/462/838 199/76/839
f 151/462/840 152/461/841 269/256/842
f 152/461/843 153/298/844 269/256/845
f 351/425/846 350/241/846 140/29/846
f 369/246/267 368/463/267 118/30/267
f 334/37/847 335/251/848 382/179/849
f 204/464/850 205/237/851 382/179/852
f 294/309/853 295/465/854 168/453/855 167/310/855
f 352/426/856 351/425/856 140/29/856 281/234/856
f 220/168/857 248/170/858 247/265/859 226/135/860
f 156/466/861 157/235/862 170/181/863
f 294/309/864 282/467/865 120/31/866 284/468/867
f 354/313/868 353/275/868 281/234/868
f 353/275/869 352/426/869 281/234/869
f 353/275/329 354/313/329 346/312/329
f 353/275/329 346/312/329 345/276/870
f 353/275/329 367/280/329 366/281/871
f 353/275/329 358/284/329 359/238/329
f 353/275/329 360/285/329 361/469/329
f 353/275/329 361/469/329 362/286/329
f 353/275/329 368/288/329 369/246/329
f 353/275/329 347/242/329 350/241/329
f 362/286/872 361/469/872 118/30/872
f 361/469/873 360/470/873 118/30/873
f 173/448/874 172/197/874 278/83/875 279/447/876
f 151/462/877 269/256/878 275/455/879 150/177/880
f 228/172/881 249/126/882 248/170/883 229/458/884
f 336/433/885 204/252/886 335/251/887
f 336/433/888 205/237/889 204/464/890
f 336/295/891 206/236/892 205/237/893
f 279/447/894 272/85/895 273/227/896 280/87/897
f 366/281/898 367/471/899 130/459/900 143/372/901
f 345/276/902 346/311/903 141/273/904
f 354/233/905 157/235/906 156/466/907
f 207/456/908 224/457/909 223/112/910 209/161/911
f 359/238/912 358/472/912 139/239/912
f 289/356/913 119/441/914 290/445/914
f 336/433/915 340/432/916 381/143/917
f 340/432/918 339/316/919 381/143/920
f 234/473/921 236/321/922 381/143/923
f 132/357/924 289/356/925 290/474/926 131/430/927
f 290/445/928 119/441/928 118/30/928 139/239/928
f 232/289/929 233/475/930 243/115/931 244/114/931
f 230/476/932 238/352/933 380/144/934
f 256/66/935 255/477/935 380/144/935
f 127/359/936 144/358/937 131/430/938
f 144/358/939 128/369/660 131/430/659
f 129/370/940 143/372/941 131/430/942
f 143/372/943 130/459/944 131/430/659
f 174/449/945 173/448/945 279/447/946 280/87/947
f 337/431/662 341/434/948 339/316/949
f 341/478/950 343/479/951 339/316/952
f 138/362/953 201/116/954 202/480/955
f 201/116/956 234/320/957 202/480/958
f 243/115/959 236/321/960 234/473/961
f 233/475/962 241/292/963 236/321/964
f 243/115/965 233/475/966 236/321/967
f 233/475/968 232/289/969 241/292/970
f 169/354/971 168/453/971 295/465/972 296/481/973
f 244/482/974 245/125/974 231/349/974 239/290/974
f 285/52/975 135/404/976 136/192/977 297/53/975
f 134/440/978 292/439/979 293/308/980 133/307/981
f 176/105/982 175/86/983 179/43/984 180/100/985
f 224/457/986 225/132/987 247/265/988 246/266/989
f 242/124/990 238/352/991 230/476/992
f 177/55/993 145/91/994 146/59/995 166/56/993
f 357/282/996 129/370/997 128/369/998
f 295/465/999 284/361/1000 296/355/1000
f 295/465/1001 294/309/1002 284/361/1003
f 294/309/1004 288/429/1005 282/467/1006
f 342/194/1007 137/483/1008 341/478/1009
f 136/192/1010 251/484/1011 137/193/1012
f 251/70/1013 252/375/1014 137/193/1015
f 252/375/1016 138/362/1017 137/193/1018
f 151/462/1019 150/177/1020 198/77/1021 199/485/1022
f 244/114/1023 237/377/1024 232/289/1025
f 237/377/1026 239/290/1027 232/289/1028
f 314/420/1029 313/486/1029 338/36/1029
f 313/486/1030 312/382/1030 338/36/1030
f 311/419/1031 310/385/1031 338/36/1031
f 247/265/1032 248/170/1033 214/92/1034 215/451/1034
f 309/418/1035 308/393/1035 342/194/1036
f 303/417/1037 304/396/1038 136/192/1039
f 327/416/1040 328/402/1041 136/192/1042
f 147/442/1043 148/51/1044 274/391/1045 158/19/1045
f 135/404/1046 251/484/1047 136/192/1048
f 322/410/1049 321/487/1049 298/35/1049
f 321/487/1050 320/488/1050 298/35/1050
f 320/488/1051 319/489/1051 298/35/1051
f 319/489/1052 318/405/1052 298/35/1052
f 317/409/1053 316/408/1053 298/35/1053
f 333/378/628 316/408/628 317/409/628
f 333/378/628 318/405/628 319/489/628
f 333/378/628 319/489/628 320/488/628
f 333/378/628 320/488/628 321/487/628
f 333/378/628 321/487/628 322/410/628
f 333/378/628 331/387/628 330/411/1054
f 333/378/628 324/414/628 325/415/628
f 333/378/628 328/402/1055 327/416/1056
f 333/378/628 304/396/1057 303/417/1058
f 333/378/628 308/393/628 309/418/628
f 333/378/628 310/385/628 311/419/628
f 333/378/628 312/382/628 313/486/628
f 333/378/628 313/486/628 314/420/628
f 263/490/1059 134/491/1060 262/422/735
f 134/440/1061 133/307/1062 262/422/1063
f 285/52/1064 286/423/1065 292/439/1066 291/424/1067
f 268/452/1068 277/374/1069 276/373/1070 271/136/1071
f 324/492/1072 297/53/1072 325/403/1072
f 330/411/1073 331/493/1074 297/53/1075
f 134/491/1076 263/490/1077 135/404/1078
f 137/193/1079 138/362/1080 343/479/1081 341/478/1082
f 51/338/1083 373/150/1084 372/82/1083 52/340/1083
f 375/335/1085 374/301/1085 16/249/1085 14/248/1086
f 370/21/1087 377/333/1087 376/325/1087
f 18/254/1088 383/188/1088 382/179/1088 16/249/1088
f 382/179/1089 383/188/1089 210/190/1089 203/250/1089
